<svg version="1.1" viewBox="0.0 0.0 722.0 409.501312335958" fill="none" stroke="none" stroke-linecap="square" stroke-miterlimit="10" xmlns:xlink="http://www.w3.org/1999/xlink" xmlns="http://www.w3.org/2000/svg"><clipPath id="p.0"><path d="m0 0l722.0 0l0 409.5013l-722.0 0l0 -409.5013z" clip-rule="nonzero"/></clipPath><g clip-path="url(#p.0)"><path fill="#000000" fill-opacity="0.0" d="m0 0l722.0 0l0 409.5013l-722.0 0z" fill-rule="evenodd"/><path fill="#000000" fill-opacity="0.0" d="m503.48273 50.934586c-2.5901184 -2.417324 1.0350037 -13.468067 -15.54068 -14.503937c-16.575684 -1.0358734 -69.927826 -4.4886284 -83.91339 8.288712c-13.985565 12.77734 -10.877533 48.001312 0 68.37533c10.877502 20.374016 47.366577 12.937447 65.265076 53.868767c17.89853 40.93132 35.10501 159.76598 42.126007 191.71916" fill-rule="evenodd"/><path stroke="#000000" stroke-width="1.0" stroke-linejoin="round" stroke-linecap="butt" d="m503.48273 50.93458c-2.5901184 -2.4173203 1.0350037 -13.468063 -15.54068 -14.503933c-16.575714 -1.0358696 -69.927826 -4.4886265 -83.91339 8.288712c-13.985565 12.777344 -10.877533 48.00132 0 68.375336c10.877502 20.374008 47.366577 12.937439 65.26511 53.86876c8.94928 20.465652 17.725525 60.40715 25.14206 99.226395c3.7082825 19.409607 7.07666 38.538635 9.956726 54.812378c1.440033 8.136841 2.7580566 15.5598755 3.9354248 21.947235c0.5886841 3.1936646 1.1422119 6.128418 1.6582947 8.764038l0.2164917 1.0938416" fill-rule="evenodd"/><path fill="#000000" stroke="#000000" stroke-width="1.0" stroke-linecap="butt" d="m508.58536 353.14236l2.5378723 4.108734l0.69692993 -4.778778z" fill-rule="evenodd"/><path fill="#f3f3f3" d="m91.69554 255.99475l152.28346 0l0 43.3071l-152.28346 0z" fill-rule="evenodd"/><path stroke="#000000" stroke-width="1.0" stroke-linejoin="round" stroke-linecap="butt" d="m91.69554 255.99475l152.28346 0l0 43.3071l-152.28346 0z" fill-rule="evenodd"/><path fill="#000000" d="m125.2868 280.17767q0 1.109375 -0.390625 2.171875q-0.375 1.046875 -1.203125 1.734375q-0.828125 0.671875 -2.1875 0.671875q-1.890625 0 -2.75 -1.40625l0 4.125l1.921875 0l0 1.0625l-4.6875 0l0 -1.0625l1.46875 0l0 -10.140625l-1.5 0l0 -1.0625l2.796875 0l0 1.734375q0.375 -0.75 1.078125 -1.328125q0.71875 -0.578125 1.875 -0.578125q1.609375 0 2.59375 1.078125q0.984375 1.078125 0.984375 3.0zm-1.375 0.125q0 -1.5 -0.734375 -2.28125q-0.71875 -0.796875 -1.796875 -0.796875q-1.125 0 -1.859375 0.890625q-0.71875 0.875 -0.765625 1.828125l0 1.234375q0 1.046875 0.734375 1.75q0.734375 0.703125 1.75 0.703125q1.40625 0 2.03125 -1.0q0.640625 -1.015625 0.640625 -2.328125zm3.6046906 -3.40625q0.6562576 -0.421875 1.3750076 -0.609375q0.734375 -0.1875 1.546875 -0.1875q2.96875 0 2.96875 2.78125l0 3.953125q0 0.890625 0.703125 0.890625q0.328125 0 0.5625 -0.109375l0.015625 0.859375q-0.5 0.28125 -1.078125 0.28125q-1.46875 0 -1.515625 -1.6875l0 -0.03125q-0.390625 0.671875 -1.109375 1.203125q-0.71875 0.515625 -1.71875 0.515625q-0.828125 0 -1.6718826 -0.5q-0.84375 -0.515625 -0.84375 -1.828125q0 -1.578125 1.234375 -2.0625q1.2500076 -0.5 2.6406326 -0.5q0.375 0 0.75 0.015625q0.390625 0.015625 0.71875 0.0625l0 -0.75q0 -0.890625 -0.390625 -1.453125q-0.375 -0.5625 -1.484375 -0.5625q-0.921875 0 -1.609375 0.34375l-0.3125 1.4375l-1.0781326 -0.140625l0.296875 -1.921875zm4.5781326 4.5625l0 -0.640625q-0.34375 -0.015625 -0.734375 -0.046875q-0.390625 -0.046875 -0.8125 -0.046875q-0.921875 0 -1.6875 0.296875q-0.75 0.28125 -0.75 1.25q0 0.796875 0.5 1.109375q0.5 0.296875 1.046875 0.296875q0.859375 0 1.609375 -0.59375q0.765625 -0.609375 0.828125 -1.625zm8.214096 -5.34375q0.890625 0 1.421875 0.4375l0.3125 2.078125l-1.0625 0.140625l-0.3125 -1.421875q-0.328125 -0.109375 -0.640625 -0.109375q-0.71875 0 -1.203125 0.609375q-0.484375 0.59375 -0.484375 1.5625l0 4.09375l1.921875 0l0 1.0625l-4.6875 0l0 -1.0625l1.453125 0l0 -6.171875l-1.5 0l0 -1.0625l2.734375 0l0 1.484375q0.234375 -0.6875 0.78125 -1.15625q0.5625 -0.484375 1.265625 -0.484375zm10.648132 6.0625q-0.15625 1.0625 -1.0625 1.828125q-0.890625 0.75 -2.421875 0.75q-1.75 0 -2.84375 -1.09375q-1.078125 -1.109375 -1.078125 -3.125q0 -1.9375 1.03125 -3.1875q1.03125 -1.25 2.78125 -1.25q1.71875 0 2.609375 1.078125q0.890625 1.078125 0.921875 2.5625q0 0.484375 -0.125 0.984375l-5.828125 0q0.109375 2.90625 2.625 2.90625q0.984375 0 1.546875 -0.453125q0.5625 -0.46875 0.75 -1.234375l1.09375 0.234375zm-1.453125 -2.421875q0.09375 -0.9375 -0.4375 -1.75q-0.53125 -0.828125 -1.734375 -0.828125q-1.15625 0 -1.703125 0.765625q-0.546875 0.765625 -0.671875 1.8125l4.546875 0zm12.627808 4.8125l-4.1875 0l0 -1.0625l1.4375 0l0 -3.859375q0 -1.34375 -0.546875 -1.890625q-0.546875 -0.5625 -1.375 -0.5625q-1.125 0 -1.8125 0.75q-0.671875 0.734375 -0.703125 1.6875l0 3.875l1.453125 0l0 1.0625l-4.21875 0l0 -1.0625l1.453125 0l0 -6.171875l-1.5 0l0 -1.0625l2.8125 0l0 1.46875q0.890625 -1.640625 2.90625 -1.640625q1.203125 0 2.015625 0.75q0.828125 0.734375 0.828125 2.40625l0 4.25l1.4375 0l0 1.0625zm7.002533 -2.234375q-0.328125 2.421875 -2.625 2.421875q-1.25 0 -1.921875 -0.703125q-0.65625 -0.71875 -0.65625 -1.921875l0 -4.8125l-1.34375 0l0 -1.046875l1.34375 0l0 -2.671875l1.296875 0l0 2.671875l3.25 0l0 1.046875l-3.25 0l0 4.640625q0 0.75 0.328125 1.203125q0.328125 0.453125 1.078125 0.453125q0.484375 0 0.90625 -0.296875q0.421875 -0.296875 0.609375 -1.3125l0.984375 0.328125zm1.155838 2.234375l0 -2.015625l1.8125 0l0 2.015625l-1.8125 0zm16.180664 -7.234375l-0.953125 0l-2.453125 7.234375l-1.0 0l-2.546875 -6.34375l-0.078125 0l-2.484375 6.34375l-0.96875 0l-2.546875 -7.234375l-0.90625 0l0 -1.0625l3.90625 0l0 1.0625l-1.578125 0l1.734375 5.234375l0.09375 0l2.46875 -6.296875l0.875 0l2.59375 6.296875l0.09375 0l1.53125 -5.234375l-1.515625 0l0 -1.0625l3.734375 0l0 1.0625zm1.6969452 -0.4375q0.65625 -0.421875 1.375 -0.609375q0.734375 -0.1875 1.546875 -0.1875q2.96875 0 2.96875 2.78125l0 3.953125q0 0.890625 0.703125 0.890625q0.328125 0 0.5625 -0.109375l0.015625 0.859375q-0.5 0.28125 -1.078125 0.28125q-1.46875 0 -1.515625 -1.6875l0 -0.03125q-0.390625 0.671875 -1.109375 1.203125q-0.71875 0.515625 -1.71875 0.515625q-0.828125 0 -1.671875 -0.5q-0.84375 -0.515625 -0.84375 -1.828125q0 -1.578125 1.234375 -2.0625q1.25 -0.5 2.640625 -0.5q0.375 0 0.75 0.015625q0.390625 0.015625 0.71875 0.0625l0 -0.75q0 -0.890625 -0.390625 -1.453125q-0.375 -0.5625 -1.484375 -0.5625q-0.921875 0 -1.609375 0.34375l-0.3125 1.4375l-1.078125 -0.140625l0.296875 -1.921875zm4.578125 4.5625l0 -0.640625q-0.34375 -0.015625 -0.734375 -0.046875q-0.390625 -0.046875 -0.8125 -0.046875q-0.921875 0 -1.6875 0.296875q-0.75 0.28125 -0.75 1.25q0 0.796875 0.5 1.109375q0.5 0.296875 1.046875 0.296875q0.859375 0 1.609375 -0.59375q0.765625 -0.609375 0.828125 -1.625zm10.354721 0.703125q0 1.21875 -1.015625 1.90625q-1.015625 0.6875 -2.5 0.6875q-0.875 0 -1.75 -0.234375q-0.859375 -0.234375 -1.40625 -0.59375l0.265625 -1.875l1.046875 0.109375l-0.0625 1.09375q0.859375 0.421875 1.84375 0.421875q0.875 0 1.546875 -0.34375q0.6875 -0.34375 0.6875 -1.0625q0 -0.6875 -0.515625 -0.96875q-0.515625 -0.28125 -1.296875 -0.40625q-0.78125 -0.140625 -1.5625 -0.3125q-0.78125 -0.1875 -1.3125 -0.640625q-0.515625 -0.46875 -0.515625 -1.4375q0 -1.328125 0.96875 -1.859375q0.96875 -0.546875 2.109375 -0.546875q0.859375 0 1.609375 0.234375q0.765625 0.21875 1.28125 0.53125l0.21875 1.9375l-1.09375 0.125l-0.203125 -1.34375q-0.78125 -0.40625 -1.703125 -0.40625q-0.78125 0 -1.28125 0.296875q-0.5 0.296875 -0.5 0.9375q0 0.65625 0.515625 0.921875q0.53125 0.265625 1.296875 0.390625q0.765625 0.125 1.53125 0.3125q0.765625 0.1875 1.28125 0.671875q0.515625 0.46875 0.515625 1.453125zm16.671417 2.40625l-3.9843597 0l0 -1.0625l1.21875 0l0 -3.859375q0 -1.34375 -0.53125 -1.890625q-0.53125 -0.5625 -1.359375 -0.5625q-1.125 0 -1.75 0.859375q-0.609375 0.859375 -0.625 1.640625l0 3.8125l1.421875 0l0 1.0625l-3.953125 0l0 -1.0625l1.203125 0l0 -3.859375q0 -1.359375 -0.53125 -1.90625q-0.515625 -0.546875 -1.3125 -0.546875q-1.15625 0 -1.765625 0.84375q-0.609375 0.828125 -0.640625 1.625l0 3.84375l1.515625 0l0 1.0625l-4.28125 0l0 -1.0625l1.453125 0l0 -6.171875l-1.46875 0l0 -1.0625l2.78125 0l0 1.546875q0.40625 -0.75 1.09375 -1.234375q0.6875 -0.484375 1.671875 -0.484375q0.984375 0 1.6875 0.484375q0.71875 0.484375 0.984375 1.515625q0.375 -0.875 1.109375 -1.4375q0.734375 -0.5625 1.828125 -0.5625q1.1875 0 1.984375 0.75q0.796875 0.734375 0.796875 2.40625l0 4.25l1.4531097 0l0 1.0625z" fill-rule="nonzero"/><path fill="#f3f3f3" d="m15.553806 51.27034l152.28346 0l0 43.30709l-152.28346 0z" fill-rule="evenodd"/><path stroke="#000000" stroke-width="1.0" stroke-linejoin="round" stroke-linecap="butt" d="m15.553806 51.27034l152.28346 0l0 43.30709l-152.28346 0z" fill-rule="evenodd"/><path fill="#000000" d="m29.117855 73.825554q0.65625 -0.421875 1.375 -0.609375q0.734375 -0.1875 1.546875 -0.1875q2.96875 0 2.96875 2.78125l0 3.953125q0 0.890625 0.703125 0.890625q0.328125 0 0.5625 -0.109375l0.015625 0.859375q-0.5 0.28125 -1.078125 0.28125q-1.46875 0 -1.515625 -1.6875l0 -0.03125q-0.390625 0.671875 -1.109375 1.203125q-0.71875 0.515625 -1.71875 0.515625q-0.828125 0 -1.671875 -0.5q-0.84375 -0.515625 -0.84375 -1.828125q0 -1.578125 1.234375 -2.0625q1.25 -0.5 2.640625 -0.5q0.375 0 0.75 0.015625q0.390625 0.015625 0.71875 0.0625l0 -0.75q0 -0.890625 -0.390625 -1.453125q-0.375 -0.5625 -1.484375 -0.5625q-0.921875 0 -1.609375 0.34375l-0.3125 1.4375l-1.078125 -0.140625l0.296875 -1.921875zm4.578125 4.5625l0 -0.640625q-0.34375 -0.015625 -0.734375 -0.046875q-0.390625 -0.046875 -0.8125 -0.046875q-0.921875 0 -1.6875 0.296875q-0.75 0.28125 -0.75 1.25q0 0.796875 0.5 1.109375q0.5 0.296875 1.046875 0.296875q0.859375 0 1.609375 -0.59375q0.765625 -0.609375 0.828125 -1.625zm9.745346 0.875q-0.328125 2.421875 -2.625 2.421875q-1.25 0 -1.921875 -0.703125q-0.65625 -0.71875 -0.65625 -1.921875l0 -4.8125l-1.34375 0l0 -1.046875l1.34375 0l0 -2.671875l1.296875 0l0 2.671875l3.25 0l0 1.046875l-3.25 0l0 4.640625q0 0.75 0.328125 1.203125q0.328125 0.453125 1.078125 0.453125q0.484375 0 0.90625 -0.296875q0.421875 -0.296875 0.609375 -1.3125l0.984375 0.328125zm6.921463 0q-0.328125 2.421875 -2.625 2.421875q-1.25 0 -1.921875 -0.703125q-0.65625 -0.71875 -0.65625 -1.921875l0 -4.8125l-1.34375 0l0 -1.046875l1.34375 0l0 -2.671875l1.296875 0l0 2.671875l3.25 0l0 1.046875l-3.25 0l0 4.640625q0 0.75 0.328125 1.203125q0.328125 0.453125 1.078125 0.453125q0.484375 0 0.90625 -0.296875q0.421875 -0.296875 0.609375 -1.3125l0.984375 0.328125zm8.202713 -0.15625q-0.15625 1.0625 -1.0625 1.828125q-0.890625 0.75 -2.421875 0.75q-1.75 0 -2.84375 -1.09375q-1.078125 -1.109375 -1.078125 -3.125q0 -1.9375 1.03125 -3.1875q1.03125 -1.25 2.78125 -1.25q1.71875 0 2.609375 1.078125q0.890625 1.078125 0.921875 2.5625q0 0.484375 -0.125 0.984375l-5.828125 0q0.109375 2.90625 2.625 2.90625q0.984375 0 1.546875 -0.453125q0.5625 -0.46875 0.75 -1.234375l1.09375 0.234375zm-1.453125 -2.421875q0.09375 -0.9375 -0.4375 -1.75q-0.53125 -0.828125 -1.734375 -0.828125q-1.15625 0 -1.703125 0.765625q-0.546875 0.765625 -0.671875 1.8125l4.546875 0zm12.627804 4.8125l-4.1875 0l0 -1.0625l1.4375 0l0 -3.859375q0 -1.34375 -0.546875 -1.890625q-0.546875 -0.5625 -1.375 -0.5625q-1.1249962 0 -1.8124962 0.75q-0.671875 0.734375 -0.703125 1.6875l0 3.875l1.4531212 0l0 1.0625l-4.218746 0l0 -1.0625l1.453125 0l0 -6.171875l-1.5 0l0 -1.0625l2.8125 0l0 1.46875q0.890625 -1.640625 2.9062462 -1.640625q1.203125 0 2.015625 0.75q0.828125 0.734375 0.828125 2.40625l0 4.25l1.4375 0l0 1.0625zm10.361908 0l-2.796875 0l0 -1.5625q-0.390625 0.78125 -1.15625 1.265625q-0.75 0.484375 -1.734375 0.484375q-1.21875 0 -2.046875 -0.75q-0.828125 -0.765625 -0.828125 -2.421875l0 -4.25l-1.453125 0l0 -1.0625l2.75 0l0 4.9375q0 1.34375 0.5625 1.890625q0.5625 0.53125 1.4375 0.53125q1.0625 0 1.734375 -0.796875q0.6875 -0.796875 0.734375 -1.703125l0 -3.796875l-1.734375 0l0 -1.0625l3.03125 0l0 7.234375l1.5 0l0 1.0625zm1.794281 -7.671875q0.65625 -0.421875 1.375 -0.609375q0.734375 -0.1875 1.546875 -0.1875q2.96875 0 2.96875 2.78125l0 3.953125q0 0.890625 0.703125 0.890625q0.328125 0 0.5625 -0.109375l0.015625 0.859375q-0.5 0.28125 -1.078125 0.28125q-1.46875 0 -1.515625 -1.6875l0 -0.03125q-0.390625 0.671875 -1.109375 1.203125q-0.71875 0.515625 -1.71875 0.515625q-0.828125 0 -1.671875 -0.5q-0.84375 -0.515625 -0.84375 -1.828125q0 -1.578125 1.234375 -2.0625q1.25 -0.5 2.640625 -0.5q0.375 0 0.75 0.015625q0.390625 0.015625 0.71875 0.0625l0 -0.75q0 -0.890625 -0.390625 -1.453125q-0.375 -0.5625 -1.484375 -0.5625q-0.921875 0 -1.609375 0.34375l-0.3125 1.4375l-1.078125 -0.140625l0.296875 -1.921875zm4.578125 4.5625l0 -0.640625q-0.34375 -0.015625 -0.734375 -0.046875q-0.390625 -0.046875 -0.8125 -0.046875q-0.921875 0 -1.6875 0.296875q-0.75 0.28125 -0.75 1.25q0 0.796875 0.5 1.109375q0.5 0.296875 1.046875 0.296875q0.859375 0 1.609375 -0.59375q0.765625 -0.609375 0.828125 -1.625zm9.745346 0.875q-0.328125 2.421875 -2.625 2.421875q-1.25 0 -1.921875 -0.703125q-0.65625 -0.71875 -0.65625 -1.921875l0 -4.8125l-1.34375 0l0 -1.046875l1.34375 0l0 -2.671875l1.296875 0l0 2.671875l3.25 0l0 1.046875l-3.25 0l0 4.640625q0 0.75 0.328125 1.203125q0.328125 0.453125 1.078125 0.453125q0.484375 0 0.90625 -0.296875q0.421875 -0.296875 0.609375 -1.3125l0.984375 0.328125zm8.202713 -0.15625q-0.15625 1.0625 -1.0625 1.828125q-0.890625 0.75 -2.421875 0.75q-1.75 0 -2.84375 -1.09375q-1.078125 -1.109375 -1.078125 -3.125q0 -1.9375 1.03125 -3.1875q1.03125 -1.25 2.78125 -1.25q1.71875 0 2.609375 1.078125q0.890625 1.078125 0.921875 2.5625q0 0.484375 -0.125 0.984375l-5.828125 0q0.109375 2.90625 2.625 2.90625q0.984375 0 1.546875 -0.453125q0.5625 -0.46875 0.75 -1.234375l1.09375 0.234375zm-1.453125 -2.421875q0.09375 -0.9375 -0.4375 -1.75q-0.53125 -0.828125 -1.734375 -0.828125q-1.15625 0 -1.703125 0.765625q-0.546875 0.765625 -0.671875 1.8125l4.546875 0zm3.1746826 4.8125l0 -2.015625l1.8125 0l0 2.015625l-1.8125 0zm16.180664 -7.234375l-0.953125 0l-2.453125 7.234375l-1.0 0l-2.546875 -6.34375l-0.078125 0l-2.484375 6.34375l-0.96875 0l-2.546875 -7.234375l-0.90625 0l0 -1.0625l3.90625 0l0 1.0625l-1.578125 0l1.734375 5.234375l0.09375 0l2.46875 -6.296875l0.875 0l2.59375 6.296875l0.09375 0l1.53125 -5.234375l-1.515625 0l0 -1.0625l3.734375 0l0 1.0625zm1.6969452 -0.4375q0.65625 -0.421875 1.375 -0.609375q0.734375 -0.1875 1.546875 -0.1875q2.9687576 0 2.9687576 2.78125l0 3.953125q0 0.890625 0.703125 0.890625q0.328125 0 0.5625 -0.109375l0.015625 0.859375q-0.5 0.28125 -1.078125 0.28125q-1.46875 0 -1.515625 -1.6875l0 -0.03125q-0.390625 0.671875 -1.1093826 1.203125q-0.71875 0.515625 -1.71875 0.515625q-0.828125 0 -1.671875 -0.5q-0.84375 -0.515625 -0.84375 -1.828125q0 -1.578125 1.234375 -2.0625q1.25 -0.5 2.640625 -0.5q0.375 0 0.75 0.015625q0.39063263 0.015625 0.7187576 0.0625l0 -0.75q0 -0.890625 -0.390625 -1.453125q-0.37500763 -0.5625 -1.4843826 -0.5625q-0.921875 0 -1.609375 0.34375l-0.3125 1.4375l-1.078125 -0.140625l0.296875 -1.921875zm4.5781326 4.5625l0 -0.640625q-0.34375 -0.015625 -0.7343826 -0.046875q-0.390625 -0.046875 -0.8125 -0.046875q-0.921875 0 -1.6875 0.296875q-0.75 0.28125 -0.75 1.25q0 0.796875 0.5 1.109375q0.5 0.296875 1.046875 0.296875q0.859375 0 1.609375 -0.59375q0.7656326 -0.609375 0.8281326 -1.625zm10.354721 0.703125q0 1.21875 -1.015625 1.90625q-1.015625 0.6875 -2.5 0.6875q-0.875 0 -1.75 -0.234375q-0.859375 -0.234375 -1.40625 -0.59375l0.265625 -1.875l1.046875 0.109375l-0.0625 1.09375q0.859375 0.421875 1.84375 0.421875q0.875 0 1.546875 -0.34375q0.6875 -0.34375 0.6875 -1.0625q0 -0.6875 -0.515625 -0.96875q-0.515625 -0.28125 -1.296875 -0.40625q-0.78125 -0.140625 -1.5625 -0.3125q-0.78125 -0.1875 -1.3125 -0.640625q-0.515625 -0.46875 -0.515625 -1.4375q0 -1.328125 0.96875 -1.859375q0.96875 -0.546875 2.109375 -0.546875q0.859375 0 1.609375 0.234375q0.765625 0.21875 1.28125 0.53125l0.21875 1.9375l-1.09375 0.125l-0.203125 -1.34375q-0.78125 -0.40625 -1.703125 -0.40625q-0.78125 0 -1.28125 0.296875q-0.5 0.296875 -0.5 0.9375q0 0.65625 0.515625 0.921875q0.53125 0.265625 1.296875 0.390625q0.765625 0.125 1.53125 0.3125q0.765625 0.1875 1.28125 0.671875q0.515625 0.46875 0.515625 1.453125zm16.671432 2.40625l-3.984375 0l0 -1.0625l1.21875 0l0 -3.859375q0 -1.34375 -0.53125 -1.890625q-0.53125 -0.5625 -1.359375 -0.5625q-1.125 0 -1.75 0.859375q-0.609375 0.859375 -0.625 1.640625l0 3.8125l1.421875 0l0 1.0625l-3.953125 0l0 -1.0625l1.203125 0l0 -3.859375q0 -1.359375 -0.53125 -1.90625q-0.515625 -0.546875 -1.3125 -0.546875q-1.15625 0 -1.765625 0.84375q-0.609375 0.828125 -0.640625 1.625l0 3.84375l1.515625 0l0 1.0625l-4.28125 0l0 -1.0625l1.453125 0l0 -6.171875l-1.46875 0l0 -1.0625l2.78125 0l0 1.546875q0.40625 -0.75 1.09375 -1.234375q0.6875 -0.484375 1.671875 -0.484375q0.984375 0 1.6875 0.484375q0.71875 0.484375 0.984375 1.515625q0.375 -0.875 1.109375 -1.4375q0.734375 -0.5625 1.828125 -0.5625q1.1875 0 1.984375 0.75q0.796875 0.734375 0.796875 2.40625l0 4.25l1.453125 0l0 1.0625z" fill-rule="nonzero"/><path fill="#000000" fill-opacity="0.0" d="m167.83728 255.99475l-76.157486 -161.41733" fill-rule="evenodd"/><path stroke="#000000" stroke-width="1.0" stroke-linejoin="round" stroke-linecap="butt" d="m167.83727 255.99475l-73.59729 -155.99097" fill-rule="evenodd"/><path fill="#000000" stroke="#000000" stroke-width="1.0" stroke-linecap="butt" d="m95.733795 99.299l-3.430214 -3.399437l0.44257355 4.809021z" fill-rule="evenodd"/><path fill="#f3f3f3" d="m177.93169 153.63518l152.28346 0l0 43.307083l-152.28346 0z" fill-rule="evenodd"/><path stroke="#000000" stroke-width="1.0" stroke-linejoin="round" stroke-linecap="butt" d="m177.93169 153.63518l152.28346 0l0 43.307083l-152.28346 0z" fill-rule="evenodd"/><path fill="#000000" d="m216.95653 181.06538q-0.171875 1.078125 -0.984375 2.03125q-0.8125 0.953125 -2.515625 0.953125q-1.71875 0 -2.75 -1.109375q-1.03125 -1.109375 -1.03125 -3.109375q0 -1.71875 0.96875 -3.078125q0.984375 -1.359375 2.921875 -1.359375q0.8125 0 1.5 0.1875q0.703125 0.1875 1.328125 0.671875l0.328125 2.0l-1.09375 0.125l-0.3125 -1.40625q-0.75 -0.453125 -1.765625 -0.453125q-1.328125 0 -1.90625 0.953125q-0.578125 0.9375 -0.578125 2.28125q0 1.5 0.640625 2.34375q0.65625 0.828125 1.890625 0.828125q1.875 0 2.234375 -2.109375l1.125 0.25zm10.916061 2.796875l-4.21875 0l0 -1.0625l1.453125 0l0 -3.859375q0 -1.34375 -0.546875 -1.890625q-0.546875 -0.5625 -1.40625 -0.5625q-1.078125 0 -1.765625 0.75q-0.6875 0.734375 -0.71875 1.640625l0 3.921875l1.4375 0l0 1.0625l-4.203125 0l0 -1.0625l1.4375 0l0 -10.703125l-1.4375 0l0 -1.0625l2.765625 0l0 6.015625q0.921875 -1.65625 2.90625 -1.65625q1.21875 0 2.03125 0.75q0.828125 0.734375 0.828125 2.40625l0 4.25l1.4375 0l0 1.0625zm2.1193848 -10.453125l0 -1.6875l1.421875 0l0 1.6875l-1.421875 0zm2.890625 10.453125l-4.203125 0l0 -1.0625l1.453125 0l0 -6.171875l-1.5 0l0 -1.0625l2.796875 0l0 7.234375l1.453125 0l0 1.0625zm4.973755 0l-4.21875 0l0 -1.0625l1.453125 0l0 -10.703125l-1.46875 0l0 -1.0625l2.78125 0l0 11.765625l1.453125 0l0 1.0625zm10.353195 0l-2.75 0l0 -1.671875q-0.40625 0.734375 -1.125 1.296875q-0.703125 0.5625 -1.84375 0.5625q-1.59375 0 -2.578125 -1.09375q-0.984375 -1.09375 -0.984375 -3.03125q0 -1.65625 0.859375 -3.09375q0.859375 -1.4375 2.890625 -1.4375q1.953125 0 2.78125 1.515625l0 -4.8125l-2.015625 0l0 -1.0625l3.328125 0l0 11.765625l1.4375 0l0 1.0625zm-2.75 -3.671875l0 -1.328125q-0.03125 -1.046875 -0.765625 -1.6875q-0.71875 -0.65625 -1.71875 -0.65625q-1.375 0 -2.015625 1.015625q-0.640625 1.0 -0.640625 2.296875q0 1.53125 0.71875 2.3125q0.71875 0.78125 1.796875 0.78125q1.125 0 1.859375 -0.90625q0.734375 -0.90625 0.765625 -1.828125zm4.070404 3.671875l0 -2.015625l1.8125 0l0 2.015625l-1.8125 0zm16.180649 -7.234375l-0.953125 0l-2.453125 7.234375l-1.0 0l-2.546875 -6.34375l-0.078125 0l-2.484375 6.34375l-0.96873474 0l-2.546875 -7.234375l-0.90625 0l0 -1.0625l3.90625 0l0 1.0625l-1.578125 0l1.734375 5.234375l0.09375 0l2.4687347 -6.296875l0.875 0l2.59375 6.296875l0.09375 0l1.53125 -5.234375l-1.515625 0l0 -1.0625l3.734375 0l0 1.0625zm1.6969604 -0.4375q0.65625 -0.421875 1.375 -0.609375q0.734375 -0.1875 1.546875 -0.1875q2.96875 0 2.96875 2.78125l0 3.953125q0 0.890625 0.703125 0.890625q0.328125 0 0.5625 -0.109375l0.015625 0.859375q-0.5 0.28125 -1.078125 0.28125q-1.46875 0 -1.515625 -1.6875l0 -0.03125q-0.390625 0.671875 -1.109375 1.203125q-0.71875 0.515625 -1.71875 0.515625q-0.828125 0 -1.671875 -0.5q-0.84375 -0.515625 -0.84375 -1.828125q0 -1.578125 1.234375 -2.0625q1.25 -0.5 2.640625 -0.5q0.375 0 0.75 0.015625q0.390625 0.015625 0.71875 0.0625l0 -0.75q0 -0.890625 -0.390625 -1.453125q-0.375 -0.5625 -1.484375 -0.5625q-0.921875 0 -1.609375 0.34375l-0.3125 1.4375l-1.078125 -0.140625l0.296875 -1.921875zm4.578125 4.5625l0 -0.640625q-0.34375 -0.015625 -0.734375 -0.046875q-0.390625 -0.046875 -0.8125 -0.046875q-0.921875 0 -1.6875 0.296875q-0.75 0.28125 -0.75 1.25q0 0.796875 0.5 1.109375q0.5 0.296875 1.046875 0.296875q0.859375 0 1.609375 -0.59375q0.765625 -0.609375 0.828125 -1.625zm10.354706 0.703125q0 1.21875 -1.015625 1.90625q-1.015625 0.6875 -2.5 0.6875q-0.875 0 -1.75 -0.234375q-0.859375 -0.234375 -1.40625 -0.59375l0.265625 -1.875l1.046875 0.109375l-0.0625 1.09375q0.859375 0.421875 1.84375 0.421875q0.875 0 1.546875 -0.34375q0.6875 -0.34375 0.6875 -1.0625q0 -0.6875 -0.515625 -0.96875q-0.515625 -0.28125 -1.296875 -0.40625q-0.78125 -0.140625 -1.5625 -0.3125q-0.78125 -0.1875 -1.3125 -0.640625q-0.515625 -0.46875 -0.515625 -1.4375q0 -1.328125 0.96875 -1.859375q0.96875 -0.546875 2.109375 -0.546875q0.859375 0 1.609375 0.234375q0.765625 0.21875 1.28125 0.53125l0.21875 1.9375l-1.09375 0.125l-0.203125 -1.34375q-0.78125 -0.40625 -1.703125 -0.40625q-0.78125 0 -1.28125 0.296875q-0.5 0.296875 -0.5 0.9375q0 0.65625 0.515625 0.921875q0.53125 0.265625 1.296875 0.390625q0.765625 0.125 1.53125 0.3125q0.765625 0.1875 1.28125 0.671875q0.515625 0.46875 0.515625 1.453125zm16.671448 2.40625l-3.984375 0l0 -1.0625l1.21875 0l0 -3.859375q0 -1.34375 -0.53125 -1.890625q-0.53125 -0.5625 -1.359375 -0.5625q-1.125 0 -1.75 0.859375q-0.609375 0.859375 -0.625 1.640625l0 3.8125l1.421875 0l0 1.0625l-3.953125 0l0 -1.0625l1.203125 0l0 -3.859375q0 -1.359375 -0.53125 -1.90625q-0.515625 -0.546875 -1.3125 -0.546875q-1.15625 0 -1.765625 0.84375q-0.609375 0.828125 -0.640625 1.625l0 3.84375l1.515625 0l0 1.0625l-4.28125 0l0 -1.0625l1.453125 0l0 -6.171875l-1.46875 0l0 -1.0625l2.78125 0l0 1.546875q0.40625 -0.75 1.09375 -1.234375q0.6875 -0.484375 1.671875 -0.484375q0.984375 0 1.6875 0.484375q0.71875 0.484375 0.984375 1.515625q0.375 -0.875 1.109375 -1.4375q0.734375 -0.5625 1.828125 -0.5625q1.1875 0 1.984375 0.75q0.796875 0.734375 0.796875 2.40625l0 4.25l1.453125 0l0 1.0625z" fill-rule="nonzero"/><path fill="#000000" fill-opacity="0.0" d="m167.83728 255.99475l86.23622 -59.055115" fill-rule="evenodd"/><path stroke="#000000" stroke-width="1.0" stroke-linejoin="round" stroke-linecap="butt" d="m167.83727 255.99475l81.28577 -55.66501" fill-rule="evenodd"/><path fill="#000000" stroke="#000000" stroke-width="1.0" stroke-linecap="butt" d="m250.05629 201.69255l2.81102 -3.9269104l-4.6775513 1.201294z" fill-rule="evenodd"/><path fill="#cfe2f3" d="m416.49344 58.488335l0 0c0 -3.9863892 3.231598 -7.2179947 7.217987 -7.2179947l160.61914 0c1.9143066 0 3.7502441 0.7604675 5.103882 2.1141014c1.3536377 1.3536377 2.1141357 3.18956 2.1141357 5.1038933l0 28.871101c0 3.9863892 -3.2316284 7.2179947 -7.2180176 7.2179947l-160.61914 0c-3.9863892 0 -7.217987 -3.2316055 -7.217987 -7.2179947z" fill-rule="evenodd"/><path stroke="#000000" stroke-width="1.0" stroke-linejoin="round" stroke-linecap="butt" d="m416.49344 58.488335l0 0c0 -3.9863892 3.231598 -7.2179947 7.217987 -7.2179947l160.61914 0c1.9143066 0 3.7502441 0.7604675 5.103882 2.1141014c1.3536377 1.3536377 2.1141357 3.18956 2.1141357 5.1038933l0 28.871101c0 3.9863892 -3.2316284 7.2179947 -7.2180176 7.2179947l-160.61914 0c-3.9863892 0 -7.217987 -3.2316055 -7.217987 -7.2179947z" fill-rule="evenodd"/><path fill="#000000" d="m430.6318 72.17201q0.65625 -0.421875 1.375 -0.609375q0.734375 -0.1875 1.546875 -0.1875q2.96875 0 2.96875 2.78125l0 3.953125q0 0.890625 0.703125 0.890625q0.328125 0 0.5625 -0.109375l0.015625 0.859375q-0.5 0.28125 -1.078125 0.28125q-1.46875 0 -1.515625 -1.6875l0 -0.03125q-0.390625 0.671875 -1.109375 1.203125q-0.71875 0.515625 -1.71875 0.515625q-0.828125 0 -1.671875 -0.5q-0.84375 -0.515625 -0.84375 -1.828125q0 -1.578125 1.234375 -2.0625q1.25 -0.5 2.640625 -0.5q0.375 0 0.75 0.015625q0.390625 0.015625 0.71875 0.0625l0 -0.75q0 -0.890625 -0.390625 -1.453125q-0.375 -0.5625 -1.484375 -0.5625q-0.921875 0 -1.609375 0.34375l-0.3125 1.4375l-1.078125 -0.140625l0.296875 -1.921875zm4.578125 4.5625l0 -0.640625q-0.34375 -0.015625 -0.734375 -0.046875q-0.390625 -0.046875 -0.8125 -0.046875q-0.921875 0 -1.6875 0.296875q-0.75 0.28125 -0.75 1.25q0 0.796875 0.5 1.109375q0.5 0.296875 1.046875 0.296875q0.859375 0 1.609375 -0.59375q0.765625 -0.609375 0.828125 -1.625zm9.745331 0.875q-0.328125 2.421875 -2.625 2.421875q-1.25 0 -1.921875 -0.703125q-0.65625 -0.71875 -0.65625 -1.921875l0 -4.8125l-1.34375 0l0 -1.046875l1.34375 0l0 -2.671875l1.296875 0l0 2.671875l3.25 0l0 1.046875l-3.25 0l0 4.640625q0 0.75 0.328125 1.203125q0.328125 0.453125 1.078125 0.453125q0.484375 0 0.90625 -0.296875q0.421875 -0.296875 0.609375 -1.3125l0.984375 0.328125zm6.9214783 0q-0.328125 2.421875 -2.625 2.421875q-1.25 0 -1.921875 -0.703125q-0.65625 -0.71875 -0.65625 -1.921875l0 -4.8125l-1.34375 0l0 -1.046875l1.34375 0l0 -2.671875l1.296875 0l0 2.671875l3.25 0l0 1.046875l-3.25 0l0 4.640625q0 0.75 0.328125 1.203125q0.328125 0.453125 1.078125 0.453125q0.484375 0 0.90625 -0.296875q0.421875 -0.296875 0.609375 -1.3125l0.984375 0.328125zm8.202698 -0.15625q-0.15625 1.0625 -1.0625 1.828125q-0.890625 0.75 -2.421875 0.75q-1.75 0 -2.84375 -1.09375q-1.078125 -1.109375 -1.078125 -3.125q0 -1.9375 1.03125 -3.1875q1.03125 -1.25 2.78125 -1.25q1.71875 0 2.609375 1.078125q0.890625 1.078125 0.921875 2.5625q0 0.484375 -0.125 0.984375l-5.828125 0q0.109375 2.90625 2.625 2.90625q0.984375 0 1.546875 -0.453125q0.5625 -0.46875 0.75 -1.234375l1.09375 0.234375zm-1.453125 -2.421875q0.09375 -0.9375 -0.4375 -1.75q-0.53125 -0.828125 -1.734375 -0.828125q-1.15625 0 -1.703125 0.765625q-0.546875 0.765625 -0.671875 1.8125l4.546875 0zm12.627808 4.8125l-4.1875 0l0 -1.0625l1.4375 0l0 -3.859375q0 -1.34375 -0.546875 -1.890625q-0.546875 -0.5625 -1.375 -0.5625q-1.125 0 -1.8125 0.75q-0.671875 0.734375 -0.703125 1.6875l0 3.875l1.453125 0l0 1.0625l-4.21875 0l0 -1.0625l1.453125 0l0 -6.171875l-1.5 0l0 -1.0625l2.8125 0l0 1.46875q0.890625 -1.640625 2.90625 -1.640625q1.203125 0 2.015625 0.75q0.828125 0.734375 0.828125 2.40625l0 4.25l1.4375 0l0 1.0625zm10.361908 0l-2.796875 0l0 -1.5625q-0.390625 0.78125 -1.15625 1.265625q-0.75 0.484375 -1.734375 0.484375q-1.21875 0 -2.046875 -0.75q-0.828125 -0.765625 -0.828125 -2.421875l0 -4.25l-1.453125 0l0 -1.0625l2.75 0l0 4.9375q0 1.34375 0.5625 1.890625q0.5625 0.53125 1.4375 0.53125q1.0625 0 1.734375 -0.796875q0.6875 -0.796875 0.734375 -1.703125l0 -3.796875l-1.734375 0l0 -1.0625l3.03125 0l0 7.234375l1.5 0l0 1.0625zm1.794281 -7.671875q0.65625 -0.421875 1.375 -0.609375q0.734375 -0.1875 1.546875 -0.1875q2.96875 0 2.96875 2.78125l0 3.953125q0 0.890625 0.703125 0.890625q0.328125 0 0.5625 -0.109375l0.015625 0.859375q-0.5 0.28125 -1.078125 0.28125q-1.46875 0 -1.515625 -1.6875l0 -0.03125q-0.390625 0.671875 -1.109375 1.203125q-0.71875 0.515625 -1.71875 0.515625q-0.828125 0 -1.671875 -0.5q-0.84375 -0.515625 -0.84375 -1.828125q0 -1.578125 1.234375 -2.0625q1.25 -0.5 2.640625 -0.5q0.375 0 0.75 0.015625q0.390625 0.015625 0.71875 0.0625l0 -0.75q0 -0.890625 -0.390625 -1.453125q-0.375 -0.5625 -1.484375 -0.5625q-0.921875 0 -1.609375 0.34375l-0.3125 1.4375l-1.078125 -0.140625l0.296875 -1.921875zm4.578125 4.5625l0 -0.640625q-0.34375 -0.015625 -0.734375 -0.046875q-0.390625 -0.046875 -0.8125 -0.046875q-0.921875 0 -1.6875 0.296875q-0.75 0.28125 -0.75 1.25q0 0.796875 0.5 1.109375q0.5 0.296875 1.046875 0.296875q0.859375 0 1.609375 -0.59375q0.765625 -0.609375 0.828125 -1.625zm9.745361 0.875q-0.328125 2.421875 -2.625 2.421875q-1.25 0 -1.921875 -0.703125q-0.65625 -0.71875 -0.65625 -1.921875l0 -4.8125l-1.34375 0l0 -1.046875l1.34375 0l0 -2.671875l1.296875 0l0 2.671875l3.25 0l0 1.046875l-3.25 0l0 4.640625q0 0.75 0.328125 1.203125q0.328125 0.453125 1.078125 0.453125q0.484375 0 0.90625 -0.296875q0.421875 -0.296875 0.609375 -1.3125l0.984375 0.328125zm8.202698 -0.15625q-0.15625 1.0625 -1.0625 1.828125q-0.890625 0.75 -2.421875 0.75q-1.75 0 -2.84375 -1.09375q-1.078125 -1.109375 -1.078125 -3.125q0 -1.9375 1.03125 -3.1875q1.03125 -1.25 2.78125 -1.25q1.71875 0 2.609375 1.078125q0.890625 1.078125 0.921875 2.5625q0 0.484375 -0.125 0.984375l-5.828125 0q0.109375 2.90625 2.625 2.90625q0.984375 0 1.546875 -0.453125q0.5625 -0.46875 0.75 -1.234375l1.09375 0.234375zm-1.453125 -2.421875q0.09375 -0.9375 -0.4375 -1.75q-0.53125 -0.828125 -1.734375 -0.828125q-1.15625 0 -1.703125 0.765625q-0.546875 0.765625 -0.671875 1.8125l4.546875 0zm8.300262 -5.640625l0 -1.6875l1.421875 0l0 1.6875l-1.421875 0zm2.890625 10.453125l-4.2030945 0l0 -1.0625l1.4530945 0l0 -6.171875l-1.4999695 0l0 -1.0625l2.7968445 0l0 7.234375l1.453125 0l0 1.0625zm10.89563 0l-4.1875 0l0 -1.0625l1.4375 0l0 -3.859375q0 -1.34375 -0.546875 -1.890625q-0.546875 -0.5625 -1.375 -0.5625q-1.125 0 -1.8125 0.75q-0.671875 0.734375 -0.703125 1.6875l0 3.875l1.453125 0l0 1.0625l-4.21875 0l0 -1.0625l1.453125 0l0 -6.171875l-1.5 0l0 -1.0625l2.8125 0l0 1.46875q0.890625 -1.640625 2.90625 -1.640625q1.203125 0 2.015625 0.75q0.828125 0.734375 0.828125 2.40625l0 4.25l1.4375 0l0 1.0625zm7.6119385 -2.40625q0 1.21875 -1.015625 1.90625q-1.015625 0.6875 -2.5 0.6875q-0.875 0 -1.75 -0.234375q-0.859375 -0.234375 -1.40625 -0.59375l0.265625 -1.875l1.046875 0.109375l-0.0625 1.09375q0.859375 0.421875 1.84375 0.421875q0.875 0 1.546875 -0.34375q0.6875 -0.34375 0.6875 -1.0625q0 -0.6875 -0.515625 -0.96875q-0.515625 -0.28125 -1.296875 -0.40625q-0.78125 -0.140625 -1.5625 -0.3125q-0.78125 -0.1875 -1.3125 -0.640625q-0.515625 -0.46875 -0.515625 -1.4375q0 -1.328125 0.96875 -1.859375q0.96875 -0.546875 2.109375 -0.546875q0.859375 0 1.609375 0.234375q0.765625 0.21875 1.28125 0.53125l0.21875 1.9375l-1.09375 0.125l-0.203125 -1.34375q-0.78125 -0.40625 -1.703125 -0.40625q-0.78125 0 -1.28125 0.296875q-0.5 0.296875 -0.5 0.9375q0 0.65625 0.515625 0.921875q0.53125 0.265625 1.296875 0.390625q0.765625 0.125 1.53125 0.3125q0.765625 0.1875 1.28125 0.671875q0.515625 0.46875 0.515625 1.453125zm7.5620728 0.171875q-0.328125 2.421875 -2.625 2.421875q-1.25 0 -1.921875 -0.703125q-0.65625 -0.71875 -0.65625 -1.921875l0 -4.8125l-1.34375 0l0 -1.046875l1.34375 0l0 -2.671875l1.296875 0l0 2.671875l3.25 0l0 1.046875l-3.25 0l0 4.640625q0 0.75 0.328125 1.203125q0.328125 0.453125 1.078125 0.453125q0.484375 0 0.90625 -0.296875q0.421875 -0.296875 0.609375 -1.3125l0.984375 0.328125zm1.6089478 -5.4375q0.65625 -0.421875 1.375 -0.609375q0.734375 -0.1875 1.546875 -0.1875q2.96875 0 2.96875 2.78125l0 3.953125q0 0.890625 0.703125 0.890625q0.328125 0 0.5625 -0.109375l0.015625 0.859375q-0.5 0.28125 -1.078125 0.28125q-1.46875 0 -1.515625 -1.6875l0 -0.03125q-0.390625 0.671875 -1.109375 1.203125q-0.71875 0.515625 -1.71875 0.515625q-0.828125 0 -1.671875 -0.5q-0.84375 -0.515625 -0.84375 -1.828125q0 -1.578125 1.234375 -2.0625q1.25 -0.5 2.640625 -0.5q0.375 0 0.75 0.015625q0.390625 0.015625 0.71875 0.0625l0 -0.75q0 -0.890625 -0.390625 -1.453125q-0.375 -0.5625 -1.484375 -0.5625q-0.921875 0 -1.609375 0.34375l-0.3125 1.4375l-1.078125 -0.140625l0.296875 -1.921875zm4.578125 4.5625l0 -0.640625q-0.34375 -0.015625 -0.734375 -0.046875q-0.390625 -0.046875 -0.8125 -0.046875q-0.921875 0 -1.6875 0.296875q-0.75 0.28125 -0.75 1.25q0 0.796875 0.5 1.109375q0.5 0.296875 1.046875 0.296875q0.859375 0 1.609375 -0.59375q0.765625 -0.609375 0.828125 -1.625zm13.432861 3.109375l-4.1875 0l0 -1.0625l1.4375 0l0 -3.859375q0 -1.34375 -0.546875 -1.890625q-0.546875 -0.5625 -1.375 -0.5625q-1.125 0 -1.8125 0.75q-0.671875 0.734375 -0.703125 1.6875l0 3.875l1.453125 0l0 1.0625l-4.21875 0l0 -1.0625l1.453125 0l0 -6.171875l-1.5 0l0 -1.0625l2.8125 0l0 1.46875q0.890625 -1.640625 2.90625 -1.640625q1.203125 0 2.015625 0.75q0.828125 0.734375 0.828125 2.40625l0 4.25l1.4375 0l0 1.0625zm8.158752 -2.796875q-0.171875 1.078125 -0.984375 2.03125q-0.8125 0.953125 -2.515625 0.953125q-1.71875 0 -2.75 -1.109375q-1.03125 -1.109375 -1.03125 -3.109375q0 -1.71875 0.96875 -3.078125q0.984375 -1.359375 2.921875 -1.359375q0.8125 0 1.5 0.1875q0.703125 0.1875 1.328125 0.671875l0.328125 2.0l-1.09375 0.125l-0.3125 -1.40625q-0.75 -0.453125 -1.765625 -0.453125q-1.328125 0 -1.90625 0.953125q-0.578125 0.9375 -0.578125 2.28125q0 1.5 0.640625 2.34375q0.65625 0.828125 1.890625 0.828125q1.875 0 2.234375 -2.109375l1.125 0.25zm8.744202 0.40625q-0.15625 1.0625 -1.0625 1.828125q-0.890625 0.75 -2.421875 0.75q-1.75 0 -2.84375 -1.09375q-1.078125 -1.109375 -1.078125 -3.125q0 -1.9375 1.03125 -3.1875q1.03125 -1.25 2.78125 -1.25q1.71875 0 2.609375 1.078125q0.890625 1.078125 0.921875 2.5625q0 0.484375 -0.125 0.984375l-5.828125 0q0.109375 2.90625 2.625 2.90625q0.984375 0 1.546875 -0.453125q0.5625 -0.46875 0.75 -1.234375l1.09375 0.234375zm-1.453125 -2.421875q0.09375 -0.9375 -0.4375 -1.75q-0.53125 -0.828125 -1.734375 -0.828125q-1.15625 0 -1.703125 0.765625q-0.546875 0.765625 -0.671875 1.8125l4.546875 0z" fill-rule="nonzero"/><path fill="#cfe2f3" d="m532.98425 160.84923l0 0c0 -3.9863892 3.2316284 -7.217987 7.2180176 -7.217987l160.61908 0c1.9143677 0 3.7503052 0.7604523 5.103943 2.11409c1.3536377 1.3536377 2.1140747 3.18956 2.1140747 5.103897l0 28.871094c0 3.9863892 -3.2316284 7.2180023 -7.2180176 7.2180023l-160.61908 0c-3.9863892 0 -7.2180176 -3.2316132 -7.2180176 -7.2180023z" fill-rule="evenodd"/><path stroke="#000000" stroke-width="1.0" stroke-linejoin="round" stroke-linecap="butt" d="m532.98425 160.84923l0 0c0 -3.9863892 3.2316284 -7.217987 7.2180176 -7.217987l160.61908 0c1.9143677 0 3.7503052 0.7604523 5.103943 2.11409c1.3536377 1.3536377 2.1140747 3.18956 2.1140747 5.103897l0 28.871094c0 3.9863892 -3.2316284 7.2180023 -7.2180176 7.2180023l-160.61908 0c-3.9863892 0 -7.2180176 -3.2316132 -7.2180176 -7.2180023z" fill-rule="evenodd"/><path fill="#000000" d="m572.5834 179.4079q-0.171875 1.078125 -0.984375 2.03125q-0.8125 0.953125 -2.515625 0.953125q-1.71875 0 -2.75 -1.109375q-1.03125 -1.109375 -1.03125 -3.109375q0 -1.71875 0.96875 -3.078125q0.984375 -1.359375 2.921875 -1.359375q0.8125 0 1.5 0.1875q0.703125 0.1875 1.328125 0.671875l0.328125 2.0l-1.09375 0.125l-0.3125 -1.40625q-0.75 -0.453125 -1.765625 -0.453125q-1.328125 0 -1.90625 0.953125q-0.578125 0.9375 -0.578125 2.28125q0 1.5 0.640625 2.34375q0.65625 0.828125 1.890625 0.828125q1.875 0 2.234375 -2.109375l1.125 0.25zm10.916077 2.796875l-4.21875 0l0 -1.0625l1.453125 0l0 -3.859375q0 -1.34375 -0.546875 -1.890625q-0.546875 -0.5625 -1.40625 -0.5625q-1.078125 0 -1.765625 0.75q-0.6875 0.734375 -0.71875 1.640625l0 3.921875l1.4375 0l0 1.0625l-4.203125 0l0 -1.0625l1.4375 0l0 -10.703125l-1.4375 0l0 -1.0625l2.765625 0l0 6.015625q0.921875 -1.65625 2.90625 -1.65625q1.21875 0 2.03125 0.75q0.828125 0.734375 0.828125 2.40625l0 4.25l1.4375 0l0 1.0625zm2.1193848 -10.453125l0 -1.6875l1.421875 0l0 1.6875l-1.421875 0zm2.890625 10.453125l-4.203125 0l0 -1.0625l1.453125 0l0 -6.171875l-1.5 0l0 -1.0625l2.796875 0l0 7.234375l1.453125 0l0 1.0625zm4.973755 0l-4.21875 0l0 -1.0625l1.453125 0l0 -10.703125l-1.46875 0l0 -1.0625l2.78125 0l0 11.765625l1.453125 0l0 1.0625zm10.35321 0l-2.75 0l0 -1.671875q-0.40625 0.734375 -1.125 1.296875q-0.703125 0.5625 -1.84375 0.5625q-1.59375 0 -2.578125 -1.09375q-0.984375 -1.09375 -0.984375 -3.03125q0 -1.65625 0.859375 -3.09375q0.859375 -1.4375 2.890625 -1.4375q1.953125 0 2.78125 1.515625l0 -4.8125l-2.015625 0l0 -1.0625l3.328125 0l0 11.765625l1.4375 0l0 1.0625zm-2.75 -3.671875l0 -1.328125q-0.03125 -1.046875 -0.765625 -1.6875q-0.71875 -0.65625 -1.71875 -0.65625q-1.375 0 -2.015625 1.015625q-0.640625 1.0 -0.640625 2.296875q0 1.53125 0.71875 2.3125q0.71875 0.78125 1.796875 0.78125q1.125 0 1.859375 -0.90625q0.734375 -0.90625 0.765625 -1.828125zm9.195984 -6.78125l0 -1.6875l1.421875 0l0 1.6875l-1.421875 0zm2.890625 10.453125l-4.203125 0l0 -1.0625l1.453125 0l0 -6.171875l-1.5 0l0 -1.0625l2.796875 0l0 7.234375l1.453125 0l0 1.0625zm10.89563 0l-4.1875 0l0 -1.0625l1.4375 0l0 -3.859375q0 -1.34375 -0.546875 -1.890625q-0.546875 -0.5625 -1.375 -0.5625q-1.125 0 -1.8125 0.75q-0.671875 0.734375 -0.703125 1.6875l0 3.875l1.453125 0l0 1.0625l-4.21875 0l0 -1.0625l1.453125 0l0 -6.171875l-1.5 0l0 -1.0625l2.8125 0l0 1.46875q0.890625 -1.640625 2.90625 -1.640625q1.203125 0 2.015625 0.75q0.828125 0.734375 0.828125 2.40625l0 4.25l1.4375 0l0 1.0625zm7.6119385 -2.40625q0 1.21875 -1.015625 1.90625q-1.015625 0.6875 -2.5 0.6875q-0.875 0 -1.75 -0.234375q-0.859375 -0.234375 -1.40625 -0.59375l0.265625 -1.875l1.046875 0.109375l-0.0625 1.09375q0.859375 0.421875 1.84375 0.421875q0.875 0 1.546875 -0.34375q0.6875 -0.34375 0.6875 -1.0625q0 -0.6875 -0.515625 -0.96875q-0.515625 -0.28125 -1.296875 -0.40625q-0.78125 -0.140625 -1.5625 -0.3125q-0.78125 -0.1875 -1.3125 -0.640625q-0.515625 -0.46875 -0.515625 -1.4375q0 -1.328125 0.96875 -1.859375q0.96875 -0.546875 2.109375 -0.546875q0.859375 0 1.609375 0.234375q0.765625 0.21875 1.28125 0.53125l0.21875 1.9375l-1.09375 0.125l-0.203125 -1.34375q-0.78125 -0.40625 -1.703125 -0.40625q-0.78125 0 -1.28125 0.296875q-0.5 0.296875 -0.5 0.9375q0 0.65625 0.515625 0.921875q0.53125 0.265625 1.296875 0.390625q0.765625 0.125 1.53125 0.3125q0.765625 0.1875 1.28125 0.671875q0.515625 0.46875 0.515625 1.453125zm7.5620117 0.171875q-0.328125 2.421875 -2.625 2.421875q-1.25 0 -1.921875 -0.703125q-0.65625 -0.71875 -0.65625 -1.921875l0 -4.8125l-1.34375 0l0 -1.046875l1.34375 0l0 -2.671875l1.296875 0l0 2.671875l3.25 0l0 1.046875l-3.25 0l0 4.640625q0 0.75 0.328125 1.203125q0.328125 0.453125 1.078125 0.453125q0.484375 0 0.90625 -0.296875q0.421875 -0.296875 0.609375 -1.3125l0.984375 0.328125zm1.6090088 -5.4375q0.65625 -0.421875 1.375 -0.609375q0.734375 -0.1875 1.546875 -0.1875q2.96875 0 2.96875 2.78125l0 3.953125q0 0.890625 0.703125 0.890625q0.328125 0 0.5625 -0.109375l0.015625 0.859375q-0.5 0.28125 -1.078125 0.28125q-1.46875 0 -1.515625 -1.6875l0 -0.03125q-0.390625 0.671875 -1.109375 1.203125q-0.71875 0.515625 -1.71875 0.515625q-0.828125 0 -1.671875 -0.5q-0.84375 -0.515625 -0.84375 -1.828125q0 -1.578125 1.234375 -2.0625q1.25 -0.5 2.640625 -0.5q0.375 0 0.75 0.015625q0.390625 0.015625 0.71875 0.0625l0 -0.75q0 -0.890625 -0.390625 -1.453125q-0.375 -0.5625 -1.484375 -0.5625q-0.921875 0 -1.609375 0.34375l-0.3125 1.4375l-1.078125 -0.140625l0.296875 -1.921875zm4.578125 4.5625l0 -0.640625q-0.34375 -0.015625 -0.734375 -0.046875q-0.390625 -0.046875 -0.8125 -0.046875q-0.921875 0 -1.6875 0.296875q-0.75 0.28125 -0.75 1.25q0 0.796875 0.5 1.109375q0.5 0.296875 1.046875 0.296875q0.859375 0 1.609375 -0.59375q0.765625 -0.609375 0.828125 -1.625zm13.4328 3.109375l-4.1875 0l0 -1.0625l1.4375 0l0 -3.859375q0 -1.34375 -0.546875 -1.890625q-0.546875 -0.5625 -1.375 -0.5625q-1.125 0 -1.8125 0.75q-0.671875 0.734375 -0.703125 1.6875l0 3.875l1.453125 0l0 1.0625l-4.21875 0l0 -1.0625l1.453125 0l0 -6.171875l-1.5 0l0 -1.0625l2.8125 0l0 1.46875q0.890625 -1.640625 2.90625 -1.640625q1.203125 0 2.015625 0.75q0.828125 0.734375 0.828125 2.40625l0 4.25l1.4375 0l0 1.0625zm8.158813 -2.796875q-0.171875 1.078125 -0.984375 2.03125q-0.8125 0.953125 -2.515625 0.953125q-1.71875 0 -2.75 -1.109375q-1.03125 -1.109375 -1.03125 -3.109375q0 -1.71875 0.96875 -3.078125q0.984375 -1.359375 2.921875 -1.359375q0.8125 0 1.5 0.1875q0.703125 0.1875 1.328125 0.671875l0.328125 2.0l-1.09375 0.125l-0.3125 -1.40625q-0.75 -0.453125 -1.765625 -0.453125q-1.328125 0 -1.90625 0.953125q-0.578125 0.9375 -0.578125 2.28125q0 1.5 0.640625 2.34375q0.65625 0.828125 1.890625 0.828125q1.875 0 2.234375 -2.109375l1.125 0.25zm8.744202 0.40625q-0.15625 1.0625 -1.0625 1.828125q-0.890625 0.75 -2.421875 0.75q-1.75 0 -2.84375 -1.09375q-1.078125 -1.109375 -1.078125 -3.125q0 -1.9375 1.03125 -3.1875q1.03125 -1.25 2.78125 -1.25q1.71875 0 2.609375 1.078125q0.890625 1.078125 0.921875 2.5625q0 0.484375 -0.125 0.984375l-5.828125 0q0.109375 2.90625 2.625 2.90625q0.984375 0 1.546875 -0.453125q0.5625 -0.46875 0.75 -1.234375l1.09375 0.234375zm-1.453125 -2.421875q0.09375 -0.9375 -0.4375 -1.75q-0.53125 -0.828125 -1.734375 -0.828125q-1.15625 0 -1.703125 0.765625q-0.546875 0.765625 -0.671875 1.8125l4.546875 0z" fill-rule="nonzero"/><path fill="#cfe2f3" d="m431.91864 263.21143l0 0c0 -3.9863892 3.231598 -7.217987 7.217987 -7.217987l160.61911 0c1.9143677 0 3.7503052 0.7604675 5.103943 2.1141052c1.3536377 1.3536377 2.1140747 3.1895447 2.1140747 5.103882l0 28.871094c0 3.9863892 -3.2316284 7.2180176 -7.2180176 7.2180176l-160.61911 0c-3.9863892 0 -7.217987 -3.2316284 -7.217987 -7.2180176z" fill-rule="evenodd"/><path stroke="#000000" stroke-width="1.0" stroke-linejoin="round" stroke-linecap="butt" d="m431.91864 263.21143l0 0c0 -3.9863892 3.231598 -7.217987 7.217987 -7.217987l160.61911 0c1.9143677 0 3.7503052 0.7604675 5.103943 2.1141052c1.3536377 1.3536377 2.1140747 3.1895447 2.1140747 5.103882l0 28.871094c0 3.9863892 -3.2316284 7.2180176 -7.2180176 7.2180176l-160.61911 0c-3.9863892 0 -7.217987 -3.2316284 -7.217987 -7.2180176z" fill-rule="evenodd"/><path fill="#000000" d="m466.0842 280.17636q0 1.109375 -0.390625 2.171875q-0.375 1.046875 -1.203125 1.734375q-0.828125 0.671875 -2.1875 0.671875q-1.890625 0 -2.75 -1.40625l0 4.125l1.921875 0l0 1.0625l-4.6875 0l0 -1.0625l1.46875 0l0 -10.140625l-1.5 0l0 -1.0625l2.796875 0l0 1.734375q0.375 -0.75 1.078125 -1.328125q0.71875 -0.578125 1.875 -0.578125q1.609375 0 2.59375 1.078125q0.984375 1.078125 0.984375 3.0zm-1.375 0.125q0 -1.5 -0.734375 -2.28125q-0.71875 -0.796875 -1.796875 -0.796875q-1.125 0 -1.859375 0.890625q-0.71875 0.875 -0.765625 1.828125l0 1.234375q0 1.046875 0.734375 1.75q0.734375 0.703125 1.75 0.703125q1.40625 0 2.03125 -1.0q0.640625 -1.015625 0.640625 -2.328125zm3.6046753 -3.40625q0.65625 -0.421875 1.375 -0.609375q0.734375 -0.1875 1.546875 -0.1875q2.96875 0 2.96875 2.78125l0 3.953125q0 0.890625 0.703125 0.890625q0.328125 0 0.5625 -0.109375l0.015625 0.859375q-0.5 0.28125 -1.078125 0.28125q-1.46875 0 -1.515625 -1.6875l0 -0.03125q-0.390625 0.671875 -1.109375 1.203125q-0.71875 0.515625 -1.71875 0.515625q-0.828125 0 -1.671875 -0.5q-0.84375 -0.515625 -0.84375 -1.828125q0 -1.578125 1.234375 -2.0625q1.25 -0.5 2.640625 -0.5q0.375 0 0.75 0.015625q0.390625 0.015625 0.71875 0.0625l0 -0.75q0 -0.890625 -0.390625 -1.453125q-0.375 -0.5625 -1.484375 -0.5625q-0.921875 0 -1.609375 0.34375l-0.3125 1.4375l-1.078125 -0.140625l0.296875 -1.921875zm4.578125 4.5625l0 -0.640625q-0.34375 -0.015625 -0.734375 -0.046875q-0.390625 -0.046875 -0.8125 -0.046875q-0.921875 0 -1.6875 0.296875q-0.75 0.28125 -0.75 1.25q0 0.796875 0.5 1.109375q0.5 0.296875 1.046875 0.296875q0.859375 0 1.609375 -0.59375q0.765625 -0.609375 0.828125 -1.625zm8.214111 -5.34375q0.890625 0 1.421875 0.4375l0.3125 2.078125l-1.0625 0.140625l-0.3125 -1.421875q-0.328125 -0.109375 -0.640625 -0.109375q-0.71875 0 -1.203125 0.609375q-0.484375 0.59375 -0.484375 1.5625l0 4.09375l1.921875 0l0 1.0625l-4.6875 0l0 -1.0625l1.453125 0l0 -6.171875l-1.5 0l0 -1.0625l2.734375 0l0 1.484375q0.234375 -0.6875 0.78125 -1.15625q0.5625 -0.484375 1.265625 -0.484375zm10.648132 6.0625q-0.15625 1.0625 -1.0625 1.828125q-0.890625 0.75 -2.421875 0.75q-1.75 0 -2.84375 -1.09375q-1.078125 -1.109375 -1.078125 -3.125q0 -1.9375 1.03125 -3.1875q1.03125 -1.25 2.78125 -1.25q1.71875 0 2.609375 1.078125q0.890625 1.078125 0.921875 2.5625q0 0.484375 -0.125 0.984375l-5.828125 0q0.109375 2.90625 2.625 2.90625q0.984375 0 1.546875 -0.453125q0.5625 -0.46875 0.75 -1.234375l1.09375 0.234375zm-1.453125 -2.421875q0.09375 -0.9375 -0.4375 -1.75q-0.53125 -0.828125 -1.734375 -0.828125q-1.15625 0 -1.703125 0.765625q-0.546875 0.765625 -0.671875 1.8125l4.546875 0zm12.627808 4.8125l-4.1875 0l0 -1.0625l1.4375 0l0 -3.859375q0 -1.34375 -0.546875 -1.890625q-0.546875 -0.5625 -1.375 -0.5625q-1.125 0 -1.8125 0.75q-0.671875 0.734375 -0.703125 1.6875l0 3.875l1.453125 0l0 1.0625l-4.21875 0l0 -1.0625l1.453125 0l0 -6.171875l-1.5 0l0 -1.0625l2.8125 0l0 1.46875q0.890625 -1.640625 2.90625 -1.640625q1.203125 0 2.015625 0.75q0.828125 0.734375 0.828125 2.40625l0 4.25l1.4375 0l0 1.0625zm7.002533 -2.234375q-0.328125 2.421875 -2.625 2.421875q-1.25 0 -1.921875 -0.703125q-0.65625 -0.71875 -0.65625 -1.921875l0 -4.8125l-1.34375 0l0 -1.046875l1.34375 0l0 -2.671875l1.296875 0l0 2.671875l3.25 0l0 1.046875l-3.25 0l0 4.640625q0 0.75 0.328125 1.203125q0.328125 0.453125 1.078125 0.453125q0.484375 0 0.90625 -0.296875q0.421875 -0.296875 0.609375 -1.3125l0.984375 0.328125zm6.281433 -8.21875l0 -1.6875l1.421875 0l0 1.6875l-1.421875 0zm2.890625 10.453125l-4.203125 0l0 -1.0625l1.453125 0l0 -6.171875l-1.5 0l0 -1.0625l2.796875 0l0 7.234375l1.453125 0l0 1.0625zm10.89563 0l-4.1875 0l0 -1.0625l1.4375 0l0 -3.859375q0 -1.34375 -0.546875 -1.890625q-0.546875 -0.5625 -1.375 -0.5625q-1.125 0 -1.8125 0.75q-0.671875 0.734375 -0.703125 1.6875l0 3.875l1.453125 0l0 1.0625l-4.21875 0l0 -1.0625l1.453125 0l0 -6.171875l-1.5 0l0 -1.0625l2.8125 0l0 1.46875q0.890625 -1.640625 2.90625 -1.640625q1.203125 0 2.015625 0.75q0.828125 0.734375 0.828125 2.40625l0 4.25l1.4375 0l0 1.0625zm7.6118774 -2.40625q0 1.21875 -1.015625 1.90625q-1.015625 0.6875 -2.5 0.6875q-0.875 0 -1.75 -0.234375q-0.859375 -0.234375 -1.40625 -0.59375l0.265625 -1.875l1.046875 0.109375l-0.0625 1.09375q0.859375 0.421875 1.84375 0.421875q0.875 0 1.546875 -0.34375q0.6875 -0.34375 0.6875 -1.0625q0 -0.6875 -0.515625 -0.96875q-0.515625 -0.28125 -1.296875 -0.40625q-0.78125 -0.140625 -1.5625 -0.3125q-0.78125 -0.1875 -1.3125 -0.640625q-0.515625 -0.46875 -0.515625 -1.4375q0 -1.328125 0.96875 -1.859375q0.96875 -0.546875 2.109375 -0.546875q0.859375 0 1.609375 0.234375q0.765625 0.21875 1.28125 0.53125l0.21875 1.9375l-1.09375 0.125l-0.203125 -1.34375q-0.78125 -0.40625 -1.703125 -0.40625q-0.78125 0 -1.28125 0.296875q-0.5 0.296875 -0.5 0.9375q0 0.65625 0.515625 0.921875q0.53125 0.265625 1.296875 0.390625q0.765625 0.125 1.53125 0.3125q0.765625 0.1875 1.28125 0.671875q0.515625 0.46875 0.515625 1.453125zm7.5620728 0.171875q-0.328125 2.421875 -2.625 2.421875q-1.25 0 -1.921875 -0.703125q-0.65625 -0.71875 -0.65625 -1.921875l0 -4.8125l-1.34375 0l0 -1.046875l1.34375 0l0 -2.671875l1.296875 0l0 2.671875l3.25 0l0 1.046875l-3.25 0l0 4.640625q0 0.75 0.328125 1.203125q0.328125 0.453125 1.078125 0.453125q0.484375 0 0.90625 -0.296875q0.421875 -0.296875 0.609375 -1.3125l0.984375 0.328125zm1.6089478 -5.4375q0.65625 -0.421875 1.375 -0.609375q0.734375 -0.1875 1.546875 -0.1875q2.96875 0 2.96875 2.78125l0 3.953125q0 0.890625 0.703125 0.890625q0.328125 0 0.5625 -0.109375l0.015625 0.859375q-0.5 0.28125 -1.078125 0.28125q-1.46875 0 -1.515625 -1.6875l0 -0.03125q-0.390625 0.671875 -1.109375 1.203125q-0.71875 0.515625 -1.71875 0.515625q-0.828125 0 -1.671875 -0.5q-0.84375 -0.515625 -0.84375 -1.828125q0 -1.578125 1.234375 -2.0625q1.25 -0.5 2.640625 -0.5q0.375 0 0.75 0.015625q0.390625 0.015625 0.71875 0.0625l0 -0.75q0 -0.890625 -0.390625 -1.453125q-0.375 -0.5625 -1.484375 -0.5625q-0.921875 0 -1.609375 0.34375l-0.3125 1.4375l-1.078125 -0.140625l0.296875 -1.921875zm4.578125 4.5625l0 -0.640625q-0.34375 -0.015625 -0.734375 -0.046875q-0.390625 -0.046875 -0.8125 -0.046875q-0.921875 0 -1.6875 0.296875q-0.75 0.28125 -0.75 1.25q0 0.796875 0.5 1.109375q0.5 0.296875 1.046875 0.296875q0.859375 0 1.609375 -0.59375q0.765625 -0.609375 0.828125 -1.625zm13.432861 3.109375l-4.1875 0l0 -1.0625l1.4375 0l0 -3.859375q0 -1.34375 -0.546875 -1.890625q-0.546875 -0.5625 -1.375 -0.5625q-1.125 0 -1.8125 0.75q-0.671875 0.734375 -0.703125 1.6875l0 3.875l1.453125 0l0 1.0625l-4.21875 0l0 -1.0625l1.453125 0l0 -6.171875l-1.5 0l0 -1.0625l2.8125 0l0 1.46875q0.890625 -1.640625 2.90625 -1.640625q1.203125 0 2.015625 0.75q0.828125 0.734375 0.828125 2.40625l0 4.25l1.4375 0l0 1.0625zm8.158813 -2.796875q-0.171875 1.078125 -0.984375 2.03125q-0.8125 0.953125 -2.515625 0.953125q-1.71875 0 -2.75 -1.109375q-1.03125 -1.109375 -1.03125 -3.109375q0 -1.71875 0.96875 -3.078125q0.984375 -1.359375 2.921875 -1.359375q0.8125 0 1.5 0.1875q0.703125 0.1875 1.328125 0.671875l0.328125 2.0l-1.09375 0.125l-0.3125 -1.40625q-0.75 -0.453125 -1.765625 -0.453125q-1.328125 0 -1.90625 0.953125q-0.578125 0.9375 -0.578125 2.28125q0 1.5 0.640625 2.34375q0.65625 0.828125 1.890625 0.828125q1.875 0 2.234375 -2.109375l1.125 0.25zm8.744141 0.40625q-0.15625 1.0625 -1.0625 1.828125q-0.890625 0.75 -2.421875 0.75q-1.75 0 -2.84375 -1.09375q-1.078125 -1.109375 -1.078125 -3.125q0 -1.9375 1.03125 -3.1875q1.03125 -1.25 2.78125 -1.25q1.71875 0 2.609375 1.078125q0.890625 1.078125 0.921875 2.5625q0 0.484375 -0.125 0.984375l-5.828125 0q0.109375 2.90625 2.625 2.90625q0.984375 0 1.546875 -0.453125q0.5625 -0.46875 0.75 -1.234375l1.09375 0.234375zm-1.453125 -2.421875q0.09375 -0.9375 -0.4375 -1.75q-0.53125 -0.828125 -1.734375 -0.828125q-1.15625 0 -1.703125 0.765625q-0.546875 0.765625 -0.671875 1.8125l4.546875 0z" fill-rule="nonzero"/><path fill="#000000" fill-opacity="0.0" d="m519.44617 255.99344l101.07092 -59.055115" fill-rule="evenodd"/><path stroke="#000000" stroke-width="1.0" stroke-linejoin="round" stroke-linecap="butt" d="m519.44617 255.99344l95.89038 -56.028168" fill-rule="evenodd"/><path fill="#000000" stroke="#000000" stroke-width="1.0" stroke-linecap="butt" d="m616.16986 201.39139l3.084961 -3.7155457l-4.751526 0.86328125z" fill-rule="evenodd"/><path fill="#000000" fill-opacity="0.0" d="m519.44617 255.99344l-15.433044 -161.41733" fill-rule="evenodd"/><path stroke="#000000" stroke-width="1.0" stroke-linejoin="round" stroke-linecap="butt" d="m519.44617 255.99344l-14.861969 -155.44456" fill-rule="evenodd"/><path fill="#000000" stroke="#000000" stroke-width="1.0" stroke-linecap="butt" d="m506.22842 100.39167l-2.0761719 -4.3602905l-1.2123108 4.6747055z" fill-rule="evenodd"/><path fill="#cfe2f3" d="m431.91864 365.57364l0 0c0 -3.9863892 3.231598 -7.217987 7.217987 -7.217987l160.61911 0c1.9143677 0 3.7503052 0.7604675 5.103943 2.1141052c1.3536377 1.3536377 2.1140747 3.1895447 2.1140747 5.103882l0 28.871094c0 3.9863892 -3.2316284 7.217987 -7.2180176 7.217987l-160.61911 0c-3.9863892 0 -7.217987 -3.231598 -7.217987 -7.217987z" fill-rule="evenodd"/><path stroke="#000000" stroke-width="1.0" stroke-linejoin="round" stroke-linecap="butt" d="m431.91864 365.57364l0 0c0 -3.9863892 3.231598 -7.217987 7.217987 -7.217987l160.61911 0c1.9143677 0 3.7503052 0.7604675 5.103943 2.1141052c1.3536377 1.3536377 2.1140747 3.1895447 2.1140747 5.103882l0 28.871094c0 3.9863892 -3.2316284 7.217987 -7.2180176 7.217987l-160.61911 0c-3.9863892 0 -7.217987 -3.231598 -7.217987 -7.217987z" fill-rule="evenodd"/><path fill="#000000" d="m464.7793 379.69482l-0.953125 0l-2.453125 7.234375l-1.0 0l-2.546875 -6.34375l-0.078125 0l-2.484375 6.34375l-0.96875 0l-2.546875 -7.234375l-0.90625 0l0 -1.0625l3.90625 0l0 1.0625l-1.578125 0l1.734375 5.234375l0.09375 0l2.46875 -6.296875l0.875 0l2.59375 6.296875l0.09375 0l1.53125 -5.234375l-1.515625 0l0 -1.0625l3.734375 0l0 1.0625zm1.6969604 -0.4375q0.65625 -0.421875 1.375 -0.609375q0.734375 -0.1875 1.546875 -0.1875q2.96875 0 2.96875 2.78125l0 3.953125q0 0.890625 0.703125 0.890625q0.328125 0 0.5625 -0.109375l0.015625 0.859375q-0.5 0.28125 -1.078125 0.28125q-1.46875 0 -1.515625 -1.6875l0 -0.03125q-0.390625 0.671875 -1.109375 1.203125q-0.71875 0.515625 -1.71875 0.515625q-0.828125 0 -1.671875 -0.5q-0.84375 -0.515625 -0.84375 -1.828125q0 -1.578125 1.234375 -2.0625q1.25 -0.5 2.640625 -0.5q0.375 0 0.75 0.015625q0.390625 0.015625 0.71875 0.0625l0 -0.75q0 -0.890625 -0.390625 -1.453125q-0.375 -0.5625 -1.484375 -0.5625q-0.921875 0 -1.609375 0.34375l-0.3125 1.4375l-1.078125 -0.140625l0.296875 -1.921875zm4.578125 4.5625l0 -0.640625q-0.34375 -0.015625 -0.734375 -0.046875q-0.390625 -0.046875 -0.8125 -0.046875q-0.921875 0 -1.6875 0.296875q-0.75 0.28125 -0.75 1.25q0 0.796875 0.5 1.109375q0.5 0.296875 1.046875 0.296875q0.859375 0 1.609375 -0.59375q0.765625 -0.609375 0.828125 -1.625zm10.354706 0.703125q0 1.21875 -1.015625 1.90625q-1.015625 0.6875 -2.5 0.6875q-0.875 0 -1.75 -0.234375q-0.859375 -0.234375 -1.40625 -0.59375l0.265625 -1.875l1.046875 0.109375l-0.0625 1.09375q0.859375 0.421875 1.84375 0.421875q0.875 0 1.546875 -0.34375q0.6875 -0.34375 0.6875 -1.0625q0 -0.6875 -0.515625 -0.96875q-0.515625 -0.28125 -1.296875 -0.40625q-0.78125 -0.140625 -1.5625 -0.3125q-0.78125 -0.1875 -1.3125 -0.640625q-0.515625 -0.46875 -0.515625 -1.4375q0 -1.328125 0.96875 -1.859375q0.96875 -0.546875 2.109375 -0.546875q0.859375 0 1.609375 0.234375q0.765625 0.21875 1.28125 0.53125l0.21875 1.9375l-1.09375 0.125l-0.203125 -1.34375q-0.78125 -0.40625 -1.703125 -0.40625q-0.78125 0 -1.28125 0.296875q-0.5 0.296875 -0.5 0.9375q0 0.65625 0.515625 0.921875q0.53125 0.265625 1.296875 0.390625q0.765625 0.125 1.53125 0.3125q0.765625 0.1875 1.28125 0.671875q0.515625 0.46875 0.515625 1.453125zm2.6870728 -8.046875l0 -1.6875l1.421875 0l0 1.6875l-1.421875 0zm2.890625 10.453125l-4.203125 0l0 -1.0625l1.453125 0l0 -6.171875l-1.5 0l0 -1.0625l2.796875 0l0 7.234375l1.453125 0l0 1.0625zm1.5987549 -6.28125l0 -2.015625l1.75 0l0 2.015625l-1.75 0zm0 6.28125l0 -2.015625l1.75 0l0 2.015625l-1.75 0zm10.428986 -1.0625l0 -6.171875l-4.21875 0l0 6.171875l1.875 0l0 1.0625l-4.640625 0l0 -1.0625l1.4375 0l0 -6.171875l-1.1875 0l0 -1.0625l1.1875 0l0 -1.40625q0 -1.578125 1.046875 -2.4375q1.0625 -0.875 2.546875 -0.875q0.828125 0 1.546875 0.234375q0.734375 0.21875 1.21875 0.578125l0.3125 1.9375l-1.078125 0.140625l-0.328125 -1.40625q-0.234375 -0.125 -0.703125 -0.265625q-0.453125 -0.140625 -1.078125 -0.140625q-0.921875 0 -1.546875 0.5q-0.609375 0.5 -0.609375 1.703125l0 1.4375l5.53125 0l0 7.234375l1.4375 0l0 1.0625l-4.1875 0l0 -1.0625l1.4375 0zm7.7404175 1.0625l-4.21875 0l0 -1.0625l1.453125 0l0 -10.703125l-1.46875 0l0 -1.0625l2.78125 0l0 11.765625l1.453125 0l0 1.0625zm8.47821 -2.390625q-0.15625 1.0625 -1.0625 1.828125q-0.890625 0.75 -2.4219055 0.75q-1.75 0 -2.84375 -1.09375q-1.078125 -1.109375 -1.078125 -3.125q0 -1.9375 1.03125 -3.1875q1.03125 -1.25 2.78125 -1.25q1.7187805 0 2.6094055 1.078125q0.890625 1.078125 0.921875 2.5625q0 0.484375 -0.125 0.984375l-5.8281555 0q0.109375 2.90625 2.625 2.90625q0.9844055 0 1.5469055 -0.453125q0.5625 -0.46875 0.75 -1.234375l1.09375 0.234375zm-1.453125 -2.421875q0.09375 -0.9375 -0.4375 -1.75q-0.53125 -0.828125 -1.7344055 -0.828125q-1.15625 0 -1.703125 0.765625q-0.546875 0.765625 -0.671875 1.8125l4.5469055 0zm8.300232 -5.640625l0 -1.6875l1.421875 0l0 1.6875l-1.421875 0zm2.890625 10.453125l-4.203125 0l0 -1.0625l1.453125 0l0 -6.171875l-1.5 0l0 -1.0625l2.796875 0l0 7.234375l1.453125 0l0 1.0625zm10.89563 0l-4.1875 0l0 -1.0625l1.4375 0l0 -3.859375q0 -1.34375 -0.546875 -1.890625q-0.546875 -0.5625 -1.375 -0.5625q-1.125 0 -1.8125 0.75q-0.671875 0.734375 -0.703125 1.6875l0 3.875l1.453125 0l0 1.0625l-4.21875 0l0 -1.0625l1.453125 0l0 -6.171875l-1.5 0l0 -1.0625l2.8125 0l0 1.46875q0.890625 -1.640625 2.90625 -1.640625q1.203125 0 2.015625 0.75q0.828125 0.734375 0.828125 2.40625l0 4.25l1.4375 0l0 1.0625zm7.6119385 -2.40625q0 1.21875 -1.015625 1.90625q-1.015625 0.6875 -2.5 0.6875q-0.875 0 -1.75 -0.234375q-0.859375 -0.234375 -1.40625 -0.59375l0.265625 -1.875l1.046875 0.109375l-0.0625 1.09375q0.859375 0.421875 1.84375 0.421875q0.875 0 1.546875 -0.34375q0.6875 -0.34375 0.6875 -1.0625q0 -0.6875 -0.515625 -0.96875q-0.515625 -0.28125 -1.296875 -0.40625q-0.78125 -0.140625 -1.5625 -0.3125q-0.78125 -0.1875 -1.3125 -0.640625q-0.515625 -0.46875 -0.515625 -1.4375q0 -1.328125 0.96875 -1.859375q0.96875 -0.546875 2.109375 -0.546875q0.859375 0 1.609375 0.234375q0.765625 0.21875 1.28125 0.53125l0.21875 1.9375l-1.09375 0.125l-0.203125 -1.34375q-0.78125 -0.40625 -1.703125 -0.40625q-0.78125 0 -1.28125 0.296875q-0.5 0.296875 -0.5 0.9375q0 0.65625 0.515625 0.921875q0.53125 0.265625 1.296875 0.390625q0.765625 0.125 1.53125 0.3125q0.765625 0.1875 1.28125 0.671875q0.515625 0.46875 0.515625 1.453125zm7.5620728 0.171875q-0.328125 2.421875 -2.625 2.421875q-1.25 0 -1.921875 -0.703125q-0.65625 -0.71875 -0.65625 -1.921875l0 -4.8125l-1.34375 0l0 -1.046875l1.34375 0l0 -2.671875l1.296875 0l0 2.671875l3.25 0l0 1.046875l-3.25 0l0 4.640625q0 0.75 0.328125 1.203125q0.328125 0.453125 1.078125 0.453125q0.484375 0 0.90625 -0.296875q0.421875 -0.296875 0.609375 -1.3125l0.984375 0.328125zm1.6089478 -5.4375q0.65625 -0.421875 1.375 -0.609375q0.734375 -0.1875 1.546875 -0.1875q2.96875 0 2.96875 2.78125l0 3.953125q0 0.890625 0.703125 0.890625q0.328125 0 0.5625 -0.109375l0.015625 0.859375q-0.5 0.28125 -1.078125 0.28125q-1.46875 0 -1.515625 -1.6875l0 -0.03125q-0.390625 0.671875 -1.109375 1.203125q-0.71875 0.515625 -1.71875 0.515625q-0.828125 0 -1.671875 -0.5q-0.84375 -0.515625 -0.84375 -1.828125q0 -1.578125 1.234375 -2.0625q1.25 -0.5 2.640625 -0.5q0.375 0 0.75 0.015625q0.390625 0.015625 0.71875 0.0625l0 -0.75q0 -0.890625 -0.390625 -1.453125q-0.375 -0.5625 -1.484375 -0.5625q-0.921875 0 -1.609375 0.34375l-0.3125 1.4375l-1.078125 -0.140625l0.296875 -1.921875zm4.578125 4.5625l0 -0.640625q-0.34375 -0.015625 -0.734375 -0.046875q-0.390625 -0.046875 -0.8125 -0.046875q-0.921875 0 -1.6875 0.296875q-0.75 0.28125 -0.75 1.25q0 0.796875 0.5 1.109375q0.5 0.296875 1.046875 0.296875q0.859375 0 1.609375 -0.59375q0.765625 -0.609375 0.828125 -1.625zm13.4328 3.109375l-4.1875 0l0 -1.0625l1.4375 0l0 -3.859375q0 -1.34375 -0.546875 -1.890625q-0.546875 -0.5625 -1.375 -0.5625q-1.125 0 -1.8125 0.75q-0.671875 0.734375 -0.703125 1.6875l0 3.875l1.453125 0l0 1.0625l-4.218689 0l0 -1.0625l1.453064 0l0 -6.171875l-1.499939 0l0 -1.0625l2.812439 0l0 1.46875q0.890625 -1.640625 2.90625 -1.640625q1.203125 0 2.015625 0.75q0.828125 0.734375 0.828125 2.40625l0 4.25l1.4375 0l0 1.0625zm8.158813 -2.796875q-0.171875 1.078125 -0.984375 2.03125q-0.8125 0.953125 -2.515625 0.953125q-1.71875 0 -2.75 -1.109375q-1.03125 -1.109375 -1.03125 -3.109375q0 -1.71875 0.96875 -3.078125q0.984375 -1.359375 2.921875 -1.359375q0.8125 0 1.5 0.1875q0.703125 0.1875 1.328125 0.671875l0.328125 2.0l-1.09375 0.125l-0.3125 -1.40625q-0.75 -0.453125 -1.765625 -0.453125q-1.328125 0 -1.90625 0.953125q-0.578125 0.9375 -0.578125 2.28125q0 1.5 0.640625 2.34375q0.65625 0.828125 1.890625 0.828125q1.875 0 2.234375 -2.109375l1.125 0.25zm8.744202 0.40625q-0.15625 1.0625 -1.0625 1.828125q-0.890625 0.75 -2.421875 0.75q-1.75 0 -2.84375 -1.09375q-1.078125 -1.109375 -1.078125 -3.125q0 -1.9375 1.03125 -3.1875q1.03125 -1.25 2.78125 -1.25q1.71875 0 2.609375 1.078125q0.890625 1.078125 0.921875 2.5625q0 0.484375 -0.125 0.984375l-5.828125 0q0.109375 2.90625 2.625 2.90625q0.984375 0 1.546875 -0.453125q0.5625 -0.46875 0.75 -1.234375l1.09375 0.234375zm-1.453125 -2.421875q0.09375 -0.9375 -0.4375 -1.75q-0.53125 -0.828125 -1.734375 -0.828125q-1.15625 0 -1.703125 0.765625q-0.546875 0.765625 -0.671875 1.8125l4.546875 0z" fill-rule="nonzero"/><path fill="#000000" fill-opacity="0.0" d="m519.44617 299.30054l0 59.055115" fill-rule="evenodd"/><path stroke="#000000" stroke-width="1.0" stroke-linejoin="round" stroke-linecap="butt" d="m519.44617 299.30054l0 53.055115" fill-rule="evenodd"/><path fill="#000000" stroke="#000000" stroke-width="1.0" stroke-linecap="butt" d="m517.79443 352.35565l1.6517334 4.538086l1.6517334 -4.538086z" fill-rule="evenodd"/><path fill="#ffffff" d="m492.3854 323.62683l0 0c-0.53253174 -2.0085144 1.2158508 -3.9968262 4.503235 -5.121216c3.287384 -1.1243896 7.537262 -1.1876526 10.9461975 -0.16296387l0 0c1.20755 -1.1678467 3.4177246 -1.9741516 5.961975 -2.1750488c2.5443115 -0.20089722 5.1238403 0.22723389 6.958313 1.1548767l0 0c1.0286865 -1.0588379 3.048523 -1.7702332 5.3427734 -1.8817749c2.2942505 -0.11151123 4.538208 0.39260864 5.935608 1.3334961l0 0c1.8584595 -1.122345 4.8153687 -1.5949097 7.5911255 -1.2131958c2.7758179 0.38171387 4.8720093 1.5491638 5.381592 2.9971619l0 0c2.2769165 0.3187561 4.173584 1.1290894 5.19989 2.2216187c1.0263062 1.0925293 1.081604 2.360077 0.15161133 3.4751587l0 0c2.2421265 1.4976807 2.7666016 3.4933167 1.3777466 5.2421875c-1.388855 1.7488708 -4.482422 2.9882202 -8.126221 3.2555237c-0.0256958 1.6413879 -1.7796631 3.1474915 -4.5857544 3.9378052c-2.8061523 0.7903137 -6.2263184 0.74142456 -8.942261 -0.12780762c-1.1567993 1.9658508 -4.412903 3.4122925 -8.361511 3.7144165c-3.9486084 0.30212402 -7.881836 -0.59420776 -10.100403 -2.3017578c-2.719513 0.8416443 -5.982727 1.0841064 -9.053467 0.67266846c-3.0707703 -0.411438 -5.6904297 -1.4421387 -7.2680664 -2.859558l0 0c-2.7789917 0.16693115 -5.465912 -0.572052 -6.727234 -1.8501282c-1.2612915 -1.2780762 -0.8285217 -2.8232117 1.0835876 -3.8685608l0 0c-2.4789429 -0.7488098 -3.743866 -2.2347412 -3.1351318 -3.6829224c0.60873413 -1.4481812 2.9531555 -2.530426 5.8107605 -2.6824036z" fill-rule="evenodd"/><path fill="#000000" fill-opacity="0.0" d="m489.65485 330.0696l0 0c1.1697998 0.35336304 2.5212402 0.5136719 3.8728027 0.4593506m1.7702637 5.2594604c0.5812073 -0.03491211 1.1509094 -0.10882568 1.6944275 -0.21984863m14.626251 2.4066162c-0.40878296 -0.31463623 -0.7510376 -0.6508484 -1.020935 -1.0028992m19.483582 -0.40979004l0 0c0.2109375 -0.35839844 0.3475952 -0.7272644 0.4076538 -1.1004639m13.119812 -2.7094116c0.02734375 -1.7474976 -1.9065552 -3.3475037 -4.9710083 -4.112793m11.719421 -4.384735c-0.49627686 0.59506226 -1.2539062 1.1229248 -2.21344 1.5422058m-3.1375732 -7.2391357l0 0c0.08453369 0.24029541 0.12365723 0.4842224 0.11682129 0.72836304m-13.089294 -2.5122375l0 0c-0.46362305 0.27996826 -0.84552 0.5928345 -1.1339111 0.9288635m-10.144592 -0.3807373l0 0c-0.24707031 0.25430298 -0.43151855 0.523407 -0.54919434 0.8010864m-12.371277 0.21911621l0 0c0.7213135 0.2168274 1.3886414 0.4777832 1.9873047 0.77716064m-17.436554 4.5070496l0 0c0.073394775 0.27682495 0.18936157 0.55026245 0.34680176 0.817688" fill-rule="evenodd"/><path stroke="#000000" stroke-width="1.0" stroke-linejoin="round" stroke-linecap="butt" d="m492.3854 323.62683l0 0c-0.53253174 -2.0085144 1.2158508 -3.9968262 4.503235 -5.121216c3.287384 -1.1243896 7.537262 -1.1876526 10.9461975 -0.16296387l0 0c1.20755 -1.1678467 3.4177246 -1.9741516 5.961975 -2.1750488c2.5443115 -0.20089722 5.1238403 0.22723389 6.958313 1.1548767l0 0c1.0286865 -1.0588379 3.048523 -1.7702332 5.3427734 -1.8817749c2.2942505 -0.11151123 4.538208 0.39260864 5.935608 1.3334961l0 0c1.8584595 -1.122345 4.8153687 -1.5949097 7.5911255 -1.2131958c2.7758179 0.38171387 4.8720093 1.5491638 5.381592 2.9971619l0 0c2.2769165 0.3187561 4.173584 1.1290894 5.19989 2.2216187c1.0263062 1.0925293 1.081604 2.360077 0.15161133 3.4751587l0 0c2.2421265 1.4976807 2.7666016 3.4933167 1.3777466 5.2421875c-1.388855 1.7488708 -4.482422 2.9882202 -8.126221 3.2555237c-0.0256958 1.6413879 -1.7796631 3.1474915 -4.5857544 3.9378052c-2.8061523 0.7903137 -6.2263184 0.74142456 -8.942261 -0.12780762c-1.1567993 1.9658508 -4.412903 3.4122925 -8.361511 3.7144165c-3.9486084 0.30212402 -7.881836 -0.59420776 -10.100403 -2.3017578c-2.719513 0.8416443 -5.982727 1.0841064 -9.053467 0.67266846c-3.0707703 -0.411438 -5.6904297 -1.4421387 -7.2680664 -2.859558l0 0c-2.7789917 0.16693115 -5.465912 -0.572052 -6.727234 -1.8501282c-1.2612915 -1.2780762 -0.8285217 -2.8232117 1.0835876 -3.8685608l0 0c-2.4789429 -0.7488098 -3.743866 -2.2347412 -3.1351318 -3.6829224c0.60873413 -1.4481812 2.9531555 -2.530426 5.8107605 -2.6824036z" fill-rule="evenodd"/><path stroke="#000000" stroke-width="1.0" stroke-linejoin="round" stroke-linecap="butt" d="m489.65485 330.0696l0 0c1.1697998 0.35336304 2.5212402 0.5136719 3.8728027 0.4593506m1.7702637 5.2594604c0.5812073 -0.03491211 1.1509094 -0.10882568 1.6944275 -0.21984863m14.626251 2.4066162c-0.40878296 -0.31463623 -0.7510376 -0.6508484 -1.020935 -1.0028992m19.483582 -0.40979004l0 0c0.2109375 -0.35839844 0.3475952 -0.7272644 0.4076538 -1.1004639m13.119812 -2.7094116c0.02734375 -1.7474976 -1.9065552 -3.3475037 -4.9710083 -4.112793m11.719421 -4.384735c-0.49627686 0.59506226 -1.2539062 1.1229248 -2.21344 1.5422058m-3.1375732 -7.2391357l0 0c0.08453369 0.24029541 0.12365723 0.4842224 0.11682129 0.72836304m-13.089294 -2.5122375l0 0c-0.46362305 0.27996826 -0.84552 0.5928345 -1.1339111 0.9288635m-10.144592 -0.3807373l0 0c-0.24707031 0.25430298 -0.43151855 0.523407 -0.54919434 0.8010864m-12.371277 0.21911621l0 0c0.7213135 0.2168274 1.3886414 0.4777832 1.9873047 0.77716064m-17.436554 4.5070496l0 0c0.073394775 0.27682495 0.18936157 0.55026245 0.34680176 0.817688" fill-rule="evenodd"/><path fill="#000000" d="m512.4154 331.7371l-2.7031555 0l0 -0.6875l0.9375 0l0 -2.484375q0 -0.859375 -0.359375 -1.203125q-0.359375 -0.359375 -0.90625 -0.359375q-0.703125 0 -1.140625 0.46875q-0.4375 0.46875 -0.453125 1.0625l0 2.515625l0.921875 0l0 0.6875l-2.703125 0l0 -0.6875l0.921875 0l0 -6.890625l-0.921875 0l0 -0.671875l1.78125 0l0 3.875q0.578125 -1.078125 1.875 -1.078125q0.765625 0 1.296875 0.484375q0.53125 0.484375 0.53125 1.546875l0 2.734375l0.9219055 0l0 0.6875zm5.8294067 -2.671875q0 1.203125 -0.734375 2.0q-0.71875 0.796875 -1.953125 0.796875q-1.203125 0 -1.90625 -0.765625q-0.6875 -0.78125 -0.6875 -1.984375q0 -1.171875 0.671875 -2.0q0.671875 -0.828125 1.96875 -0.828125q1.3125 0 1.96875 0.828125q0.671875 0.8125 0.671875 1.953125zm-0.890625 -0.015625q0 -0.90625 -0.46875 -1.46875q-0.453125 -0.578125 -1.296875 -0.578125q-0.84375 0 -1.296875 0.59375q-0.453125 0.578125 -0.453125 1.46875q0 0.875 0.4375 1.484375q0.453125 0.59375 1.3125 0.59375q0.84375 0 1.296875 -0.59375q0.46875 -0.59375 0.46875 -1.5zm6.109131 1.140625q0 0.78125 -0.65625 1.234375q-0.640625 0.4375 -1.609375 0.4375q-0.5625 0 -1.125 -0.15625q-0.546875 -0.15625 -0.90625 -0.375l0.171875 -1.21875l0.671875 0.078125l-0.03125 0.703125q0.546875 0.265625 1.1875 0.265625q0.5625 0 1.0 -0.21875q0.4375 -0.21875 0.4375 -0.671875q0 -0.453125 -0.34375 -0.625q-0.328125 -0.1875 -0.828125 -0.265625q-0.5 -0.09375 -1.0 -0.203125q-0.5 -0.125 -0.84375 -0.421875q-0.328125 -0.296875 -0.328125 -0.921875q0 -0.84375 0.625 -1.1875q0.625 -0.359375 1.359375 -0.359375q0.546875 0 1.03125 0.15625q0.484375 0.140625 0.828125 0.34375l0.125 1.25l-0.6875 0.078125l-0.140625 -0.859375q-0.5 -0.265625 -1.09375 -0.265625q-0.5 0 -0.828125 0.1875q-0.328125 0.1875 -0.328125 0.609375q0 0.40625 0.328125 0.59375q0.34375 0.171875 0.828125 0.25q0.5 0.078125 0.984375 0.203125q0.5 0.109375 0.828125 0.421875q0.34375 0.296875 0.34375 0.9375zm4.8654175 0.109375q-0.21875 1.5625 -1.6875 1.5625q-0.8125 0 -1.234375 -0.453125q-0.421875 -0.46875 -0.421875 -1.25l0 -3.09375l-0.859375 0l0 -0.671875l0.859375 0l0 -1.71875l0.84375 0l0 1.71875l2.078125 0l0 0.671875l-2.078125 0l0 2.984375q0 0.484375 0.203125 0.78125q0.203125 0.296875 0.6875 0.296875q0.3125 0 0.578125 -0.1875q0.28125 -0.203125 0.390625 -0.84375l0.640625 0.203125z" fill-rule="nonzero"/><path fill="#000000" fill-opacity="0.0" d="m620.51184 153.63124l-116.50397 -59.055122" fill-rule="evenodd"/><path stroke="#000000" stroke-width="1.0" stroke-linejoin="round" stroke-linecap="butt" d="m620.51184 153.63124l-111.15225 -56.342377" fill-rule="evenodd"/><path fill="#000000" stroke="#000000" stroke-width="1.0" stroke-linecap="butt" d="m510.10638 95.815605l-4.7945557 -0.57852936l3.3009644 3.5250626z" fill-rule="evenodd"/><path fill="#000000" fill-opacity="0.0" d="m167.83202 72.92388l248.66142 0" fill-rule="evenodd"/><path stroke="#666666" stroke-width="1.0" stroke-linejoin="round" stroke-linecap="butt" stroke-dasharray="4.0,3.0" d="m167.83202 72.92388l242.66142 0" fill-rule="evenodd"/><path fill="#666666" stroke="#666666" stroke-width="1.0" stroke-linecap="butt" d="m410.49344 74.575615l4.538086 -1.6517334l-4.538086 -1.6517258z" fill-rule="evenodd"/><path fill="#000000" fill-opacity="0.0" d="m330.21515 175.28871l202.77167 0" fill-rule="evenodd"/><path stroke="#666666" stroke-width="1.0" stroke-linejoin="round" stroke-linecap="butt" stroke-dasharray="4.0,3.0" d="m330.21515 175.28871l196.77167 0" fill-rule="evenodd"/><path fill="#666666" stroke="#666666" stroke-width="1.0" stroke-linecap="butt" d="m526.9868 176.94044l4.538086 -1.6517334l-4.538086 -1.6517334z" fill-rule="evenodd"/><path fill="#000000" fill-opacity="0.0" d="m243.979 277.6483l187.93701 0" fill-rule="evenodd"/><path stroke="#666666" stroke-width="1.0" stroke-linejoin="round" stroke-linecap="butt" stroke-dasharray="4.0,3.0" d="m243.979 277.6483l181.93701 0" fill-rule="evenodd"/><path fill="#666666" stroke="#666666" stroke-width="1.0" stroke-linecap="butt" d="m425.91602 279.30002l4.538086 -1.6517334l-4.538086 -1.6517334z" fill-rule="evenodd"/><path fill="#f3f3f3" d="m213.50656 115.79253l0 0c0 -3.8470764 3.1186676 -6.9657516 6.9657593 -6.9657516l67.20233 0c1.8474426 0 3.6192017 0.7338867 4.925537 2.0402222c1.3063354 1.3063278 2.0402222 3.0780945 2.0402222 4.9255295l0 6.162979c0 3.8470764 -3.1186523 6.9657593 -6.9657593 6.9657593l-67.20233 0c-3.8470917 0 -6.9657593 -3.1186829 -6.9657593 -6.9657593z" fill-rule="evenodd"/><path stroke="#000000" stroke-width="1.0" stroke-linejoin="round" stroke-linecap="butt" d="m213.50656 115.79253l0 0c0 -3.8470764 3.1186676 -6.9657516 6.9657593 -6.9657516l67.20233 0c1.8474426 0 3.6192017 0.7338867 4.925537 2.0402222c1.3063354 1.3063278 2.0402222 3.0780945 2.0402222 4.9255295l0 6.162979c0 3.8470764 -3.1186523 6.9657593 -6.9657593 6.9657593l-67.20233 0c-3.8470917 0 -6.9657593 -3.1186829 -6.9657593 -6.9657593z" fill-rule="evenodd"/><path fill="#000000" d="m238.19917 118.53089l-0.8125 0l-2.09375 6.203125l-0.875 0l-2.171875 -5.4375l-0.078125 0l-2.125 5.4375l-0.828125 0l-2.1875 -6.203125l-0.78125 0l0 -0.921875l3.359375 0l0 0.921875l-1.359375 0l1.484375 4.484375l0.09375 0l2.109375 -5.40625l0.75 0l2.21875 5.40625l0.078125 0l1.3125 -4.484375l-1.296875 0l0 -0.921875l3.203125 0l0 0.921875zm1.4591522 -0.375q0.5625 -0.359375 1.1875 -0.515625q0.625 -0.171875 1.328125 -0.171875q2.546875 0 2.546875 2.390625l0 3.390625q0 0.765625 0.59375 0.765625q0.28125 0 0.484375 -0.09375l0.015625 0.734375q-0.421875 0.234375 -0.921875 0.234375q-1.265625 0 -1.296875 -1.4375l0 -0.03125q-0.34375 0.578125 -0.96875 1.03125q-0.609375 0.4375 -1.46875 0.4375q-0.703125 0 -1.4375 -0.421875q-0.71875 -0.4375 -0.71875 -1.578125q0 -1.34375 1.0625 -1.765625q1.0625 -0.421875 2.265625 -0.421875q0.3125 0 0.640625 0.015625q0.328125 0.015625 0.625 0.046875l0 -0.640625q0 -0.765625 -0.328125 -1.25q-0.328125 -0.484375 -1.296875 -0.484375q-0.78125 0 -1.375 0.296875l-0.265625 1.234375l-0.921875 -0.109375l0.25 -1.65625zm3.9375 3.90625l0 -0.546875q-0.3125 -0.015625 -0.65625 -0.046875q-0.328125 -0.03125 -0.671875 -0.03125q-0.796875 0 -1.453125 0.25q-0.640625 0.25 -0.640625 1.078125q0 0.6875 0.421875 0.953125q0.4375 0.25 0.90625 0.25q0.734375 0 1.375 -0.515625q0.65625 -0.515625 0.71875 -1.390625zm8.884262 0.609375q0 1.03125 -0.875 1.625q-0.875 0.59375 -2.15625 0.59375q-0.75 0 -1.5 -0.1875q-0.734375 -0.203125 -1.203125 -0.515625l0.21875 -1.609375l0.90625 0.09375l-0.046875 0.9375q0.734375 0.359375 1.578125 0.359375q0.75 0 1.328125 -0.296875q0.59375 -0.296875 0.59375 -0.90625q0 -0.59375 -0.453125 -0.828125q-0.4375 -0.25 -1.109375 -0.359375q-0.65625 -0.109375 -1.34375 -0.265625q-0.671875 -0.15625 -1.125 -0.546875q-0.4375 -0.40625 -0.4375 -1.234375q0 -1.140625 0.828125 -1.59375q0.84375 -0.46875 1.8125 -0.46875q0.734375 0 1.375 0.203125q0.65625 0.1875 1.109375 0.453125l0.171875 1.671875l-0.921875 0.109375l-0.1875 -1.15625q-0.671875 -0.359375 -1.453125 -0.359375q-0.671875 0 -1.109375 0.265625q-0.421875 0.25 -0.421875 0.796875q0 0.5625 0.4375 0.796875q0.453125 0.234375 1.109375 0.34375q0.65625 0.09375 1.3125 0.25q0.65625 0.15625 1.109375 0.578125q0.453125 0.40625 0.453125 1.25zm2.3048859 -6.890625l0 -1.46875l1.203125 0l0 1.46875l-1.203125 0zm2.46875 8.953125l-3.609375 0l0 -0.90625l1.25 0l0 -5.296875l-1.28125 0l0 -0.921875l2.390625 0l0 6.21875l1.25 0l0 0.90625zm1.370636 -5.390625l0 -1.734375l1.5 0l0 1.734375l-1.5 0zm0 5.390625l0 -1.734375l1.5 0l0 1.734375l-1.5 0zm8.94339 -0.90625l0 -5.296875l-3.625 0l0 5.296875l1.625 0l0 0.90625l-3.984375 0l0 -0.90625l1.21875 0l0 -5.296875l-1.015625 0l0 -0.921875l1.015625 0l0 -1.1875q0 -1.375 0.90625 -2.109375q0.90625 -0.75 2.1875 -0.75q0.703125 0 1.328125 0.203125q0.625 0.203125 1.046875 0.5l0.265625 1.671875l-0.921875 0.109375l-0.296875 -1.203125q-0.1875 -0.109375 -0.59375 -0.21875q-0.390625 -0.125 -0.921875 -0.125q-0.796875 0 -1.328125 0.4375q-0.53125 0.421875 -0.53125 1.4375l0 1.234375l4.75 0l0 6.21875l1.234375 0l0 0.90625l-3.59375 0l0 -0.90625l1.234375 0zm6.6352844 0.90625l-3.625 0l0 -0.90625l1.25 0l0 -9.1875l-1.265625 0l0 -0.921875l2.390625 0l0 10.109375l1.25 0l0 0.90625zm7.271637 -2.046875q-0.140625 0.90625 -0.90625 1.5625q-0.765625 0.640625 -2.078125 0.640625q-1.5 0 -2.4375 -0.9375q-0.921875 -0.953125 -0.921875 -2.671875q0 -1.671875 0.875 -2.734375q0.890625 -1.078125 2.390625 -1.078125q1.46875 0 2.234375 0.9375q0.765625 0.921875 0.78125 2.1875q0 0.40625 -0.09375 0.84375l-5.0 0q0.09375 2.5 2.25 2.5q0.84375 0 1.328125 -0.390625q0.484375 -0.40625 0.640625 -1.0625l0.9375 0.203125zm-1.234375 -2.078125q0.078125 -0.796875 -0.390625 -1.5q-0.453125 -0.71875 -1.484375 -0.71875q-1.0 0 -1.46875 0.65625q-0.453125 0.65625 -0.5625 1.5625l3.90625 0z" fill-rule="nonzero"/><path fill="#f3f3f3" d="m51.12861 12.792526l0 0c0 -3.8470802 3.1186752 -6.9657545 6.9657555 -6.9657545l67.20235 0c1.8474274 0 3.619194 0.7338896 4.9255295 2.0402222c1.3063354 1.3063326 2.0402222 3.0780993 2.0402222 4.9255323l0 6.162979c0 3.8470802 -3.1186676 6.9657536 -6.9657516 6.9657536l-67.20235 0c-3.8470802 0 -6.9657555 -3.1186733 -6.9657555 -6.9657536z" fill-rule="evenodd"/><path stroke="#000000" stroke-width="1.0" stroke-linejoin="round" stroke-linecap="butt" d="m51.12861 12.792526l0 0c0 -3.8470802 3.1186752 -6.9657545 6.9657555 -6.9657545l67.20235 0c1.8474274 0 3.619194 0.7338896 4.9255295 2.0402222c1.3063354 1.3063326 2.0402222 3.0780993 2.0402222 4.9255323l0 6.162979c0 3.8470802 -3.1186676 6.9657536 -6.9657516 6.9657536l-67.20235 0c-3.8470802 0 -6.9657555 -3.1186733 -6.9657555 -6.9657536z" fill-rule="evenodd"/><path fill="#000000" d="m75.82123 15.53089l-0.8125 0l-2.09375 6.203126l-0.875 0l-2.171875 -5.4375l-0.078125 0l-2.125 5.4375l-0.828125 0l-2.1875 -6.203126l-0.7812538 0l0 -0.921875l3.3593788 0l0 0.921875l-1.359375 0l1.484375 4.484376l0.09375 0l2.109375 -5.406251l0.75 0l2.21875 5.406251l0.078125 0l1.3125 -4.484376l-1.296875 0l0 -0.921875l3.203125 0l0 0.921875zm1.4591522 -0.375q0.5625 -0.359375 1.1875 -0.515625q0.625 -0.171875 1.328125 -0.171875q2.546875 0 2.546875 2.390626l0 3.390625q0 0.765625 0.59375 0.765625q0.28125 0 0.484375 -0.09375l0.015625 0.734375q-0.421875 0.234375 -0.921875 0.234375q-1.265625 0 -1.296875 -1.4375l0 -0.03125q-0.34375 0.578125 -0.96875 1.03125q-0.609375 0.4375 -1.46875 0.4375q-0.703125 0 -1.4375 -0.421875q-0.71875 -0.4375 -0.71875 -1.578125q0 -1.34375 1.0625 -1.765625q1.0625 -0.421875 2.265625 -0.421875q0.3125 0 0.640625 0.015625q0.328125 0.015625 0.625 0.046875l0 -0.640625q0 -0.765625 -0.328125 -1.250001q-0.328125 -0.484375 -1.296875 -0.484375q-0.78125 0 -1.375 0.296875l-0.265625 1.234376l-0.921875 -0.109375l0.25 -1.656251zm3.9375 3.906251l0 -0.546875q-0.3125 -0.015625 -0.65625 -0.046875q-0.328125 -0.03125 -0.671875 -0.03125q-0.796875 0 -1.453125 0.25q-0.640625 0.25 -0.640625 1.078125q0 0.6875 0.421875 0.953125q0.4375 0.25 0.90625 0.25q0.734375 0 1.375 -0.515625q0.65625 -0.515625 0.71875 -1.390625zm8.884262 0.609375q0 1.03125 -0.875 1.625q-0.875 0.59375 -2.15625 0.59375q-0.75 0 -1.5 -0.1875q-0.734375 -0.203125 -1.203125 -0.515625l0.21875 -1.609375l0.90625 0.09375l-0.046875 0.9375q0.734375 0.359375 1.578125 0.359375q0.75 0 1.328125 -0.296875q0.59375 -0.296875 0.59375 -0.90625q0 -0.59375 -0.453125 -0.828125q-0.4375 -0.25 -1.109375 -0.359375q-0.65625 -0.109375 -1.34375 -0.265625q-0.671875 -0.15625 -1.125 -0.546875q-0.4375 -0.40625 -0.4375 -1.234375q0 -1.140626 0.828125 -1.593751q0.84375 -0.46875 1.8125 -0.46875q0.734375 0 1.375 0.203125q0.65625 0.1875 1.109375 0.453125l0.171875 1.671876l-0.921875 0.109375l-0.1875 -1.156251q-0.671875 -0.359375 -1.453125 -0.359375q-0.671875 0 -1.109375 0.265625q-0.421875 0.25 -0.421875 0.79687595q0 0.5625 0.4375 0.796875q0.453125 0.234375 1.109375 0.34375q0.65625 0.09375 1.3125 0.25q0.65625 0.15625 1.109375 0.578125q0.453125 0.40625 0.453125 1.25zm2.3048859 -6.890626l0 -1.46875l1.203125 0l0 1.46875l-1.203125 0zm2.46875 8.953126l-3.609375 0l0 -0.90625l1.25 0l0 -5.296876l-1.28125 0l0 -0.921875l2.390625 0l0 6.218751l1.25 0l0 0.90625zm1.370636 -5.390625l0 -1.734376l1.5 0l0 1.734376l-1.5 0zm0 5.390625l0 -1.734375l1.5 0l0 1.734375l-1.5 0zm8.94339 -0.90625l0 -5.296876l-3.625 0l0 5.296876l1.625 0l0 0.90625l-3.984375 0l0 -0.90625l1.21875 0l0 -5.296876l-1.015625 0l0 -0.921875l1.015625 0l0 -1.1875q0 -1.375 0.90625 -2.109375q0.90625 -0.75 2.1875 -0.75q0.703125 0 1.328125 0.203125q0.625 0.203125 1.046875 0.5l0.265625 1.671875l-0.921875 0.109375l-0.296875 -1.203125q-0.1875 -0.109375 -0.59375 -0.21875q-0.390625 -0.125 -0.921875 -0.125q-0.796875 0 -1.328125 0.4375q-0.53125 0.421875 -0.53125 1.4375l0 1.234375l4.75 0l0 6.218751l1.234375 0l0 0.90625l-3.59375 0l0 -0.90625l1.234375 0zm6.635269 0.90625l-3.625 0l0 -0.90625l1.25 0l0 -9.187501l-1.265625 0l0 -0.921875l2.390625 0l0 10.109376l1.25 0l0 0.90625zm7.271637 -2.046875q-0.140625 0.90625 -0.90625 1.5625q-0.765625 0.640625 -2.078125 0.640625q-1.5 0 -2.4375 -0.9375q-0.921875 -0.953125 -0.921875 -2.671875q0 -1.671875 0.875 -2.734376q0.890625 -1.078125 2.390625 -1.078125q1.46875 0 2.234375 0.9375q0.765625 0.92187595 0.78125 2.187501q0 0.40625 -0.09375 0.84375l-5.0 0q0.09375 2.5 2.25 2.5q0.84375 0 1.328125 -0.390625q0.484375 -0.40625 0.640625 -1.0625l0.9375 0.203125zm-1.234375 -2.078125q0.078125 -0.796875 -0.390625 -1.5q-0.453125 -0.71875095 -1.484375 -0.71875095q-1.0 0 -1.46875 0.65625095q-0.453125 0.65625 -0.5625 1.5625l3.90625 0z" fill-rule="nonzero"/><path fill="#f3f3f3" d="m54.545933 213.70592l0 0c0 -3.8470917 3.1186752 -6.9657593 6.9657516 -6.9657593l67.20235 0c1.8474274 0 3.6192017 0.7338867 4.925537 2.0402222c1.3063354 1.3063354 2.0402222 3.0780945 2.0402222 4.925537l0 6.162979c0 3.8470764 -3.1186829 6.965744 -6.9657593 6.965744l-67.20235 0c-3.8470764 0 -6.9657516 -3.1186676 -6.9657516 -6.965744z" fill-rule="evenodd"/><path stroke="#000000" stroke-width="1.0" stroke-linejoin="round" stroke-linecap="butt" d="m54.545933 213.70592l0 0c0 -3.8470917 3.1186752 -6.9657593 6.9657516 -6.9657593l67.20235 0c1.8474274 0 3.6192017 0.7338867 4.925537 2.0402222c1.3063354 1.3063354 2.0402222 3.0780945 2.0402222 4.925537l0 6.162979c0 3.8470764 -3.1186829 6.965744 -6.9657593 6.965744l-67.20235 0c-3.8470764 0 -6.9657516 -3.1186676 -6.9657516 -6.965744z" fill-rule="evenodd"/><path fill="#000000" d="m79.23855 216.44427l-0.8125 0l-2.09375 6.203125l-0.875 0l-2.171875 -5.4375l-0.078125 0l-2.125 5.4375l-0.828125 0l-2.1875 -6.203125l-0.78125 0l0 -0.921875l3.359375 0l0 0.921875l-1.359375 0l1.484375 4.484375l0.09375 0l2.109375 -5.40625l0.75 0l2.21875 5.40625l0.078125 0l1.3125 -4.484375l-1.296875 0l0 -0.921875l3.203125 0l0 0.921875zm1.4591522 -0.375q0.5625 -0.359375 1.1875 -0.515625q0.625 -0.171875 1.328125 -0.171875q2.546875 0 2.546875 2.390625l0 3.390625q0 0.765625 0.59375 0.765625q0.28125 0 0.484375 -0.09375l0.015625 0.734375q-0.421875 0.234375 -0.921875 0.234375q-1.265625 0 -1.296875 -1.4375l0 -0.03125q-0.34375 0.578125 -0.96875 1.03125q-0.609375 0.4375 -1.46875 0.4375q-0.703125 0 -1.4375 -0.421875q-0.71875 -0.4375 -0.71875 -1.578125q0 -1.34375 1.0625 -1.765625q1.0625 -0.421875 2.265625 -0.421875q0.3125 0 0.640625 0.015625q0.328125 0.015625 0.625 0.046875l0 -0.640625q0 -0.765625 -0.328125 -1.25q-0.328125 -0.484375 -1.296875 -0.484375q-0.78125 0 -1.375 0.296875l-0.265625 1.234375l-0.921875 -0.109375l0.25 -1.65625zm3.9375 3.90625l0 -0.546875q-0.3125 -0.015625 -0.65625 -0.046875q-0.328125 -0.03125 -0.671875 -0.03125q-0.796875 0 -1.453125 0.25q-0.640625 0.25 -0.640625 1.078125q0 0.6875 0.421875 0.953125q0.4375 0.25 0.90625 0.25q0.734375 0 1.375 -0.515625q0.65625 -0.515625 0.71875 -1.390625zm8.884262 0.609375q0 1.03125 -0.875 1.625q-0.875 0.59375 -2.15625 0.59375q-0.75 0 -1.5 -0.1875q-0.734375 -0.203125 -1.203125 -0.515625l0.21875 -1.609375l0.90625 0.09375l-0.046875 0.9375q0.734375 0.359375 1.578125 0.359375q0.75 0 1.328125 -0.296875q0.59375 -0.296875 0.59375 -0.90625q0 -0.59375 -0.453125 -0.828125q-0.4375 -0.25 -1.109375 -0.359375q-0.65625 -0.109375 -1.34375 -0.265625q-0.671875 -0.15625 -1.125 -0.546875q-0.4375 -0.40625 -0.4375 -1.234375q0 -1.140625 0.828125 -1.59375q0.84375 -0.46875 1.8125 -0.46875q0.734375 0 1.375 0.203125q0.65625 0.1875 1.109375 0.453125l0.171875 1.671875l-0.921875 0.109375l-0.1875 -1.15625q-0.671875 -0.359375 -1.453125 -0.359375q-0.671875 0 -1.109375 0.265625q-0.421875 0.25 -0.421875 0.796875q0 0.5625 0.4375 0.796875q0.453125 0.234375 1.109375 0.34375q0.65625 0.09375 1.3125 0.25q0.65625 0.15625 1.109375 0.578125q0.453125 0.40625 0.453125 1.25zm2.3048859 -6.890625l0 -1.46875l1.203125 0l0 1.46875l-1.203125 0zm2.46875 8.953125l-3.609375 0l0 -0.90625l1.25 0l0 -5.296875l-1.28125 0l0 -0.921875l2.390625 0l0 6.21875l1.25 0l0 0.90625zm1.370636 -5.390625l0 -1.734375l1.5 0l0 1.734375l-1.5 0zm0 5.390625l0 -1.734375l1.5 0l0 1.734375l-1.5 0zm8.94339 -0.90625l0 -5.296875l-3.625 0l0 5.296875l1.625 0l0 0.90625l-3.984375 0l0 -0.90625l1.21875 0l0 -5.296875l-1.015625 0l0 -0.921875l1.015625 0l0 -1.1875q0 -1.375 0.90625 -2.109375q0.90625 -0.75 2.1875 -0.75q0.703125 0 1.328125 0.203125q0.625 0.203125 1.046875 0.5l0.265625 1.671875l-0.921875 0.109375l-0.296875 -1.203125q-0.1875 -0.109375 -0.59375 -0.21875q-0.390625 -0.125 -0.921875 -0.125q-0.796875 0 -1.328125 0.4375q-0.53125 0.421875 -0.53125 1.4375l0 1.234375l4.75 0l0 6.21875l1.234375 0l0 0.90625l-3.59375 0l0 -0.90625l1.234375 0zm6.635269 0.90625l-3.625 0l0 -0.90625l1.25 0l0 -9.1875l-1.265625 0l0 -0.921875l2.390625 0l0 10.109375l1.25 0l0 0.90625zm7.271637 -2.046875q-0.140625 0.90625 -0.90625 1.5625q-0.765625 0.640625 -2.078125 0.640625q-1.5 0 -2.4375 -0.9375q-0.921875 -0.953125 -0.921875 -2.671875q0 -1.671875 0.875 -2.734375q0.890625 -1.078125 2.390625 -1.078125q1.46875 0 2.234375 0.9375q0.765625 0.921875 0.78125 2.1875q0 0.40625 -0.09375 0.84375l-5.0 0q0.09375 2.5 2.25 2.5q0.84375 0 1.328125 -0.390625q0.484375 -0.40625 0.640625 -1.0625l0.9375 0.203125zm-1.234375 -2.078125q0.078125 -0.796875 -0.390625 -1.5q-0.453125 -0.71875 -1.484375 -0.71875q-1.0 0 -1.46875 0.65625q-0.453125 0.65625 -0.5625 1.5625l3.90625 0z" fill-rule="nonzero"/><path fill="#000000" fill-opacity="0.0" d="m167.83728 255.99475l-72.72441 -29.16536" fill-rule="evenodd"/><path stroke="#000000" stroke-width="1.0" stroke-linejoin="round" stroke-linecap="butt" d="m167.83727 255.99475l-67.15555 -26.932022" fill-rule="evenodd"/><path fill="#000000" stroke="#000000" stroke-width="1.0" stroke-linecap="butt" d="m101.29653 227.52968l-4.8268127 -0.15612793l3.5971909 3.222229z" fill-rule="evenodd"/><path fill="#ffffff" d="m153.64261 227.1182l0 0c-0.5325165 -2.0085144 1.2158661 -3.9968262 4.50325 -5.121231c3.2873993 -1.1243896 7.5372467 -1.1876678 10.9461975 -0.16297913l0 0c1.2075653 -1.1678314 3.4177399 -1.9741364 5.9620056 -2.1750336c2.5442657 -0.20089722 5.1237793 0.22723389 6.9582977 1.1548767l0 0c1.0286865 -1.0588379 3.048523 -1.7702484 5.342758 -1.8817749c2.2942505 -0.11152649 4.5382233 0.39260864 5.935623 1.3335114l0 0c1.8584595 -1.1223602 4.815323 -1.5949249 7.5911407 -1.213211c2.7758026 0.38172913 4.8720093 1.5491638 5.3815613 2.9971771l0 0c2.2769318 0.3187561 4.1735687 1.1290741 5.199875 2.2216034c1.0263062 1.092514 1.0816193 2.360077 0.15162659 3.4751587l0 0c2.2421265 1.4976807 2.7666016 3.493332 1.3777313 5.2422028c-1.3888702 1.7488556 -4.482437 2.988205 -8.126221 3.2555237c-0.0256958 1.6413727 -1.7796173 3.1474762 -4.5857697 3.93779c-2.806137 0.790329 -6.226303 0.7414398 -8.9422 -0.12779236c-1.1568298 1.9658203 -4.412918 3.412262 -8.3615265 3.7144012c-3.9485931 0.30212402 -7.881836 -0.59420776 -10.100418 -2.3017578c-2.7195282 0.84165955 -5.982712 1.0841064 -9.053482 0.67266846c-3.070755 -0.411438 -5.6904144 -1.4421234 -7.268036 -2.8595428l0 0c-2.779007 0.16690063 -5.465927 -0.572052 -6.727234 -1.8501434c-1.261322 -1.2780762 -0.828537 -2.8232117 1.0835571 -3.8685455l0 0c-2.4789429 -0.74884033 -3.7438507 -2.2347565 -3.1351166 -3.6829376c0.60873413 -1.4481659 2.9531555 -2.530426 5.8107452 -2.6824036z" fill-rule="evenodd"/><path fill="#000000" fill-opacity="0.0" d="m150.91205 233.56094l0 0c1.1698303 0.3533783 2.5212402 0.51368713 3.8728027 0.4593811m1.7702637 5.259445c0.58122253 -0.03491211 1.1509247 -0.10882568 1.6944275 -0.21986389m14.626282 2.4066467c-0.40879822 -0.31463623 -0.7510681 -0.6508484 -1.0209656 -1.0029144m19.483612 -0.40979004l0 0c0.21090698 -0.35839844 0.34754944 -0.72727966 0.40766907 -1.1004639m13.1197815 -2.7093964c0.02734375 -1.7474976 -1.9065399 -3.347519 -4.970993 -4.1128235m11.719437 -4.38472c-0.49627686 0.59506226 -1.2539062 1.1229248 -2.2134705 1.5422058m-3.1375885 -7.2391205l0 0c0.08456421 0.24029541 0.123703 0.48420715 0.116867065 0.7283478m-13.08934 -2.5122375l0 0c-0.46359253 0.27996826 -0.8455353 0.5928345 -1.1339264 0.9288635m-10.1445465 -0.3807373l0 0c-0.24705505 0.25430298 -0.43154907 0.5233917 -0.5492096 0.8010864m-12.371292 0.21911621l0 0c0.72132874 0.21681213 1.3886719 0.4777832 1.9873352 0.7771759m-17.436584 4.5070496l0 0c0.073410034 0.27682495 0.18937683 0.5502472 0.34683228 0.817688" fill-rule="evenodd"/><path stroke="#000000" stroke-width="1.0" stroke-linejoin="round" stroke-linecap="butt" d="m153.64261 227.1182l0 0c-0.5325165 -2.0085144 1.2158661 -3.9968262 4.50325 -5.121231c3.2873993 -1.1243896 7.5372467 -1.1876678 10.9461975 -0.16297913l0 0c1.2075653 -1.1678314 3.4177399 -1.9741364 5.9620056 -2.1750336c2.5442657 -0.20089722 5.1237793 0.22723389 6.9582977 1.1548767l0 0c1.0286865 -1.0588379 3.048523 -1.7702484 5.342758 -1.8817749c2.2942505 -0.11152649 4.5382233 0.39260864 5.935623 1.3335114l0 0c1.8584595 -1.1223602 4.815323 -1.5949249 7.5911407 -1.213211c2.7758026 0.38172913 4.8720093 1.5491638 5.3815613 2.9971771l0 0c2.2769318 0.3187561 4.1735687 1.1290741 5.199875 2.2216034c1.0263062 1.092514 1.0816193 2.360077 0.15162659 3.4751587l0 0c2.2421265 1.4976807 2.7666016 3.493332 1.3777313 5.2422028c-1.3888702 1.7488556 -4.482437 2.988205 -8.126221 3.2555237c-0.0256958 1.6413727 -1.7796173 3.1474762 -4.5857697 3.93779c-2.806137 0.790329 -6.226303 0.7414398 -8.9422 -0.12779236c-1.1568298 1.9658203 -4.412918 3.412262 -8.3615265 3.7144012c-3.9485931 0.30212402 -7.881836 -0.59420776 -10.100418 -2.3017578c-2.7195282 0.84165955 -5.982712 1.0841064 -9.053482 0.67266846c-3.070755 -0.411438 -5.6904144 -1.4421234 -7.268036 -2.8595428l0 0c-2.779007 0.16690063 -5.465927 -0.572052 -6.727234 -1.8501434c-1.261322 -1.2780762 -0.828537 -2.8232117 1.0835571 -3.8685455l0 0c-2.4789429 -0.74884033 -3.7438507 -2.2347565 -3.1351166 -3.6829376c0.60873413 -1.4481659 2.9531555 -2.530426 5.8107452 -2.6824036z" fill-rule="evenodd"/><path stroke="#000000" stroke-width="1.0" stroke-linejoin="round" stroke-linecap="butt" d="m150.91205 233.56094l0 0c1.1698303 0.3533783 2.5212402 0.51368713 3.8728027 0.4593811m1.7702637 5.259445c0.58122253 -0.03491211 1.1509247 -0.10882568 1.6944275 -0.21986389m14.626282 2.4066467c-0.40879822 -0.31463623 -0.7510681 -0.6508484 -1.0209656 -1.0029144m19.483612 -0.40979004l0 0c0.21090698 -0.35839844 0.34754944 -0.72727966 0.40766907 -1.1004639m13.1197815 -2.7093964c0.02734375 -1.7474976 -1.9065399 -3.347519 -4.970993 -4.1128235m11.719437 -4.38472c-0.49627686 0.59506226 -1.2539062 1.1229248 -2.2134705 1.5422058m-3.1375885 -7.2391205l0 0c0.08456421 0.24029541 0.123703 0.48420715 0.116867065 0.7283478m-13.08934 -2.5122375l0 0c-0.46359253 0.27996826 -0.8455353 0.5928345 -1.1339264 0.9288635m-10.1445465 -0.3807373l0 0c-0.24705505 0.25430298 -0.43154907 0.5233917 -0.5492096 0.8010864m-12.371292 0.21911621l0 0c0.72132874 0.21681213 1.3886719 0.4777832 1.9873352 0.7771759m-17.436584 4.5070496l0 0c0.073410034 0.27682495 0.18937683 0.5502472 0.34683228 0.817688" fill-rule="evenodd"/><path fill="#000000" d="m173.67259 235.22845l-2.703125 0l0 -0.6875l0.9375 0l0 -2.484375q0 -0.859375 -0.359375 -1.203125q-0.359375 -0.359375 -0.90625 -0.359375q-0.703125 0 -1.140625 0.46875q-0.4375 0.46875 -0.453125 1.0625l0 2.515625l0.921875 0l0 0.6875l-2.703125 0l0 -0.6875l0.921875 0l0 -6.890625l-0.921875 0l0 -0.671875l1.78125 0l0 3.875q0.578125 -1.078125 1.875 -1.078125q0.765625 0 1.296875 0.484375q0.53125 0.484375 0.53125 1.546875l0 2.734375l0.921875 0l0 0.6875zm5.829422 -2.671875q0 1.203125 -0.734375 2.0q-0.71875 0.796875 -1.953125 0.796875q-1.203125 0 -1.90625 -0.765625q-0.6875 -0.78125 -0.6875 -1.984375q0 -1.171875 0.671875 -2.0q0.671875 -0.828125 1.96875 -0.828125q1.3125 0 1.96875 0.828125q0.671875 0.8125 0.671875 1.953125zm-0.890625 -0.015625q0 -0.90625 -0.46875 -1.46875q-0.453125 -0.578125 -1.296875 -0.578125q-0.84375 0 -1.296875 0.59375q-0.453125 0.578125 -0.453125 1.46875q0 0.875 0.4375 1.484375q0.453125 0.59375 1.3125 0.59375q0.84375 0 1.296875 -0.59375q0.46875 -0.59375 0.46875 -1.5zm6.1091614 1.140625q0 0.78125 -0.65625 1.234375q-0.640625 0.4375 -1.609375 0.4375q-0.5625 0 -1.125 -0.15625q-0.546875 -0.15625 -0.90625 -0.375l0.171875 -1.21875l0.671875 0.078125l-0.03125 0.703125q0.546875 0.265625 1.1875 0.265625q0.5625 0 1.0 -0.21875q0.4375 -0.21875 0.4375 -0.671875q0 -0.453125 -0.34375 -0.625q-0.328125 -0.1875 -0.828125 -0.265625q-0.5 -0.09375 -1.0 -0.203125q-0.5 -0.125 -0.84375 -0.421875q-0.328125 -0.296875 -0.328125 -0.921875q0 -0.84375 0.625 -1.1875q0.625 -0.359375 1.359375 -0.359375q0.546875 0 1.03125 0.15625q0.484375 0.140625 0.828125 0.34375l0.125 1.25l-0.6875 0.078125l-0.140625 -0.859375q-0.5 -0.265625 -1.09375 -0.265625q-0.5 0 -0.828125 0.1875q-0.328125 0.1875 -0.328125 0.609375q0 0.40625 0.328125 0.59375q0.34375 0.171875 0.828125 0.25q0.5 0.078125 0.984375 0.203125q0.5 0.109375 0.828125 0.421875q0.34375 0.296875 0.34375 0.9375zm4.8654175 0.109375q-0.21875 1.5625 -1.6875 1.5625q-0.8125 0 -1.234375 -0.453125q-0.421875 -0.46875 -0.421875 -1.25l0 -3.09375l-0.859375 0l0 -0.671875l0.859375 0l0 -1.71875l0.84375 0l0 1.71875l2.078125 0l0 0.671875l-2.078125 0l0 2.984375q0 0.484375 0.203125 0.78125q0.203125 0.296875 0.6875 0.296875q0.3125 0 0.578125 -0.1875q0.28125 -0.203125 0.390625 -0.84375l0.640625 0.203125z" fill-rule="nonzero"/><path fill="#000000" fill-opacity="0.0" d="m91.69554 51.27034l0 -25.35433" fill-rule="evenodd"/><path stroke="#000000" stroke-width="1.0" stroke-linejoin="round" stroke-linecap="butt" d="m91.69554 51.27034l0 -19.35433" fill-rule="evenodd"/><path fill="#000000" stroke="#000000" stroke-width="1.0" stroke-linecap="butt" d="m93.34727 31.91601l-1.6517258 -4.5380974l-1.6517334 4.5380974z" fill-rule="evenodd"/><path fill="#000000" fill-opacity="0.0" d="m254.07341 153.63518l0 -24.724411" fill-rule="evenodd"/><path stroke="#000000" stroke-width="1.0" stroke-linejoin="round" stroke-linecap="butt" d="m254.07341 153.63518l0 -18.724411" fill-rule="evenodd"/><path fill="#000000" stroke="#000000" stroke-width="1.0" stroke-linecap="butt" d="m255.72514 134.91077l-1.6517334 -4.538101l-1.6517334 4.538101z" fill-rule="evenodd"/></g></svg>