<svg version="1.1" viewBox="0.0 0.0 617.7979002624672 362.3569553805774" fill="none" stroke="none" stroke-linecap="square" stroke-miterlimit="10" xmlns:xlink="http://www.w3.org/1999/xlink" xmlns="http://www.w3.org/2000/svg"><clipPath id="p.0"><path d="m0 0l617.7979 0l0 362.35696l-617.7979 0l0 -362.35696z" clip-rule="nonzero"/></clipPath><g clip-path="url(#p.0)"><path fill="#000000" fill-opacity="0.0" d="m0 0l617.7979 0l0 362.35696l-617.7979 0z" fill-rule="evenodd"/><path fill="#f3f3f3" d="m15.820016 313.1506l152.28346 0l0 43.307068l-152.28346 0z" fill-rule="evenodd"/><path stroke="#000000" stroke-width="1.0" stroke-linejoin="round" stroke-linecap="butt" d="m15.820016 313.1506l152.28346 0l0 43.307068l-152.28346 0z" fill-rule="evenodd"/><path fill="#000000" d="m49.41127 337.33353q0 1.109375 -0.390625 2.171875q-0.375 1.046875 -1.203125 1.734375q-0.828125 0.671875 -2.1875 0.671875q-1.890625 0 -2.75 -1.40625l0 4.125l1.921875 0l0 1.0624695l-4.6875 0l0 -1.0624695l1.46875 0l0 -10.140625l-1.5 0l0 -1.0625l2.796875 0l0 1.734375q0.375 -0.75 1.078125 -1.328125q0.71875 -0.578125 1.875 -0.578125q1.609375 0 2.59375 1.078125q0.984375 1.078125 0.984375 3.0zm-1.375 0.125q0 -1.5 -0.734375 -2.28125q-0.71875 -0.796875 -1.796875 -0.796875q-1.125 0 -1.859375 0.890625q-0.71875 0.875 -0.765625 1.828125l0 1.234375q0 1.046875 0.734375 1.75q0.734375 0.703125 1.75 0.703125q1.40625 0 2.03125 -1.0q0.640625 -1.015625 0.640625 -2.328125zm3.6046906 -3.40625q0.65625 -0.421875 1.375 -0.609375q0.734375 -0.1875 1.546875 -0.1875q2.96875 0 2.96875 2.78125l0 3.953125q0 0.890625 0.703125 0.890625q0.328125 0 0.5625 -0.109375l0.015625 0.859375q-0.5 0.28125 -1.078125 0.28125q-1.46875 0 -1.515625 -1.6875l0 -0.03125q-0.390625 0.671875 -1.109375 1.203125q-0.71875 0.515625 -1.71875 0.515625q-0.828125 0 -1.671875 -0.5q-0.84375 -0.515625 -0.84375 -1.828125q0 -1.578125 1.234375 -2.0625q1.25 -0.5 2.640625 -0.5q0.375 0 0.75 0.015625q0.390625 0.015625 0.71875 0.0625l0 -0.75q0 -0.890625 -0.390625 -1.453125q-0.375 -0.5625 -1.484375 -0.5625q-0.921875 0 -1.609375 0.34375l-0.3125 1.4375l-1.078125 -0.140625l0.296875 -1.921875zm4.578125 4.5625l0 -0.640625q-0.34375 -0.015625 -0.734375 -0.046875q-0.390625 -0.046875 -0.8125 -0.046875q-0.921875 0 -1.6875 0.296875q-0.75 0.28125 -0.75 1.25q0 0.796875 0.5 1.109375q0.5 0.296875 1.046875 0.296875q0.859375 0 1.609375 -0.59375q0.765625 -0.609375 0.828125 -1.625zm8.214096 -5.34375q0.890625 0 1.421875 0.4375l0.3125 2.078125l-1.0625 0.140625l-0.3125 -1.421875q-0.328125 -0.109375 -0.640625 -0.109375q-0.71875 0 -1.203125 0.609375q-0.484375 0.59375 -0.484375 1.5625l0 4.09375l1.921875 0l0 1.0625l-4.6875 0l0 -1.0625l1.453125 0l0 -6.171875l-1.5 0l0 -1.0625l2.734375 0l0 1.484375q0.234375 -0.6875 0.78125 -1.15625q0.5625 -0.484375 1.265625 -0.484375zm10.648132 6.0625q-0.15625 1.0625 -1.0625 1.828125q-0.890625 0.75 -2.421875 0.75q-1.75 0 -2.84375 -1.09375q-1.078125 -1.109375 -1.078125 -3.125q0 -1.9375 1.03125 -3.1875q1.03125 -1.25 2.78125 -1.25q1.71875 0 2.609375 1.078125q0.890625 1.078125 0.921875 2.5625q0 0.484375 -0.125 0.984375l-5.828125 0q0.109375 2.90625 2.625 2.90625q0.984375 0 1.546875 -0.453125q0.5625 -0.46875 0.75 -1.234375l1.09375 0.234375zm-1.453125 -2.421875q0.09375 -0.9375 -0.4375 -1.75q-0.53125 -0.828125 -1.734375 -0.828125q-1.15625 0 -1.703125 0.765625q-0.546875 0.765625 -0.671875 1.8125l4.546875 0zm12.627808 4.8125l-4.1875 0l0 -1.0625l1.4375 0l0 -3.859375q0 -1.34375 -0.546875 -1.890625q-0.546875 -0.5625 -1.375 -0.5625q-1.125 0 -1.8125 0.75q-0.671875 0.734375 -0.703125 1.6875l0 3.875l1.453125 0l0 1.0625l-4.21875 0l0 -1.0625l1.453125 0l0 -6.171875l-1.5 0l0 -1.0625l2.8125 0l0 1.46875q0.890625 -1.640625 2.90625 -1.640625q1.203125 0 2.015625 0.75q0.828125 0.734375 0.828125 2.40625l0 4.25l1.4375 0l0 1.0625zm7.002533 -2.234375q-0.328125 2.421875 -2.625 2.421875q-1.25 0 -1.921875 -0.703125q-0.65625 -0.71875 -0.65625 -1.921875l0 -4.8125l-1.34375 0l0 -1.046875l1.34375 0l0 -2.671875l1.296875 0l0 2.671875l3.25 0l0 1.046875l-3.25 0l0 4.640625q0 0.75 0.328125 1.203125q0.328125 0.453125 1.078125 0.453125q0.484375 0 0.90625 -0.296875q0.421875 -0.296875 0.609375 -1.3125l0.984375 0.328125zm1.155838 2.234375l0 -2.015625l1.8125 0l0 2.015625l-1.8125 0zm16.180664 -7.234375l-0.953125 0l-2.453125 7.234375l-1.0 0l-2.546875 -6.34375l-0.078125 0l-2.484375 6.34375l-0.96875 0l-2.546875 -7.234375l-0.90625 0l0 -1.0625l3.90625 0l0 1.0625l-1.578125 0l1.734375 5.234375l0.09375 0l2.46875 -6.296875l0.875 0l2.59375 6.296875l0.09375 0l1.53125 -5.234375l-1.515625 0l0 -1.0625l3.734375 0l0 1.0625zm1.6969452 -0.4375q0.65625 -0.421875 1.375 -0.609375q0.734375 -0.1875 1.546875 -0.1875q2.96875 0 2.96875 2.78125l0 3.953125q0 0.890625 0.703125 0.890625q0.328125 0 0.5625 -0.109375l0.015625 0.859375q-0.5 0.28125 -1.078125 0.28125q-1.46875 0 -1.515625 -1.6875l0 -0.03125q-0.390625 0.671875 -1.109375 1.203125q-0.71875 0.515625 -1.71875 0.515625q-0.828125 0 -1.671875 -0.5q-0.84375 -0.515625 -0.84375 -1.828125q0 -1.578125 1.234375 -2.0625q1.25 -0.5 2.640625 -0.5q0.375 0 0.75 0.015625q0.390625 0.015625 0.71875 0.0625l0 -0.75q0 -0.890625 -0.390625 -1.453125q-0.375 -0.5625 -1.484375 -0.5625q-0.921875 0 -1.609375 0.34375l-0.3125 1.4375l-1.078125 -0.140625l0.296875 -1.921875zm4.578125 4.5625l0 -0.640625q-0.34375 -0.015625 -0.734375 -0.046875q-0.390625 -0.046875 -0.8125 -0.046875q-0.921875 0 -1.6875 0.296875q-0.75 0.28125 -0.75 1.25q0 0.796875 0.5 1.109375q0.5 0.296875 1.046875 0.296875q0.859375 0 1.609375 -0.59375q0.765625 -0.609375 0.828125 -1.625zm10.354721 0.703125q0 1.21875 -1.015625 1.90625q-1.015625 0.6875 -2.5 0.6875q-0.875 0 -1.75 -0.234375q-0.859375 -0.234375 -1.40625 -0.59375l0.265625 -1.875l1.046875 0.109375l-0.0625 1.09375q0.859375 0.421875 1.84375 0.421875q0.875 0 1.546875 -0.34375q0.6875 -0.34375 0.6875 -1.0625q0 -0.6875 -0.515625 -0.96875q-0.515625 -0.28125 -1.296875 -0.40625q-0.78125 -0.140625 -1.5625 -0.3125q-0.78125 -0.1875 -1.3125 -0.640625q-0.515625 -0.46875 -0.515625 -1.4375q0 -1.328125 0.96875 -1.859375q0.96875 -0.546875 2.109375 -0.546875q0.859375 0 1.609375 0.234375q0.765625 0.21875 1.28125 0.53125l0.21875 1.9375l-1.09375 0.125l-0.203125 -1.34375q-0.78125 -0.40625 -1.703125 -0.40625q-0.78125 0 -1.28125 0.296875q-0.5 0.296875 -0.5 0.9375q0 0.65625 0.515625 0.921875q0.53125 0.265625 1.296875 0.390625q0.765625 0.125 1.53125 0.3125q0.765625 0.1875 1.28125 0.671875q0.515625 0.46875 0.515625 1.453125zm16.671432 2.40625l-3.984375 0l0 -1.0625l1.21875 0l0 -3.859375q0 -1.34375 -0.53125 -1.890625q-0.53125 -0.5625 -1.359375 -0.5625q-1.125 0 -1.75 0.859375q-0.609375 0.859375 -0.625 1.640625l0 3.8125l1.421875 0l0 1.0625l-3.953125 0l0 -1.0625l1.203125 0l0 -3.859375q0 -1.359375 -0.53125 -1.90625q-0.515625 -0.546875 -1.3125 -0.546875q-1.15625 0 -1.765625 0.84375q-0.609375 0.828125 -0.640625 1.625l0 3.84375l1.515625 0l0 1.0625l-4.28125 0l0 -1.0625l1.453125 0l0 -6.171875l-1.46875 0l0 -1.0625l2.78125 0l0 1.546875q0.40625 -0.75 1.09375 -1.234375q0.6875 -0.484375 1.671875 -0.484375q0.984375 0 1.6875 0.484375q0.71875 0.484375 0.984375 1.515625q0.375 -0.875 1.109375 -1.4375q0.734375 -0.5625 1.828125 -0.5625q1.1875 0 1.984375 0.75q0.796875 0.734375 0.796875 2.40625l0 4.25l1.453125 0l0 1.0625z" fill-rule="nonzero"/><path fill="#f3f3f3" d="m15.553806 108.426186l152.28346 0l0 43.30709l-152.28346 0z" fill-rule="evenodd"/><path stroke="#000000" stroke-width="1.0" stroke-linejoin="round" stroke-linecap="butt" d="m15.553806 108.426186l152.28346 0l0 43.30709l-152.28346 0z" fill-rule="evenodd"/><path fill="#000000" d="m29.117855 130.9814q0.65625 -0.421875 1.375 -0.609375q0.734375 -0.1875 1.546875 -0.1875q2.96875 0 2.96875 2.78125l0 3.953125q0 0.890625 0.703125 0.890625q0.328125 0 0.5625 -0.109375l0.015625 0.859375q-0.5 0.28125 -1.078125 0.28125q-1.46875 0 -1.515625 -1.6875l0 -0.03125q-0.390625 0.671875 -1.109375 1.203125q-0.71875 0.515625 -1.71875 0.515625q-0.828125 0 -1.671875 -0.5q-0.84375 -0.515625 -0.84375 -1.828125q0 -1.578125 1.234375 -2.0625q1.25 -0.5 2.640625 -0.5q0.375 0 0.75 0.015625q0.390625 0.015625 0.71875 0.0625l0 -0.75q0 -0.890625 -0.390625 -1.453125q-0.375 -0.5625 -1.484375 -0.5625q-0.921875 0 -1.609375 0.34375l-0.3125 1.4375l-1.078125 -0.140625l0.296875 -1.921875zm4.578125 4.5625l0 -0.640625q-0.34375 -0.015625 -0.734375 -0.046875q-0.390625 -0.046875 -0.8125 -0.046875q-0.921875 0 -1.6875 0.296875q-0.75 0.28125 -0.75 1.25q0 0.796875 0.5 1.109375q0.5 0.296875 1.046875 0.296875q0.859375 0 1.609375 -0.59375q0.765625 -0.609375 0.828125 -1.625zm9.745346 0.875q-0.328125 2.421875 -2.625 2.421875q-1.25 0 -1.921875 -0.703125q-0.65625 -0.71875 -0.65625 -1.921875l0 -4.8125l-1.34375 0l0 -1.046875l1.34375 0l0 -2.671875l1.296875 0l0 2.671875l3.25 0l0 1.046875l-3.25 0l0 4.640625q0 0.75 0.328125 1.203125q0.328125 0.453125 1.078125 0.453125q0.484375 0 0.90625 -0.296875q0.421875 -0.296875 0.609375 -1.3125l0.984375 0.328125zm6.921463 0q-0.328125 2.421875 -2.625 2.421875q-1.25 0 -1.921875 -0.703125q-0.65625 -0.71875 -0.65625 -1.921875l0 -4.8125l-1.34375 0l0 -1.046875l1.34375 0l0 -2.671875l1.296875 0l0 2.671875l3.25 0l0 1.046875l-3.25 0l0 4.640625q0 0.75 0.328125 1.203125q0.328125 0.453125 1.078125 0.453125q0.484375 0 0.90625 -0.296875q0.421875 -0.296875 0.609375 -1.3125l0.984375 0.328125zm8.202713 -0.15625q-0.15625 1.0625 -1.0625 1.828125q-0.890625 0.75 -2.421875 0.75q-1.75 0 -2.84375 -1.09375q-1.078125 -1.109375 -1.078125 -3.125q0 -1.9375 1.03125 -3.1875q1.03125 -1.25 2.78125 -1.25q1.71875 0 2.609375 1.078125q0.890625 1.078125 0.921875 2.5625q0 0.484375 -0.125 0.984375l-5.828125 0q0.109375 2.90625 2.625 2.90625q0.984375 0 1.546875 -0.453125q0.5625 -0.46875 0.75 -1.234375l1.09375 0.234375zm-1.453125 -2.421875q0.09375 -0.9375 -0.4375 -1.75q-0.53125 -0.828125 -1.734375 -0.828125q-1.15625 0 -1.703125 0.765625q-0.546875 0.765625 -0.671875 1.8125l4.546875 0zm12.627804 4.8125l-4.1875 0l0 -1.0625l1.4375 0l0 -3.859375q0 -1.34375 -0.546875 -1.890625q-0.546875 -0.5625 -1.375 -0.5625q-1.1249962 0 -1.8124962 0.75q-0.671875 0.734375 -0.703125 1.6875l0 3.875l1.4531212 0l0 1.0625l-4.218746 0l0 -1.0625l1.453125 0l0 -6.171875l-1.5 0l0 -1.0625l2.8125 0l0 1.46875q0.890625 -1.640625 2.9062462 -1.640625q1.203125 0 2.015625 0.75q0.828125 0.734375 0.828125 2.40625l0 4.25l1.4375 0l0 1.0625zm10.361908 0l-2.796875 0l0 -1.5625q-0.390625 0.78125 -1.15625 1.265625q-0.75 0.484375 -1.734375 0.484375q-1.21875 0 -2.046875 -0.75q-0.828125 -0.765625 -0.828125 -2.421875l0 -4.25l-1.453125 0l0 -1.0625l2.75 0l0 4.9375q0 1.34375 0.5625 1.890625q0.5625 0.53125 1.4375 0.53125q1.0625 0 1.734375 -0.796875q0.6875 -0.796875 0.734375 -1.703125l0 -3.796875l-1.734375 0l0 -1.0625l3.03125 0l0 7.234375l1.5 0l0 1.0625zm1.794281 -7.671875q0.65625 -0.421875 1.375 -0.609375q0.734375 -0.1875 1.546875 -0.1875q2.96875 0 2.96875 2.78125l0 3.953125q0 0.890625 0.703125 0.890625q0.328125 0 0.5625 -0.109375l0.015625 0.859375q-0.5 0.28125 -1.078125 0.28125q-1.46875 0 -1.515625 -1.6875l0 -0.03125q-0.390625 0.671875 -1.109375 1.203125q-0.71875 0.515625 -1.71875 0.515625q-0.828125 0 -1.671875 -0.5q-0.84375 -0.515625 -0.84375 -1.828125q0 -1.578125 1.234375 -2.0625q1.25 -0.5 2.640625 -0.5q0.375 0 0.75 0.015625q0.390625 0.015625 0.71875 0.0625l0 -0.75q0 -0.890625 -0.390625 -1.453125q-0.375 -0.5625 -1.484375 -0.5625q-0.921875 0 -1.609375 0.34375l-0.3125 1.4375l-1.078125 -0.140625l0.296875 -1.921875zm4.578125 4.5625l0 -0.640625q-0.34375 -0.015625 -0.734375 -0.046875q-0.390625 -0.046875 -0.8125 -0.046875q-0.921875 0 -1.6875 0.296875q-0.75 0.28125 -0.75 1.25q0 0.796875 0.5 1.109375q0.5 0.296875 1.046875 0.296875q0.859375 0 1.609375 -0.59375q0.765625 -0.609375 0.828125 -1.625zm9.745346 0.875q-0.328125 2.421875 -2.625 2.421875q-1.25 0 -1.921875 -0.703125q-0.65625 -0.71875 -0.65625 -1.921875l0 -4.8125l-1.34375 0l0 -1.046875l1.34375 0l0 -2.671875l1.296875 0l0 2.671875l3.25 0l0 1.046875l-3.25 0l0 4.640625q0 0.75 0.328125 1.203125q0.328125 0.453125 1.078125 0.453125q0.484375 0 0.90625 -0.296875q0.421875 -0.296875 0.609375 -1.3125l0.984375 0.328125zm8.202713 -0.15625q-0.15625 1.0625 -1.0625 1.828125q-0.890625 0.75 -2.421875 0.75q-1.75 0 -2.84375 -1.09375q-1.078125 -1.109375 -1.078125 -3.125q0 -1.9375 1.03125 -3.1875q1.03125 -1.25 2.78125 -1.25q1.71875 0 2.609375 1.078125q0.890625 1.078125 0.921875 2.5625q0 0.484375 -0.125 0.984375l-5.828125 0q0.109375 2.90625 2.625 2.90625q0.984375 0 1.546875 -0.453125q0.5625 -0.46875 0.75 -1.234375l1.09375 0.234375zm-1.453125 -2.421875q0.09375 -0.9375 -0.4375 -1.75q-0.53125 -0.828125 -1.734375 -0.828125q-1.15625 0 -1.703125 0.765625q-0.546875 0.765625 -0.671875 1.8125l4.546875 0zm3.1746826 4.8125l0 -2.015625l1.8125 0l0 2.015625l-1.8125 0zm16.180664 -7.234375l-0.953125 0l-2.453125 7.234375l-1.0 0l-2.546875 -6.34375l-0.078125 0l-2.484375 6.34375l-0.96875 0l-2.546875 -7.234375l-0.90625 0l0 -1.0625l3.90625 0l0 1.0625l-1.578125 0l1.734375 5.234375l0.09375 0l2.46875 -6.296875l0.875 0l2.59375 6.296875l0.09375 0l1.53125 -5.234375l-1.515625 0l0 -1.0625l3.734375 0l0 1.0625zm1.6969452 -0.4375q0.65625 -0.421875 1.375 -0.609375q0.734375 -0.1875 1.546875 -0.1875q2.9687576 0 2.9687576 2.78125l0 3.953125q0 0.890625 0.703125 0.890625q0.328125 0 0.5625 -0.109375l0.015625 0.859375q-0.5 0.28125 -1.078125 0.28125q-1.46875 0 -1.515625 -1.6875l0 -0.03125q-0.390625 0.671875 -1.1093826 1.203125q-0.71875 0.515625 -1.71875 0.515625q-0.828125 0 -1.671875 -0.5q-0.84375 -0.515625 -0.84375 -1.828125q0 -1.578125 1.234375 -2.0625q1.25 -0.5 2.640625 -0.5q0.375 0 0.75 0.015625q0.39063263 0.015625 0.7187576 0.0625l0 -0.75q0 -0.890625 -0.390625 -1.453125q-0.37500763 -0.5625 -1.4843826 -0.5625q-0.921875 0 -1.609375 0.34375l-0.3125 1.4375l-1.078125 -0.140625l0.296875 -1.921875zm4.5781326 4.5625l0 -0.640625q-0.34375 -0.015625 -0.7343826 -0.046875q-0.390625 -0.046875 -0.8125 -0.046875q-0.921875 0 -1.6875 0.296875q-0.75 0.28125 -0.75 1.25q0 0.796875 0.5 1.109375q0.5 0.296875 1.046875 0.296875q0.859375 0 1.609375 -0.59375q0.7656326 -0.609375 0.8281326 -1.625zm10.354721 0.703125q0 1.21875 -1.015625 1.90625q-1.015625 0.6875 -2.5 0.6875q-0.875 0 -1.75 -0.234375q-0.859375 -0.234375 -1.40625 -0.59375l0.265625 -1.875l1.046875 0.109375l-0.0625 1.09375q0.859375 0.421875 1.84375 0.421875q0.875 0 1.546875 -0.34375q0.6875 -0.34375 0.6875 -1.0625q0 -0.6875 -0.515625 -0.96875q-0.515625 -0.28125 -1.296875 -0.40625q-0.78125 -0.140625 -1.5625 -0.3125q-0.78125 -0.1875 -1.3125 -0.640625q-0.515625 -0.46875 -0.515625 -1.4375q0 -1.328125 0.96875 -1.859375q0.96875 -0.546875 2.109375 -0.546875q0.859375 0 1.609375 0.234375q0.765625 0.21875 1.28125 0.53125l0.21875 1.9375l-1.09375 0.125l-0.203125 -1.34375q-0.78125 -0.40625 -1.703125 -0.40625q-0.78125 0 -1.28125 0.296875q-0.5 0.296875 -0.5 0.9375q0 0.65625 0.515625 0.921875q0.53125 0.265625 1.296875 0.390625q0.765625 0.125 1.53125 0.3125q0.765625 0.1875 1.28125 0.671875q0.515625 0.46875 0.515625 1.453125zm16.671432 2.40625l-3.984375 0l0 -1.0625l1.21875 0l0 -3.859375q0 -1.34375 -0.53125 -1.890625q-0.53125 -0.5625 -1.359375 -0.5625q-1.125 0 -1.75 0.859375q-0.609375 0.859375 -0.625 1.640625l0 3.8125l1.421875 0l0 1.0625l-3.953125 0l0 -1.0625l1.203125 0l0 -3.859375q0 -1.359375 -0.53125 -1.90625q-0.515625 -0.546875 -1.3125 -0.546875q-1.15625 0 -1.765625 0.84375q-0.609375 0.828125 -0.640625 1.625l0 3.84375l1.515625 0l0 1.0625l-4.28125 0l0 -1.0625l1.453125 0l0 -6.171875l-1.46875 0l0 -1.0625l2.78125 0l0 1.546875q0.40625 -0.75 1.09375 -1.234375q0.6875 -0.484375 1.671875 -0.484375q0.984375 0 1.6875 0.484375q0.71875 0.484375 0.984375 1.515625q0.375 -0.875 1.109375 -1.4375q0.734375 -0.5625 1.828125 -0.5625q1.1875 0 1.984375 0.75q0.796875 0.734375 0.796875 2.40625l0 4.25l1.453125 0l0 1.0625z" fill-rule="nonzero"/><path fill="#000000" fill-opacity="0.0" d="m91.69554 313.9065l0 -162.17322" fill-rule="evenodd"/><path stroke="#000000" stroke-width="1.0" stroke-linejoin="round" stroke-linecap="butt" d="m91.69554 313.9065l0 -156.17322" fill-rule="evenodd"/><path fill="#000000" stroke="#000000" stroke-width="1.0" stroke-linecap="butt" d="m93.34727 157.73328l-1.6517258 -4.538101l-1.6517334 4.538101z" fill-rule="evenodd"/><path fill="#f3f3f3" d="m113.93169 210.79102l152.28346 0l0 43.307083l-152.28346 0z" fill-rule="evenodd"/><path stroke="#000000" stroke-width="1.0" stroke-linejoin="round" stroke-linecap="butt" d="m113.93169 210.79102l152.28346 0l0 43.307083l-152.28346 0z" fill-rule="evenodd"/><path fill="#000000" d="m152.95653 238.22122q-0.171875 1.078125 -0.984375 2.03125q-0.8125 0.953125 -2.515625 0.953125q-1.71875 0 -2.75 -1.109375q-1.03125 -1.109375 -1.03125 -3.109375q0 -1.71875 0.96875 -3.078125q0.984375 -1.359375 2.921875 -1.359375q0.8125 0 1.5 0.1875q0.703125 0.1875 1.328125 0.671875l0.328125 2.0l-1.09375 0.125l-0.3125 -1.40625q-0.75 -0.453125 -1.765625 -0.453125q-1.328125 0 -1.90625 0.953125q-0.578125 0.9375 -0.578125 2.28125q0 1.5 0.640625 2.34375q0.65625 0.828125 1.890625 0.828125q1.875 0 2.234375 -2.109375l1.125 0.25zm10.916061 2.796875l-4.21875 0l0 -1.0625l1.453125 0l0 -3.859375q0 -1.34375 -0.546875 -1.890625q-0.546875 -0.5625 -1.40625 -0.5625q-1.078125 0 -1.765625 0.75q-0.6875 0.734375 -0.71875 1.640625l0 3.921875l1.4375 0l0 1.0625l-4.203125 0l0 -1.0625l1.4375 0l0 -10.703125l-1.4375 0l0 -1.0625l2.765625 0l0 6.015625q0.921875 -1.65625 2.90625 -1.65625q1.21875 0 2.03125 0.75q0.828125 0.734375 0.828125 2.40625l0 4.25l1.4375 0l0 1.0625zm2.1193848 -10.453125l0 -1.6875l1.421875 0l0 1.6875l-1.421875 0zm2.890625 10.453125l-4.203125 0l0 -1.0625l1.453125 0l0 -6.171875l-1.5 0l0 -1.0625l2.796875 0l0 7.234375l1.453125 0l0 1.0625zm4.973755 0l-4.21875 0l0 -1.0625l1.453125 0l0 -10.703125l-1.46875 0l0 -1.0625l2.78125 0l0 11.765625l1.453125 0l0 1.0625zm10.353195 0l-2.75 0l0 -1.671875q-0.40625 0.734375 -1.125 1.296875q-0.703125 0.5625 -1.84375 0.5625q-1.59375 0 -2.578125 -1.09375q-0.984375 -1.09375 -0.984375 -3.03125q0 -1.65625 0.859375 -3.09375q0.859375 -1.4375 2.890625 -1.4375q1.953125 0 2.78125 1.515625l0 -4.8125l-2.015625 0l0 -1.0625l3.328125 0l0 11.765625l1.4375 0l0 1.0625zm-2.75 -3.671875l0 -1.328125q-0.03125 -1.046875 -0.765625 -1.6875q-0.71875 -0.65625 -1.71875 -0.65625q-1.375 0 -2.015625 1.015625q-0.640625 1.0 -0.640625 2.296875q0 1.53125 0.71875 2.3125q0.71875 0.78125 1.796875 0.78125q1.125 0 1.859375 -0.90625q0.734375 -0.90625 0.765625 -1.828125zm4.070404 3.671875l0 -2.015625l1.8125 0l0 2.015625l-1.8125 0zm16.180664 -7.234375l-0.953125 0l-2.453125 7.234375l-1.0 0l-2.546875 -6.34375l-0.078125 0l-2.484375 6.34375l-0.96875 0l-2.546875 -7.234375l-0.90625 0l0 -1.0625l3.90625 0l0 1.0625l-1.578125 0l1.734375 5.234375l0.09375 0l2.46875 -6.296875l0.875 0l2.59375 6.296875l0.09375 0l1.53125 -5.234375l-1.515625 0l0 -1.0625l3.734375 0l0 1.0625zm1.6969452 -0.4375q0.65625 -0.421875 1.375 -0.609375q0.734375 -0.1875 1.546875 -0.1875q2.96875 0 2.96875 2.78125l0 3.953125q0 0.890625 0.703125 0.890625q0.328125 0 0.5625 -0.109375l0.015625 0.859375q-0.5 0.28125 -1.078125 0.28125q-1.46875 0 -1.515625 -1.6875l0 -0.03125q-0.390625 0.671875 -1.109375 1.203125q-0.71875 0.515625 -1.71875 0.515625q-0.828125 0 -1.671875 -0.5q-0.84375 -0.515625 -0.84375 -1.828125q0 -1.578125 1.234375 -2.0625q1.25 -0.5 2.640625 -0.5q0.375 0 0.75 0.015625q0.390625 0.015625 0.71875 0.0625l0 -0.75q0 -0.890625 -0.390625 -1.453125q-0.375 -0.5625 -1.484375 -0.5625q-0.921875 0 -1.609375 0.34375l-0.3125 1.4375l-1.078125 -0.140625l0.296875 -1.921875zm4.578125 4.5625l0 -0.640625q-0.34375 -0.015625 -0.734375 -0.046875q-0.390625 -0.046875 -0.8125 -0.046875q-0.921875 0 -1.6875 0.296875q-0.75 0.28125 -0.75 1.25q0 0.796875 0.5 1.109375q0.5 0.296875 1.046875 0.296875q0.859375 0 1.609375 -0.59375q0.765625 -0.609375 0.828125 -1.625zm10.354721 0.703125q0 1.21875 -1.015625 1.90625q-1.015625 0.6875 -2.5 0.6875q-0.875 0 -1.75 -0.234375q-0.859375 -0.234375 -1.40625 -0.59375l0.265625 -1.875l1.046875 0.109375l-0.0625 1.09375q0.859375 0.421875 1.84375 0.421875q0.875 0 1.546875 -0.34375q0.6875 -0.34375 0.6875 -1.0625q0 -0.6875 -0.515625 -0.96875q-0.515625 -0.28125 -1.296875 -0.40625q-0.78125 -0.140625 -1.5625 -0.3125q-0.78125 -0.1875 -1.3125 -0.640625q-0.515625 -0.46875 -0.515625 -1.4375q0 -1.328125 0.96875 -1.859375q0.96875 -0.546875 2.109375 -0.546875q0.859375 0 1.609375 0.234375q0.765625 0.21875 1.28125 0.53125l0.21875 1.9375l-1.09375 0.125l-0.203125 -1.34375q-0.78125 -0.40625 -1.703125 -0.40625q-0.78125 0 -1.28125 0.296875q-0.5 0.296875 -0.5 0.9375q0 0.65625 0.515625 0.921875q0.53125 0.265625 1.296875 0.390625q0.765625 0.125 1.53125 0.3125q0.765625 0.1875 1.28125 0.671875q0.515625 0.46875 0.515625 1.453125zm16.671432 2.40625l-3.984375 0l0 -1.0625l1.21875 0l0 -3.859375q0 -1.34375 -0.53125 -1.890625q-0.53125 -0.5625 -1.359375 -0.5625q-1.125 0 -1.75 0.859375q-0.609375 0.859375 -0.625 1.640625l0 3.8125l1.421875 0l0 1.0625l-3.953125 0l0 -1.0625l1.203125 0l0 -3.859375q0 -1.359375 -0.53125 -1.90625q-0.515625 -0.546875 -1.3125 -0.546875q-1.15625 0 -1.765625 0.84375q-0.609375 0.828125 -0.640625 1.625l0 3.84375l1.515625 0l0 1.0625l-4.28125 0l0 -1.0625l1.453125 0l0 -6.171875l-1.46875 0l0 -1.0625l2.78125 0l0 1.546875q0.40625 -0.75 1.09375 -1.234375q0.6875 -0.484375 1.671875 -0.484375q0.984375 0 1.6875 0.484375q0.71875 0.484375 0.984375 1.515625q0.375 -0.875 1.109375 -1.4375q0.734375 -0.5625 1.828125 -0.5625q1.1875 0 1.984375 0.75q0.796875 0.734375 0.796875 2.40625l0 4.25l1.453125 0l0 1.0625z" fill-rule="nonzero"/><path fill="#000000" fill-opacity="0.0" d="m128.08916 313.3107l61.984253 -59.2126" fill-rule="evenodd"/><path stroke="#000000" stroke-width="1.0" stroke-linejoin="round" stroke-linecap="butt" d="m128.08917 313.3107l57.64572 -55.068054" fill-rule="evenodd"/><path fill="#000000" stroke="#000000" stroke-width="1.0" stroke-linecap="butt" d="m186.87582 259.43698l2.140503 -4.329071l-4.422394 1.9403687z" fill-rule="evenodd"/><path fill="#cfe2f3" d="m392.49344 115.64418l0 0c0 -3.9863892 3.231598 -7.2179947 7.217987 -7.2179947l160.61914 0c1.9143066 0 3.7502441 0.7604675 5.103882 2.1141052c1.3536377 1.3536301 2.1141357 3.18956 2.1141357 5.1038895l0 28.871094c0 3.9863892 -3.2316284 7.2180023 -7.2180176 7.2180023l-160.61914 0c-3.9863892 0 -7.217987 -3.2316132 -7.217987 -7.2180023z" fill-rule="evenodd"/><path stroke="#000000" stroke-width="1.0" stroke-linejoin="round" stroke-linecap="butt" d="m392.49344 115.64418l0 0c0 -3.9863892 3.231598 -7.2179947 7.217987 -7.2179947l160.61914 0c1.9143066 0 3.7502441 0.7604675 5.103882 2.1141052c1.3536377 1.3536301 2.1141357 3.18956 2.1141357 5.1038895l0 28.871094c0 3.9863892 -3.2316284 7.2180023 -7.2180176 7.2180023l-160.61914 0c-3.9863892 0 -7.217987 -3.2316132 -7.217987 -7.2180023z" fill-rule="evenodd"/><path fill="#000000" d="m406.6318 129.32785q0.65625 -0.421875 1.375 -0.609375q0.734375 -0.1875 1.546875 -0.1875q2.96875 0 2.96875 2.78125l0 3.953125q0 0.890625 0.703125 0.890625q0.328125 0 0.5625 -0.109375l0.015625 0.859375q-0.5 0.28125 -1.078125 0.28125q-1.46875 0 -1.515625 -1.6875l0 -0.03125q-0.390625 0.671875 -1.109375 1.203125q-0.71875 0.515625 -1.71875 0.515625q-0.828125 0 -1.671875 -0.5q-0.84375 -0.515625 -0.84375 -1.828125q0 -1.578125 1.234375 -2.0625q1.25 -0.5 2.640625 -0.5q0.375 0 0.75 0.015625q0.390625 0.015625 0.71875 0.0625l0 -0.75q0 -0.890625 -0.390625 -1.453125q-0.375 -0.5625 -1.484375 -0.5625q-0.921875 0 -1.609375 0.34375l-0.3125 1.4375l-1.078125 -0.140625l0.296875 -1.921875zm4.578125 4.5625l0 -0.640625q-0.34375 -0.015625 -0.734375 -0.046875q-0.390625 -0.046875 -0.8125 -0.046875q-0.921875 0 -1.6875 0.296875q-0.75 0.28125 -0.75 1.25q0 0.796875 0.5 1.109375q0.5 0.296875 1.046875 0.296875q0.859375 0 1.609375 -0.59375q0.765625 -0.609375 0.828125 -1.625zm9.745331 0.875q-0.328125 2.421875 -2.625 2.421875q-1.25 0 -1.921875 -0.703125q-0.65625 -0.71875 -0.65625 -1.921875l0 -4.8125l-1.34375 0l0 -1.046875l1.34375 0l0 -2.671875l1.296875 0l0 2.671875l3.25 0l0 1.046875l-3.25 0l0 4.640625q0 0.75 0.328125 1.203125q0.328125 0.453125 1.078125 0.453125q0.484375 0 0.90625 -0.296875q0.421875 -0.296875 0.609375 -1.3125l0.984375 0.328125zm6.9214783 0q-0.328125 2.421875 -2.625 2.421875q-1.25 0 -1.921875 -0.703125q-0.65625 -0.71875 -0.65625 -1.921875l0 -4.8125l-1.34375 0l0 -1.046875l1.34375 0l0 -2.671875l1.296875 0l0 2.671875l3.25 0l0 1.046875l-3.25 0l0 4.640625q0 0.75 0.328125 1.203125q0.328125 0.453125 1.078125 0.453125q0.484375 0 0.90625 -0.296875q0.421875 -0.296875 0.609375 -1.3125l0.984375 0.328125zm8.202698 -0.15625q-0.15625 1.0625 -1.0625 1.828125q-0.890625 0.75 -2.421875 0.75q-1.75 0 -2.84375 -1.09375q-1.078125 -1.109375 -1.078125 -3.125q0 -1.9375 1.03125 -3.1875q1.03125 -1.25 2.78125 -1.25q1.71875 0 2.609375 1.078125q0.890625 1.078125 0.921875 2.5625q0 0.484375 -0.125 0.984375l-5.828125 0q0.109375 2.90625 2.625 2.90625q0.984375 0 1.546875 -0.453125q0.5625 -0.46875 0.75 -1.234375l1.09375 0.234375zm-1.453125 -2.421875q0.09375 -0.9375 -0.4375 -1.75q-0.53125 -0.828125 -1.734375 -0.828125q-1.15625 0 -1.703125 0.765625q-0.546875 0.765625 -0.671875 1.8125l4.546875 0zm12.627808 4.8125l-4.1875 0l0 -1.0625l1.4375 0l0 -3.859375q0 -1.34375 -0.546875 -1.890625q-0.546875 -0.5625 -1.375 -0.5625q-1.125 0 -1.8125 0.75q-0.671875 0.734375 -0.703125 1.6875l0 3.875l1.453125 0l0 1.0625l-4.21875 0l0 -1.0625l1.453125 0l0 -6.171875l-1.5 0l0 -1.0625l2.8125 0l0 1.46875q0.890625 -1.640625 2.90625 -1.640625q1.203125 0 2.015625 0.75q0.828125 0.734375 0.828125 2.40625l0 4.25l1.4375 0l0 1.0625zm10.361908 0l-2.796875 0l0 -1.5625q-0.390625 0.78125 -1.15625 1.265625q-0.75 0.484375 -1.734375 0.484375q-1.21875 0 -2.046875 -0.75q-0.828125 -0.765625 -0.828125 -2.421875l0 -4.25l-1.453125 0l0 -1.0625l2.75 0l0 4.9375q0 1.34375 0.5625 1.890625q0.5625 0.53125 1.4375 0.53125q1.0625 0 1.734375 -0.796875q0.6875 -0.796875 0.734375 -1.703125l0 -3.796875l-1.734375 0l0 -1.0625l3.03125 0l0 7.234375l1.5 0l0 1.0625zm1.794281 -7.671875q0.65625 -0.421875 1.375 -0.609375q0.734375 -0.1875 1.546875 -0.1875q2.96875 0 2.96875 2.78125l0 3.953125q0 0.890625 0.703125 0.890625q0.328125 0 0.5625 -0.109375l0.015625 0.859375q-0.5 0.28125 -1.078125 0.28125q-1.46875 0 -1.515625 -1.6875l0 -0.03125q-0.390625 0.671875 -1.109375 1.203125q-0.71875 0.515625 -1.71875 0.515625q-0.828125 0 -1.671875 -0.5q-0.84375 -0.515625 -0.84375 -1.828125q0 -1.578125 1.234375 -2.0625q1.25 -0.5 2.640625 -0.5q0.375 0 0.75 0.015625q0.390625 0.015625 0.71875 0.0625l0 -0.75q0 -0.890625 -0.390625 -1.453125q-0.375 -0.5625 -1.484375 -0.5625q-0.921875 0 -1.609375 0.34375l-0.3125 1.4375l-1.078125 -0.140625l0.296875 -1.921875zm4.578125 4.5625l0 -0.640625q-0.34375 -0.015625 -0.734375 -0.046875q-0.390625 -0.046875 -0.8125 -0.046875q-0.921875 0 -1.6875 0.296875q-0.75 0.28125 -0.75 1.25q0 0.796875 0.5 1.109375q0.5 0.296875 1.046875 0.296875q0.859375 0 1.609375 -0.59375q0.765625 -0.609375 0.828125 -1.625zm9.745361 0.875q-0.328125 2.421875 -2.625 2.421875q-1.25 0 -1.921875 -0.703125q-0.65625 -0.71875 -0.65625 -1.921875l0 -4.8125l-1.34375 0l0 -1.046875l1.34375 0l0 -2.671875l1.296875 0l0 2.671875l3.25 0l0 1.046875l-3.25 0l0 4.640625q0 0.75 0.328125 1.203125q0.328125 0.453125 1.078125 0.453125q0.484375 0 0.90625 -0.296875q0.421875 -0.296875 0.609375 -1.3125l0.984375 0.328125zm8.202698 -0.15625q-0.15625 1.0625 -1.0625 1.828125q-0.890625 0.75 -2.421875 0.75q-1.75 0 -2.84375 -1.09375q-1.078125 -1.109375 -1.078125 -3.125q0 -1.9375 1.03125 -3.1875q1.03125 -1.25 2.78125 -1.25q1.71875 0 2.609375 1.078125q0.890625 1.078125 0.921875 2.5625q0 0.484375 -0.125 0.984375l-5.828125 0q0.109375 2.90625 2.625 2.90625q0.984375 0 1.546875 -0.453125q0.5625 -0.46875 0.75 -1.234375l1.09375 0.234375zm-1.453125 -2.421875q0.09375 -0.9375 -0.4375 -1.75q-0.53125 -0.828125 -1.734375 -0.828125q-1.15625 0 -1.703125 0.765625q-0.546875 0.765625 -0.671875 1.8125l4.546875 0zm8.300293 -5.640625l0 -1.6875l1.421875 0l0 1.6875l-1.421875 0zm2.890625 10.453125l-4.203125 0l0 -1.0625l1.453125 0l0 -6.171875l-1.5 0l0 -1.0625l2.796875 0l0 7.234375l1.453125 0l0 1.0625zm10.89563 0l-4.1875 0l0 -1.0625l1.4375 0l0 -3.859375q0 -1.34375 -0.546875 -1.890625q-0.546875 -0.5625 -1.375 -0.5625q-1.125 0 -1.8125 0.75q-0.671875 0.734375 -0.703125 1.6875l0 3.875l1.453125 0l0 1.0625l-4.21875 0l0 -1.0625l1.453125 0l0 -6.171875l-1.5 0l0 -1.0625l2.8125 0l0 1.46875q0.890625 -1.640625 2.90625 -1.640625q1.203125 0 2.015625 0.75q0.828125 0.734375 0.828125 2.40625l0 4.25l1.4375 0l0 1.0625zm7.611908 -2.40625q0 1.21875 -1.015625 1.90625q-1.015625 0.6875 -2.5 0.6875q-0.875 0 -1.75 -0.234375q-0.859375 -0.234375 -1.40625 -0.59375l0.265625 -1.875l1.046875 0.109375l-0.0625 1.09375q0.859375 0.421875 1.84375 0.421875q0.875 0 1.546875 -0.34375q0.6875 -0.34375 0.6875 -1.0625q0 -0.6875 -0.515625 -0.96875q-0.515625 -0.28125 -1.296875 -0.40625q-0.78125 -0.140625 -1.5625 -0.3125q-0.78125 -0.1875 -1.3125 -0.640625q-0.515625 -0.46875 -0.515625 -1.4375q0 -1.328125 0.96875 -1.859375q0.96875 -0.546875 2.109375 -0.546875q0.859375 0 1.609375 0.234375q0.765625 0.21875 1.28125 0.53125l0.21875 1.9375l-1.09375 0.125l-0.203125 -1.34375q-0.78125 -0.40625 -1.703125 -0.40625q-0.78125 0 -1.28125 0.296875q-0.5 0.296875 -0.5 0.9375q0 0.65625 0.515625 0.921875q0.53125 0.265625 1.296875 0.390625q0.765625 0.125 1.53125 0.3125q0.765625 0.1875 1.28125 0.671875q0.515625 0.46875 0.515625 1.453125zm7.5620728 0.171875q-0.328125 2.421875 -2.625 2.421875q-1.25 0 -1.921875 -0.703125q-0.65625 -0.71875 -0.65625 -1.921875l0 -4.8125l-1.3437805 0l0 -1.046875l1.3437805 0l0 -2.671875l1.296875 0l0 2.671875l3.25 0l0 1.046875l-3.25 0l0 4.640625q0 0.75 0.328125 1.203125q0.328125 0.453125 1.078125 0.453125q0.484375 0 0.90625 -0.296875q0.421875 -0.296875 0.609375 -1.3125l0.984375 0.328125zm1.6089478 -5.4375q0.65625 -0.421875 1.375 -0.609375q0.734375 -0.1875 1.546875 -0.1875q2.96875 0 2.96875 2.78125l0 3.953125q0 0.890625 0.703125 0.890625q0.328125 0 0.5625 -0.109375l0.015625 0.859375q-0.5 0.28125 -1.078125 0.28125q-1.46875 0 -1.515625 -1.6875l0 -0.03125q-0.390625 0.671875 -1.109375 1.203125q-0.71875 0.515625 -1.71875 0.515625q-0.828125 0 -1.671875 -0.5q-0.84375 -0.515625 -0.84375 -1.828125q0 -1.578125 1.234375 -2.0625q1.25 -0.5 2.640625 -0.5q0.375 0 0.75 0.015625q0.390625 0.015625 0.71875 0.0625l0 -0.75q0 -0.890625 -0.390625 -1.453125q-0.375 -0.5625 -1.484375 -0.5625q-0.921875 0 -1.609375 0.34375l-0.3125 1.4375l-1.078125 -0.140625l0.296875 -1.921875zm4.578125 4.5625l0 -0.640625q-0.34375 -0.015625 -0.734375 -0.046875q-0.390625 -0.046875 -0.8125 -0.046875q-0.921875 0 -1.6875 0.296875q-0.75 0.28125 -0.75 1.25q0 0.796875 0.5 1.109375q0.5 0.296875 1.046875 0.296875q0.859375 0 1.609375 -0.59375q0.765625 -0.609375 0.828125 -1.625zm13.432861 3.109375l-4.1875 0l0 -1.0625l1.4375 0l0 -3.859375q0 -1.34375 -0.546875 -1.890625q-0.546875 -0.5625 -1.375 -0.5625q-1.125 0 -1.8125 0.75q-0.671875 0.734375 -0.703125 1.6875l0 3.875l1.453125 0l0 1.0625l-4.21875 0l0 -1.0625l1.453125 0l0 -6.171875l-1.5 0l0 -1.0625l2.8125 0l0 1.46875q0.890625 -1.640625 2.90625 -1.640625q1.203125 0 2.015625 0.75q0.828125 0.734375 0.828125 2.40625l0 4.25l1.4375 0l0 1.0625zm8.158752 -2.796875q-0.171875 1.078125 -0.984375 2.03125q-0.8125 0.953125 -2.515625 0.953125q-1.71875 0 -2.75 -1.109375q-1.03125 -1.109375 -1.03125 -3.109375q0 -1.71875 0.96875 -3.078125q0.984375 -1.359375 2.921875 -1.359375q0.8125 0 1.5 0.1875q0.703125 0.1875 1.328125 0.671875l0.328125 2.0l-1.09375 0.125l-0.3125 -1.40625q-0.75 -0.453125 -1.765625 -0.453125q-1.328125 0 -1.90625 0.953125q-0.578125 0.9375 -0.578125 2.28125q0 1.5 0.640625 2.34375q0.65625 0.828125 1.890625 0.828125q1.875 0 2.234375 -2.109375l1.125 0.25zm8.744202 0.40625q-0.15625 1.0625 -1.0625 1.828125q-0.890625 0.75 -2.421875 0.75q-1.75 0 -2.84375 -1.09375q-1.078125 -1.109375 -1.078125 -3.125q0 -1.9375 1.03125 -3.1875q1.03125 -1.25 2.78125 -1.25q1.71875 0 2.609375 1.078125q0.890625 1.078125 0.921875 2.5625q0 0.484375 -0.125 0.984375l-5.828125 0q0.109375 2.90625 2.625 2.90625q0.984375 0 1.546875 -0.453125q0.5625 -0.46875 0.75 -1.234375l1.09375 0.234375zm-1.453125 -2.421875q0.09375 -0.9375 -0.4375 -1.75q-0.53125 -0.828125 -1.734375 -0.828125q-1.15625 0 -1.703125 0.765625q-0.546875 0.765625 -0.671875 1.8125l4.546875 0z" fill-rule="nonzero"/><path fill="#cfe2f3" d="m435.43948 218.00507l0 0c0 -3.9863892 3.231598 -7.217987 7.217987 -7.217987l160.61914 0c1.9143066 0 3.7502441 0.7604675 5.103882 2.1141052c1.3536377 1.3536377 2.1141357 3.18956 2.1141357 5.103882l0 28.871109c0 3.9863892 -3.2316284 7.217987 -7.2180176 7.217987l-160.61914 0c-3.9863892 0 -7.217987 -3.231598 -7.217987 -7.217987z" fill-rule="evenodd"/><path stroke="#000000" stroke-width="1.0" stroke-linejoin="round" stroke-linecap="butt" d="m435.43948 218.00507l0 0c0 -3.9863892 3.231598 -7.217987 7.217987 -7.217987l160.61914 0c1.9143066 0 3.7502441 0.7604675 5.103882 2.1141052c1.3536377 1.3536377 2.1141357 3.18956 2.1141357 5.103882l0 28.871109c0 3.9863892 -3.2316284 7.217987 -7.2180176 7.217987l-160.61914 0c-3.9863892 0 -7.217987 -3.231598 -7.217987 -7.217987z" fill-rule="evenodd"/><path fill="#000000" d="m475.03864 236.56375q-0.171875 1.078125 -0.984375 2.03125q-0.8125 0.953125 -2.515625 0.953125q-1.71875 0 -2.75 -1.109375q-1.03125 -1.109375 -1.03125 -3.109375q0 -1.71875 0.96875 -3.078125q0.984375 -1.359375 2.921875 -1.359375q0.8125 0 1.5 0.1875q0.703125 0.1875 1.328125 0.671875l0.328125 2.0l-1.09375 0.125l-0.3125 -1.40625q-0.75 -0.453125 -1.765625 -0.453125q-1.328125 0 -1.90625 0.953125q-0.578125 0.9375 -0.578125 2.28125q0 1.5 0.640625 2.34375q0.65625 0.828125 1.890625 0.828125q1.875 0 2.234375 -2.109375l1.125 0.25zm10.916077 2.796875l-4.21875 0l0 -1.0625l1.453125 0l0 -3.859375q0 -1.34375 -0.546875 -1.890625q-0.546875 -0.5625 -1.40625 -0.5625q-1.078125 0 -1.765625 0.75q-0.6875 0.734375 -0.71875 1.640625l0 3.921875l1.4375 0l0 1.0625l-4.203125 0l0 -1.0625l1.4375 0l0 -10.703125l-1.4375 0l0 -1.0625l2.765625 0l0 6.015625q0.921875 -1.65625 2.90625 -1.65625q1.21875 0 2.03125 0.75q0.828125 0.734375 0.828125 2.40625l0 4.25l1.4375 0l0 1.0625zm2.1193848 -10.453125l0 -1.6875l1.421875 0l0 1.6875l-1.421875 0zm2.890625 10.453125l-4.203125 0l0 -1.0625l1.453125 0l0 -6.171875l-1.5 0l0 -1.0625l2.796875 0l0 7.234375l1.453125 0l0 1.0625zm4.973755 0l-4.21875 0l0 -1.0625l1.453125 0l0 -10.703125l-1.46875 0l0 -1.0625l2.78125 0l0 11.765625l1.453125 0l0 1.0625zm10.35318 0l-2.75 0l0 -1.671875q-0.40625 0.734375 -1.125 1.296875q-0.703125 0.5625 -1.84375 0.5625q-1.59375 0 -2.578125 -1.09375q-0.984375 -1.09375 -0.984375 -3.03125q0 -1.65625 0.859375 -3.09375q0.859375 -1.4375 2.890625 -1.4375q1.953125 0 2.78125 1.515625l0 -4.8125l-2.015625 0l0 -1.0625l3.328125 0l0 11.765625l1.4375 0l0 1.0625zm-2.75 -3.671875l0 -1.328125q-0.03125 -1.046875 -0.765625 -1.6875q-0.71875 -0.65625 -1.71875 -0.65625q-1.375 0 -2.015625 1.015625q-0.640625 1.0 -0.640625 2.296875q0 1.53125 0.71875 2.3125q0.71875 0.78125 1.796875 0.78125q1.125 0 1.859375 -0.90625q0.734375 -0.90625 0.765625 -1.828125zm9.196014 -6.78125l0 -1.6875l1.421875 0l0 1.6875l-1.421875 0zm2.890625 10.453125l-4.203125 0l0 -1.0625l1.453125 0l0 -6.171875l-1.5 0l0 -1.0625l2.796875 0l0 7.234375l1.453125 0l0 1.0625zm10.89563 0l-4.1875 0l0 -1.0625l1.4375 0l0 -3.859375q0 -1.34375 -0.546875 -1.890625q-0.546875 -0.5625 -1.375 -0.5625q-1.125 0 -1.8125 0.75q-0.671875 0.734375 -0.703125 1.6875l0 3.875l1.453125 0l0 1.0625l-4.21875 0l0 -1.0625l1.453125 0l0 -6.171875l-1.5 0l0 -1.0625l2.8125 0l0 1.46875q0.890625 -1.640625 2.90625 -1.640625q1.203125 0 2.015625 0.75q0.828125 0.734375 0.828125 2.40625l0 4.25l1.4375 0l0 1.0625zm7.6118774 -2.40625q0 1.21875 -1.015625 1.90625q-1.015625 0.6875 -2.5 0.6875q-0.875 0 -1.75 -0.234375q-0.859375 -0.234375 -1.40625 -0.59375l0.265625 -1.875l1.046875 0.109375l-0.0625 1.09375q0.859375 0.421875 1.84375 0.421875q0.875 0 1.546875 -0.34375q0.6875 -0.34375 0.6875 -1.0625q0 -0.6875 -0.515625 -0.96875q-0.515625 -0.28125 -1.296875 -0.40625q-0.78125 -0.140625 -1.5625 -0.3125q-0.78125 -0.1875 -1.3125 -0.640625q-0.515625 -0.46875 -0.515625 -1.4375q0 -1.328125 0.96875 -1.859375q0.96875 -0.546875 2.109375 -0.546875q0.859375 0 1.609375 0.234375q0.765625 0.21875 1.28125 0.53125l0.21875 1.9375l-1.09375 0.125l-0.203125 -1.34375q-0.78125 -0.40625 -1.703125 -0.40625q-0.78125 0 -1.28125 0.296875q-0.5 0.296875 -0.5 0.9375q0 0.65625 0.515625 0.921875q0.53125 0.265625 1.296875 0.390625q0.765625 0.125 1.53125 0.3125q0.765625 0.1875 1.28125 0.671875q0.515625 0.46875 0.515625 1.453125zm7.5620728 0.171875q-0.328125 2.421875 -2.625 2.421875q-1.25 0 -1.921875 -0.703125q-0.65625 -0.71875 -0.65625 -1.921875l0 -4.8125l-1.34375 0l0 -1.046875l1.34375 0l0 -2.671875l1.296875 0l0 2.671875l3.25 0l0 1.046875l-3.25 0l0 4.640625q0 0.75 0.328125 1.203125q0.328125 0.453125 1.078125 0.453125q0.484375 0 0.90625 -0.296875q0.421875 -0.296875 0.609375 -1.3125l0.984375 0.328125zm1.6089478 -5.4375q0.65625 -0.421875 1.375 -0.609375q0.734375 -0.1875 1.546875 -0.1875q2.96875 0 2.96875 2.78125l0 3.953125q0 0.890625 0.703125 0.890625q0.328125 0 0.5625 -0.109375l0.015625 0.859375q-0.5 0.28125 -1.078125 0.28125q-1.46875 0 -1.515625 -1.6875l0 -0.03125q-0.390625 0.671875 -1.109375 1.203125q-0.71875 0.515625 -1.71875 0.515625q-0.828125 0 -1.671875 -0.5q-0.84375 -0.515625 -0.84375 -1.828125q0 -1.578125 1.234375 -2.0625q1.25 -0.5 2.640625 -0.5q0.375 0 0.75 0.015625q0.390625 0.015625 0.71875 0.0625l0 -0.75q0 -0.890625 -0.390625 -1.453125q-0.375 -0.5625 -1.484375 -0.5625q-0.921875 0 -1.609375 0.34375l-0.3125 1.4375l-1.078125 -0.140625l0.296875 -1.921875zm4.578125 4.5625l0 -0.640625q-0.34375 -0.015625 -0.734375 -0.046875q-0.390625 -0.046875 -0.8125 -0.046875q-0.921875 0 -1.6875 0.296875q-0.75 0.28125 -0.75 1.25q0 0.796875 0.5 1.109375q0.5 0.296875 1.046875 0.296875q0.859375 0 1.609375 -0.59375q0.765625 -0.609375 0.828125 -1.625zm13.432861 3.109375l-4.1875 0l0 -1.0625l1.4375 0l0 -3.859375q0 -1.34375 -0.546875 -1.890625q-0.546875 -0.5625 -1.375 -0.5625q-1.125 0 -1.8125 0.75q-0.671875 0.734375 -0.703125 1.6875l0 3.875l1.453125 0l0 1.0625l-4.21875 0l0 -1.0625l1.453125 0l0 -6.171875l-1.5 0l0 -1.0625l2.8125 0l0 1.46875q0.890625 -1.640625 2.90625 -1.640625q1.203125 0 2.015625 0.75q0.828125 0.734375 0.828125 2.40625l0 4.25l1.4375 0l0 1.0625zm8.158813 -2.796875q-0.171875 1.078125 -0.984375 2.03125q-0.8125 0.953125 -2.515625 0.953125q-1.71875 0 -2.75 -1.109375q-1.03125 -1.109375 -1.03125 -3.109375q0 -1.71875 0.96875 -3.078125q0.984375 -1.359375 2.921875 -1.359375q0.8125 0 1.5 0.1875q0.703125 0.1875 1.328125 0.671875l0.328125 2.0l-1.09375 0.125l-0.3125 -1.40625q-0.75 -0.453125 -1.765625 -0.453125q-1.328125 0 -1.90625 0.953125q-0.578125 0.9375 -0.578125 2.28125q0 1.5 0.640625 2.34375q0.65625 0.828125 1.890625 0.828125q1.875 0 2.234375 -2.109375l1.125 0.25zm8.744141 0.40625q-0.15625 1.0625 -1.0625 1.828125q-0.890625 0.75 -2.421875 0.75q-1.75 0 -2.84375 -1.09375q-1.078125 -1.109375 -1.078125 -3.125q0 -1.9375 1.03125 -3.1875q1.03125 -1.25 2.78125 -1.25q1.71875 0 2.609375 1.078125q0.890625 1.078125 0.921875 2.5625q0 0.484375 -0.125 0.984375l-5.828125 0q0.109375 2.90625 2.625 2.90625q0.984375 0 1.546875 -0.453125q0.5625 -0.46875 0.75 -1.234375l1.09375 0.234375zm-1.453125 -2.421875q0.09375 -0.9375 -0.4375 -1.75q-0.53125 -0.828125 -1.734375 -0.828125q-1.15625 0 -1.703125 0.765625q-0.546875 0.765625 -0.671875 1.8125l4.546875 0z" fill-rule="nonzero"/><path fill="#cfe2f3" d="m320.49344 320.36728l0 0c0 -3.9863892 3.231598 -7.217987 7.217987 -7.217987l160.61914 0c1.9143372 0 3.7502441 0.7604675 5.103882 2.1141052c1.3536377 1.3536377 2.1141052 3.1895447 2.1141052 5.103882l0 28.871094c0 3.9863892 -3.231598 7.217987 -7.217987 7.217987l-160.61914 0c-3.9863892 0 -7.217987 -3.231598 -7.217987 -7.217987z" fill-rule="evenodd"/><path stroke="#000000" stroke-width="1.0" stroke-linejoin="round" stroke-linecap="butt" d="m320.49344 320.36728l0 0c0 -3.9863892 3.231598 -7.217987 7.217987 -7.217987l160.61914 0c1.9143372 0 3.7502441 0.7604675 5.103882 2.1141052c1.3536377 1.3536377 2.1141052 3.1895447 2.1141052 5.103882l0 28.871094c0 3.9863892 -3.231598 7.217987 -7.217987 7.217987l-160.61914 0c-3.9863892 0 -7.217987 -3.231598 -7.217987 -7.217987z" fill-rule="evenodd"/><path fill="#000000" d="m354.659 337.3322q0 1.109375 -0.390625 2.171875q-0.375 1.046875 -1.203125 1.734375q-0.828125 0.671875 -2.1875 0.671875q-1.890625 0 -2.75 -1.40625l0 4.125l1.921875 0l0 1.0625l-4.6875 0l0 -1.0625l1.46875 0l0 -10.140625l-1.5 0l0 -1.0625l2.796875 0l0 1.734375q0.375 -0.75 1.078125 -1.328125q0.71875 -0.578125 1.875 -0.578125q1.609375 0 2.59375 1.078125q0.984375 1.078125 0.984375 3.0zm-1.375 0.125q0 -1.5 -0.734375 -2.28125q-0.71875 -0.796875 -1.796875 -0.796875q-1.125 0 -1.859375 0.890625q-0.71875 0.875 -0.765625 1.828125l0 1.234375q0 1.046875 0.734375 1.75q0.734375 0.703125 1.75 0.703125q1.40625 0 2.03125 -1.0q0.640625 -1.015625 0.640625 -2.328125zm3.6047058 -3.40625q0.65625 -0.421875 1.375 -0.609375q0.734375 -0.1875 1.546875 -0.1875q2.96875 0 2.96875 2.78125l0 3.953125q0 0.890625 0.703125 0.890625q0.328125 0 0.5625 -0.109375l0.015625 0.859375q-0.5 0.28125 -1.078125 0.28125q-1.46875 0 -1.515625 -1.6875l0 -0.03125q-0.390625 0.671875 -1.109375 1.203125q-0.71875 0.515625 -1.71875 0.515625q-0.828125 0 -1.671875 -0.5q-0.84375 -0.515625 -0.84375 -1.828125q0 -1.578125 1.234375 -2.0625q1.25 -0.5 2.640625 -0.5q0.375 0 0.75 0.015625q0.390625 0.015625 0.71875 0.0625l0 -0.75q0 -0.890625 -0.390625 -1.453125q-0.375 -0.5625 -1.484375 -0.5625q-0.921875 0 -1.609375 0.34375l-0.3125 1.4375l-1.078125 -0.140625l0.296875 -1.921875zm4.578125 4.5625l0 -0.640625q-0.34375 -0.015625 -0.734375 -0.046875q-0.390625 -0.046875 -0.8125 -0.046875q-0.921875 0 -1.6875 0.296875q-0.75 0.28125 -0.75 1.25q0 0.796875 0.5 1.109375q0.5 0.296875 1.046875 0.296875q0.859375 0 1.609375 -0.59375q0.765625 -0.609375 0.828125 -1.625zm8.214081 -5.34375q0.890625 0 1.421875 0.4375l0.3125 2.078125l-1.0625 0.140625l-0.3125 -1.421875q-0.328125 -0.109375 -0.640625 -0.109375q-0.71875 0 -1.203125 0.609375q-0.484375 0.59375 -0.484375 1.5625l0 4.09375l1.921875 0l0 1.0625l-4.6875 0l0 -1.0625l1.453125 0l0 -6.171875l-1.5 0l0 -1.0625l2.734375 0l0 1.484375q0.234375 -0.6875 0.78125 -1.15625q0.5625 -0.484375 1.265625 -0.484375zm10.648132 6.0625q-0.15625 1.0625 -1.0625 1.828125q-0.890625 0.75 -2.421875 0.75q-1.75 0 -2.84375 -1.09375q-1.078125 -1.109375 -1.078125 -3.125q0 -1.9375 1.03125 -3.1875q1.03125 -1.25 2.78125 -1.25q1.71875 0 2.609375 1.078125q0.890625 1.078125 0.921875 2.5625q0 0.484375 -0.125 0.984375l-5.828125 0q0.109375 2.90625 2.625 2.90625q0.984375 0 1.546875 -0.453125q0.5625 -0.46875 0.75 -1.234375l1.09375 0.234375zm-1.453125 -2.421875q0.09375 -0.9375 -0.4375 -1.75q-0.53125 -0.828125 -1.734375 -0.828125q-1.15625 0 -1.703125 0.765625q-0.546875 0.765625 -0.671875 1.8125l4.546875 0zm12.627808 4.8125l-4.1875 0l0 -1.0625l1.4375 0l0 -3.859375q0 -1.34375 -0.546875 -1.890625q-0.546875 -0.5625 -1.375 -0.5625q-1.125 0 -1.8125 0.75q-0.671875 0.734375 -0.703125 1.6875l0 3.875l1.453125 0l0 1.0625l-4.21875 0l0 -1.0625l1.453125 0l0 -6.171875l-1.5 0l0 -1.0625l2.8125 0l0 1.46875q0.890625 -1.640625 2.90625 -1.640625q1.203125 0 2.015625 0.75q0.828125 0.734375 0.828125 2.40625l0 4.25l1.4375 0l0 1.0625zm7.002533 -2.234375q-0.328125 2.421875 -2.625 2.421875q-1.25 0 -1.921875 -0.703125q-0.65625 -0.71875 -0.65625 -1.921875l0 -4.8125l-1.34375 0l0 -1.046875l1.34375 0l0 -2.671875l1.296875 0l0 2.671875l3.25 0l0 1.046875l-3.25 0l0 4.640625q0 0.75 0.328125 1.203125q0.328125 0.453125 1.078125 0.453125q0.484375 0 0.90625 -0.296875q0.421875 -0.296875 0.609375 -1.3125l0.984375 0.328125zm6.281433 -8.21875l0 -1.6875l1.421875 0l0 1.6875l-1.421875 0zm2.890625 10.453125l-4.203125 0l0 -1.0625l1.453125 0l0 -6.171875l-1.5 0l0 -1.0625l2.796875 0l0 7.234375l1.453125 0l0 1.0625zm10.89563 0l-4.1875 0l0 -1.0625l1.4375 0l0 -3.859375q0 -1.34375 -0.546875 -1.890625q-0.546875 -0.5625 -1.375 -0.5625q-1.125 0 -1.8125 0.75q-0.671875 0.734375 -0.703125 1.6875l0 3.875l1.453125 0l0 1.0625l-4.21875 0l0 -1.0625l1.453125 0l0 -6.171875l-1.5 0l0 -1.0625l2.8125 0l0 1.46875q0.890625 -1.640625 2.90625 -1.640625q1.203125 0 2.015625 0.75q0.828125 0.734375 0.828125 2.40625l0 4.25l1.4375 0l0 1.0625zm7.611908 -2.40625q0 1.21875 -1.015625 1.90625q-1.015625 0.6875 -2.5 0.6875q-0.875 0 -1.75 -0.234375q-0.859375 -0.234375 -1.40625 -0.59375l0.265625 -1.875l1.046875 0.109375l-0.0625 1.09375q0.859375 0.421875 1.84375 0.421875q0.875 0 1.546875 -0.34375q0.6875 -0.34375 0.6875 -1.0625q0 -0.6875 -0.515625 -0.96875q-0.515625 -0.28125 -1.296875 -0.40625q-0.78125 -0.140625 -1.5625 -0.3125q-0.78125 -0.1875 -1.3125 -0.640625q-0.515625 -0.46875 -0.515625 -1.4375q0 -1.328125 0.96875 -1.859375q0.96875 -0.546875 2.109375 -0.546875q0.859375 0 1.609375 0.234375q0.765625 0.21875 1.28125 0.53125l0.21875 1.9375l-1.09375 0.125l-0.203125 -1.34375q-0.78125 -0.40625 -1.703125 -0.40625q-0.78125 0 -1.28125 0.296875q-0.5 0.296875 -0.5 0.9375q0 0.65625 0.515625 0.921875q0.53125 0.265625 1.296875 0.390625q0.765625 0.125 1.53125 0.3125q0.765625 0.1875 1.28125 0.671875q0.515625 0.46875 0.515625 1.453125zm7.5620728 0.171875q-0.328125 2.421875 -2.625 2.421875q-1.25 0 -1.921875 -0.703125q-0.65625 -0.71875 -0.65625 -1.921875l0 -4.8125l-1.34375 0l0 -1.046875l1.34375 0l0 -2.671875l1.296875 0l0 2.671875l3.25 0l0 1.046875l-3.25 0l0 4.640625q0 0.75 0.328125 1.203125q0.328125 0.453125 1.078125 0.453125q0.484375 0 0.90625 -0.296875q0.421875 -0.296875 0.609375 -1.3125l0.984375 0.328125zm1.6089478 -5.4375q0.65625 -0.421875 1.375 -0.609375q0.734375 -0.1875 1.546875 -0.1875q2.96875 0 2.96875 2.78125l0 3.953125q0 0.890625 0.703125 0.890625q0.328125 0 0.5625 -0.109375l0.015625 0.859375q-0.5 0.28125 -1.078125 0.28125q-1.46875 0 -1.515625 -1.6875l0 -0.03125q-0.390625 0.671875 -1.109375 1.203125q-0.71875 0.515625 -1.71875 0.515625q-0.828125 0 -1.671875 -0.5q-0.84375 -0.515625 -0.84375 -1.828125q0 -1.578125 1.234375 -2.0625q1.25 -0.5 2.640625 -0.5q0.375 0 0.75 0.015625q0.390625 0.015625 0.71875 0.0625l0 -0.75q0 -0.890625 -0.390625 -1.453125q-0.375 -0.5625 -1.484375 -0.5625q-0.921875 0 -1.609375 0.34375l-0.3125 1.4375l-1.078125 -0.140625l0.296875 -1.921875zm4.578125 4.5625l0 -0.640625q-0.34375 -0.015625 -0.734375 -0.046875q-0.390625 -0.046875 -0.8125 -0.046875q-0.921875 0 -1.6875 0.296875q-0.75 0.28125 -0.75 1.25q0 0.796875 0.5 1.109375q0.5 0.296875 1.046875 0.296875q0.859375 0 1.609375 -0.59375q0.765625 -0.609375 0.828125 -1.625zm13.432861 3.109375l-4.1875 0l0 -1.0625l1.4375 0l0 -3.859375q0 -1.34375 -0.546875 -1.890625q-0.546875 -0.5625 -1.375 -0.5625q-1.125 0 -1.8125 0.75q-0.671875 0.734375 -0.703125 1.6875l0 3.875l1.453125 0l0 1.0625l-4.21875 0l0 -1.0625l1.453125 0l0 -6.171875l-1.5 0l0 -1.0625l2.8125 0l0 1.46875q0.890625 -1.640625 2.90625 -1.640625q1.203125 0 2.015625 0.75q0.828125 0.734375 0.828125 2.40625l0 4.25l1.4375 0l0 1.0625zm8.158783 -2.796875q-0.171875 1.078125 -0.984375 2.03125q-0.8125 0.953125 -2.515625 0.953125q-1.71875 0 -2.75 -1.109375q-1.03125 -1.109375 -1.03125 -3.109375q0 -1.71875 0.96875 -3.078125q0.984375 -1.359375 2.921875 -1.359375q0.8125 0 1.5 0.1875q0.703125 0.1875 1.328125 0.671875l0.328125 2.0l-1.09375 0.125l-0.3125 -1.40625q-0.75 -0.453125 -1.765625 -0.453125q-1.328125 0 -1.90625 0.953125q-0.578125 0.9375 -0.578125 2.28125q0 1.5 0.640625 2.34375q0.65625 0.828125 1.890625 0.828125q1.875 0 2.234375 -2.109375l1.125 0.25zm8.744171 0.40625q-0.15625 1.0625 -1.0625 1.828125q-0.890625 0.75 -2.421875 0.75q-1.75 0 -2.84375 -1.09375q-1.078125 -1.109375 -1.078125 -3.125q0 -1.9375 1.03125 -3.1875q1.03125 -1.25 2.78125 -1.25q1.71875 0 2.609375 1.078125q0.890625 1.078125 0.921875 2.5625q0 0.484375 -0.125 0.984375l-5.828125 0q0.109375 2.90625 2.625 2.90625q0.984375 0 1.546875 -0.453125q0.5625 -0.46875 0.75 -1.234375l1.09375 0.234375zm-1.453125 -2.421875q0.09375 -0.9375 -0.4375 -1.75q-0.53125 -0.828125 -1.734375 -0.828125q-1.15625 0 -1.703125 0.765625q-0.546875 0.765625 -0.671875 1.8125l4.546875 0z" fill-rule="nonzero"/><path fill="#000000" fill-opacity="0.0" d="m450.96704 313.30676l72.0 -59.2126" fill-rule="evenodd"/><path stroke="#000000" stroke-width="1.0" stroke-linejoin="round" stroke-linecap="butt" d="m450.96707 313.30676l67.365875 -55.40149" fill-rule="evenodd"/><path fill="#000000" stroke="#000000" stroke-width="1.0" stroke-linecap="butt" d="m519.3821 259.181l2.4558716 -4.158264l-4.554199 1.6068115z" fill-rule="evenodd"/><path fill="#cfe2f3" d="m352.49344 13.280662l0 0c0 -3.9863873 3.231598 -7.2179923 7.217987 -7.2179923l160.61914 0c1.9143066 0 3.7502441 0.76046467 5.103882 2.114101c1.3536377 1.3536358 2.1141357 3.189561 2.1141357 5.1038914l0 28.871101c0 3.9863853 -3.2316284 7.217991 -7.2180176 7.217991l-160.61914 0c-3.9863892 0 -7.217987 -3.2316055 -7.217987 -7.217991z" fill-rule="evenodd"/><path stroke="#000000" stroke-width="1.0" stroke-linejoin="round" stroke-linecap="butt" d="m352.49344 13.280662l0 0c0 -3.9863873 3.231598 -7.2179923 7.217987 -7.2179923l160.61914 0c1.9143066 0 3.7502441 0.76046467 5.103882 2.114101c1.3536377 1.3536358 2.1141357 3.189561 2.1141357 5.1038914l0 28.871101c0 3.9863853 -3.2316284 7.217991 -7.2180176 7.217991l-160.61914 0c-3.9863892 0 -7.217987 -3.2316055 -7.217987 -7.217991z" fill-rule="evenodd"/><path fill="#000000" d="m401.6799 26.058086l-1.09375 -0.09375l0.15625 -2.234375q0.5625 -0.59375 1.4375 -1.0q0.890625 -0.40625 1.84375 -0.40625q1.421875 0 2.421875 0.671875q1.015625 0.671875 1.015625 1.84375q0 0.953125 -0.578125 1.59375q-0.578125 0.625 -1.328125 1.109375q-0.75 0.46875 -1.328125 0.9375q-0.578125 0.46875 -0.578125 1.078125q0 0.765625 0.984375 0.765625l0 0.9375q-1.265625 0.078125 -1.828125 -0.390625q-0.546875 -0.484375 -0.546875 -1.203125q0 -0.828125 0.5625 -1.390625q0.5625 -0.5625 1.296875 -1.0q0.75 -0.453125 1.3125 -0.96875q0.578125 -0.515625 0.578125 -1.28125q0 -0.640625 -0.53125 -1.0625q-0.515625 -0.421875 -1.546875 -0.421875q-1.140625 0 -2.015625 0.71875l-0.234375 1.796875zm1.125 8.578125l0 -1.8125l1.671875 0l0 1.8125l-1.671875 0zm11.399414 -10.453125l0 -1.6875l1.421875 0l0 1.6875l-1.421875 0zm2.890625 10.453125l-4.203125 0l0 -1.0625l1.453125 0l0 -6.171875l-1.5 0l0 -1.0625l2.796875 0l0 7.234375l1.453125 0l0 1.0625zm10.89563 0l-4.1875 0l0 -1.0625l1.4375 0l0 -3.859375q0 -1.34375 -0.546875 -1.890625q-0.546875 -0.5625 -1.375 -0.5625q-1.125 0 -1.8125 0.75q-0.671875 0.734375 -0.703125 1.6875l0 3.875l1.453125 0l0 1.0625l-4.21875 0l0 -1.0625l1.453125 0l0 -6.171875l-1.5 0l0 -1.0625l2.8125 0l0 1.46875q0.890625 -1.640625 2.90625 -1.640625q1.203125 0 2.015625 0.75q0.828125 0.734375 0.828125 2.40625l0 4.25l1.4375 0l0 1.0625zm7.611908 -2.40625q0 1.21875 -1.015625 1.90625q-1.015625 0.6875 -2.5 0.6875q-0.875 0 -1.75 -0.234375q-0.859375 -0.234375 -1.40625 -0.59375l0.265625 -1.875l1.046875 0.109375l-0.0625 1.09375q0.859375 0.421875 1.84375 0.421875q0.875 0 1.546875 -0.34375q0.6875 -0.34375 0.6875 -1.0625q0 -0.6875 -0.515625 -0.96875q-0.515625 -0.28125 -1.296875 -0.40625q-0.78125 -0.140625 -1.5625 -0.3125q-0.78125 -0.1875 -1.3125 -0.640625q-0.515625 -0.46875 -0.515625 -1.4375q0 -1.328125 0.96875 -1.859375q0.96875 -0.546875 2.109375 -0.546875q0.859375 0 1.609375 0.234375q0.765625 0.21875 1.28125 0.53125l0.21875 1.9375l-1.09375 0.125l-0.203125 -1.34375q-0.78125 -0.40625 -1.703125 -0.40625q-0.78125 0 -1.28125 0.296875q-0.5 0.296875 -0.5 0.9375q0 0.65625 0.515625 0.921875q0.53125 0.265625 1.296875 0.390625q0.765625 0.125 1.53125 0.3125q0.765625 0.1875 1.28125 0.671875q0.515625 0.46875 0.515625 1.453125zm7.562042 0.171875q-0.328125 2.421875 -2.625 2.421875q-1.25 0 -1.921875 -0.703125q-0.65625 -0.71875 -0.65625 -1.921875l0 -4.8125l-1.34375 0l0 -1.046875l1.34375 0l0 -2.671875l1.296875 0l0 2.671875l3.25 0l0 1.046875l-3.25 0l0 4.640625q0 0.75 0.328125 1.203125q0.328125 0.453125 1.078125 0.453125q0.484375 0 0.90625 -0.296875q0.421875 -0.296875 0.609375 -1.3125l0.984375 0.328125zm1.6089783 -5.4375q0.65625 -0.421875 1.375 -0.609375q0.734375 -0.1875 1.546875 -0.1875q2.96875 0 2.96875 2.78125l0 3.953125q0 0.890625 0.703125 0.890625q0.328125 0 0.5625 -0.109375l0.015625 0.859375q-0.5 0.28125 -1.078125 0.28125q-1.46875 0 -1.515625 -1.6875l0 -0.03125q-0.390625 0.671875 -1.109375 1.203125q-0.71875 0.515625 -1.71875 0.515625q-0.828125 0 -1.671875 -0.5q-0.84375 -0.515625 -0.84375 -1.828125q0 -1.578125 1.234375 -2.0625q1.25 -0.5 2.640625 -0.5q0.375 0 0.75 0.015625q0.390625 0.015625 0.71875 0.0625l0 -0.75q0 -0.890625 -0.390625 -1.453125q-0.375 -0.5625 -1.484375 -0.5625q-0.921875 0 -1.609375 0.34375l-0.3125 1.4375l-1.078125 -0.140625l0.296875 -1.921875zm4.578125 4.5625l0 -0.640625q-0.34375 -0.015625 -0.734375 -0.046875q-0.390625 -0.046875 -0.8125 -0.046875q-0.921875 0 -1.6875 0.296875q-0.75 0.28125 -0.75 1.25q0 0.796875 0.5 1.109375q0.5 0.296875 1.046875 0.296875q0.859375 0 1.609375 -0.59375q0.765625 -0.609375 0.828125 -1.625zm13.432831 3.109375l-4.1875 0l0 -1.0625l1.4375 0l0 -3.859375q0 -1.34375 -0.546875 -1.890625q-0.546875 -0.5625 -1.375 -0.5625q-1.125 0 -1.8125 0.75q-0.671875 0.734375 -0.703125 1.6875l0 3.875l1.453125 0l0 1.0625l-4.21875 0l0 -1.0625l1.453125 0l0 -6.171875l-1.5 0l0 -1.0625l2.8125 0l0 1.46875q0.890625 -1.640625 2.90625 -1.640625q1.203125 0 2.015625 0.75q0.828125 0.734375 0.828125 2.40625l0 4.25l1.4375 0l0 1.0625zm8.158783 -2.796875q-0.171875 1.078125 -0.984375 2.03125q-0.8125 0.953125 -2.515625 0.953125q-1.71875 0 -2.75 -1.109375q-1.03125 -1.109375 -1.03125 -3.109375q0 -1.71875 0.96875 -3.078125q0.984375 -1.359375 2.921875 -1.359375q0.8125 0 1.5 0.1875q0.703125 0.1875 1.328125 0.671875l0.328125 2.0l-1.09375 0.125l-0.3125 -1.40625q-0.75 -0.453125 -1.765625 -0.453125q-1.328125 0 -1.90625 0.953125q-0.578125 0.9375 -0.578125 2.28125q0 1.5 0.640625 2.34375q0.65625 0.828125 1.890625 0.828125q1.875 0 2.234375 -2.109375l1.125 0.25zm8.744202 0.40625q-0.15625 1.0625 -1.0625 1.828125q-0.890625 0.75 -2.421875 0.75q-1.75 0 -2.84375 -1.09375q-1.078125 -1.109375 -1.078125 -3.125q0 -1.9375 1.03125 -3.1875q1.03125 -1.25 2.78125 -1.25q1.71875 0 2.609375 1.078125q0.890625 1.078125 0.921875 2.5625q0 0.484375 -0.125 0.984375l-5.828125 0q0.109375 2.90625 2.625 2.90625q0.984375 0 1.546875 -0.453125q0.5625 -0.46875 0.75 -1.234375l1.09375 0.234375zm-1.453125 -2.421875q0.09375 -0.9375 -0.4375 -1.75q-0.53125 -0.828125 -1.734375 -0.828125q-1.15625 0 -1.703125 0.765625q-0.546875 0.765625 -0.671875 1.8125l4.546875 0z" fill-rule="nonzero"/><path fill="#000000" fill-opacity="0.0" d="m522.96704 210.78708l-42.960632 -59.055115" fill-rule="evenodd"/><path stroke="#000000" stroke-width="1.0" stroke-linejoin="round" stroke-linecap="butt" d="m522.96704 210.78708l-39.43094 -54.20314" fill-rule="evenodd"/><path fill="#000000" stroke="#000000" stroke-width="1.0" stroke-linecap="butt" d="m484.87177 155.61226l-4.0053406 -2.6981049l1.3339539 4.641449z" fill-rule="evenodd"/><path fill="#000000" fill-opacity="0.0" d="m167.83727 130.07973l224.66142 0" fill-rule="evenodd"/><path stroke="#666666" stroke-width="1.0" stroke-linejoin="round" stroke-linecap="butt" stroke-dasharray="4.0,3.0" d="m167.83727 130.07973l218.66142 0" fill-rule="evenodd"/><path fill="#666666" stroke="#666666" stroke-width="1.0" stroke-linecap="butt" d="m386.4987 131.73146l4.538086 -1.6517334l-4.538086 -1.6517181z" fill-rule="evenodd"/><path fill="#000000" fill-opacity="0.0" d="m266.21515 232.44456l169.22833 0" fill-rule="evenodd"/><path stroke="#666666" stroke-width="1.0" stroke-linejoin="round" stroke-linecap="butt" stroke-dasharray="4.0,3.0" d="m266.21515 232.44455l163.22833 0" fill-rule="evenodd"/><path fill="#666666" stroke="#666666" stroke-width="1.0" stroke-linecap="butt" d="m429.44348 234.09628l4.5381165 -1.6517334l-4.5381165 -1.6517334z" fill-rule="evenodd"/><path fill="#000000" fill-opacity="0.0" d="m168.10349 334.80414l152.37796 0" fill-rule="evenodd"/><path stroke="#666666" stroke-width="1.0" stroke-linejoin="round" stroke-linecap="butt" stroke-dasharray="4.0,3.0" d="m168.10349 334.80414l146.37796 0" fill-rule="evenodd"/><path fill="#666666" stroke="#666666" stroke-width="1.0" stroke-linecap="butt" d="m314.48145 336.45587l4.538086 -1.6517334l-4.538086 -1.6517334z" fill-rule="evenodd"/><path fill="#f3f3f3" d="m149.50656 172.94836l0 0c0 -3.8470764 3.1186676 -6.965744 6.9657593 -6.965744l67.20235 0c1.8474274 0 3.6192017 0.7338867 4.925537 2.0402222c1.3063202 1.3063354 2.0402222 3.0780945 2.0402222 4.925522l0 6.162979c0 3.8470917 -3.1186829 6.9657593 -6.9657593 6.9657593l-67.20235 0c-3.8470917 0 -6.9657593 -3.1186676 -6.9657593 -6.9657593z" fill-rule="evenodd"/><path stroke="#000000" stroke-width="1.0" stroke-linejoin="round" stroke-linecap="butt" d="m149.50656 172.94836l0 0c0 -3.8470764 3.1186676 -6.965744 6.9657593 -6.965744l67.20235 0c1.8474274 0 3.6192017 0.7338867 4.925537 2.0402222c1.3063202 1.3063354 2.0402222 3.0780945 2.0402222 4.925522l0 6.162979c0 3.8470917 -3.1186829 6.9657593 -6.9657593 6.9657593l-67.20235 0c-3.8470917 0 -6.9657593 -3.1186676 -6.9657593 -6.9657593z" fill-rule="evenodd"/><path fill="#000000" d="m174.19917 175.68674l-0.8125 0l-2.09375 6.203125l-0.875 0l-2.171875 -5.4375l-0.078125 0l-2.125 5.4375l-0.828125 0l-2.1875 -6.203125l-0.78125 0l0 -0.921875l3.359375 0l0 0.921875l-1.359375 0l1.484375 4.484375l0.09375 0l2.109375 -5.40625l0.75 0l2.21875 5.40625l0.078125 0l1.3125 -4.484375l-1.296875 0l0 -0.921875l3.203125 0l0 0.921875zm1.4591522 -0.375q0.5625 -0.359375 1.1875 -0.515625q0.625 -0.171875 1.328125 -0.171875q2.546875 0 2.546875 2.390625l0 3.390625q0 0.765625 0.59375 0.765625q0.28125 0 0.484375 -0.09375l0.015625 0.734375q-0.421875 0.234375 -0.921875 0.234375q-1.265625 0 -1.296875 -1.4375l0 -0.03125q-0.34375 0.578125 -0.96875 1.03125q-0.609375 0.4375 -1.46875 0.4375q-0.703125 0 -1.4375 -0.421875q-0.71875 -0.4375 -0.71875 -1.578125q0 -1.34375 1.0625 -1.765625q1.0625 -0.421875 2.265625 -0.421875q0.3125 0 0.640625 0.015625q0.328125 0.015625 0.625 0.046875l0 -0.640625q0 -0.765625 -0.328125 -1.25q-0.328125 -0.484375 -1.296875 -0.484375q-0.78125 0 -1.375 0.296875l-0.265625 1.234375l-0.921875 -0.109375l0.25 -1.65625zm3.9375 3.90625l0 -0.546875q-0.3125 -0.015625 -0.65625 -0.046875q-0.328125 -0.03125 -0.671875 -0.03125q-0.796875 0 -1.453125 0.25q-0.640625 0.25 -0.640625 1.078125q0 0.6875 0.421875 0.953125q0.4375 0.25 0.90625 0.25q0.734375 0 1.375 -0.515625q0.65625 -0.515625 0.71875 -1.390625zm8.884262 0.609375q0 1.03125 -0.875 1.625q-0.875 0.59375 -2.15625 0.59375q-0.75 0 -1.5 -0.1875q-0.734375 -0.203125 -1.203125 -0.515625l0.21875 -1.609375l0.90625 0.09375l-0.046875 0.9375q0.734375 0.359375 1.578125 0.359375q0.75 0 1.328125 -0.296875q0.59375 -0.296875 0.59375 -0.90625q0 -0.59375 -0.453125 -0.828125q-0.4375 -0.25 -1.109375 -0.359375q-0.65625 -0.109375 -1.34375 -0.265625q-0.671875 -0.15625 -1.125 -0.546875q-0.4375 -0.40625 -0.4375 -1.234375q0 -1.140625 0.828125 -1.59375q0.84375 -0.46875 1.8125 -0.46875q0.734375 0 1.375 0.203125q0.65625 0.1875 1.109375 0.453125l0.171875 1.671875l-0.921875 0.109375l-0.1875 -1.15625q-0.671875 -0.359375 -1.453125 -0.359375q-0.671875 0 -1.109375 0.265625q-0.421875 0.25 -0.421875 0.796875q0 0.5625 0.4375 0.796875q0.453125 0.234375 1.109375 0.34375q0.65625 0.09375 1.3125 0.25q0.65625 0.15625 1.109375 0.578125q0.453125 0.40625 0.453125 1.25zm2.3048859 -6.890625l0 -1.46875l1.203125 0l0 1.46875l-1.203125 0zm2.46875 8.953125l-3.609375 0l0 -0.90625l1.25 0l0 -5.296875l-1.28125 0l0 -0.921875l2.390625 0l0 6.21875l1.25 0l0 0.90625zm1.370636 -5.390625l0 -1.734375l1.5 0l0 1.734375l-1.5 0zm0 5.390625l0 -1.734375l1.5 0l0 1.734375l-1.5 0zm8.94339 -0.90625l0 -5.296875l-3.625 0l0 5.296875l1.625 0l0 0.90625l-3.984375 0l0 -0.90625l1.21875 0l0 -5.296875l-1.015625 0l0 -0.921875l1.015625 0l0 -1.1875q0 -1.375 0.90625 -2.109375q0.90625 -0.75 2.1875 -0.75q0.703125 0 1.328125 0.203125q0.625 0.203125 1.046875 0.5l0.265625 1.671875l-0.921875 0.109375l-0.296875 -1.203125q-0.1875 -0.109375 -0.59375 -0.21875q-0.390625 -0.125 -0.921875 -0.125q-0.796875 0 -1.328125 0.4375q-0.53125 0.421875 -0.53125 1.4375l0 1.234375l4.75 0l0 6.21875l1.234375 0l0 0.90625l-3.59375 0l0 -0.90625l1.234375 0zm6.635269 0.90625l-3.625 0l0 -0.90625l1.25 0l0 -9.1875l-1.265625 0l0 -0.921875l2.390625 0l0 10.109375l1.25 0l0 0.90625zm7.271652 -2.046875q-0.140625 0.90625 -0.90625 1.5625q-0.765625 0.640625 -2.0781403 0.640625q-1.5 0 -2.4375 -0.9375q-0.921875 -0.953125 -0.921875 -2.671875q0 -1.671875 0.875 -2.734375q0.890625 -1.078125 2.390625 -1.078125q1.4687653 0 2.2343903 0.9375q0.765625 0.921875 0.78125 2.1875q0 0.40625 -0.09375 0.84375l-5.0000153 0q0.09375 2.5 2.25 2.5q0.84375 0 1.3281403 -0.390625q0.484375 -0.40625 0.640625 -1.0625l0.9375 0.203125zm-1.234375 -2.078125q0.078125 -0.796875 -0.390625 -1.5q-0.45314026 -0.71875 -1.4843903 -0.71875q-1.0 0 -1.46875 0.65625q-0.453125 0.65625 -0.5625 1.5625l3.9062653 0z" fill-rule="nonzero"/><path fill="#f3f3f3" d="m51.12861 69.94837l0 0c0 -3.847084 3.1186752 -6.9657555 6.9657555 -6.9657555l67.20235 0c1.8474274 0 3.619194 0.73389053 4.9255295 2.040226c1.3063354 1.3063278 2.0402222 3.0780945 2.0402222 4.9255295l0 6.162979c0 3.8470764 -3.1186676 6.9657516 -6.9657516 6.9657516l-67.20235 0c-3.8470802 0 -6.9657555 -3.1186752 -6.9657555 -6.9657516z" fill-rule="evenodd"/><path stroke="#000000" stroke-width="1.0" stroke-linejoin="round" stroke-linecap="butt" d="m51.12861 69.94837l0 0c0 -3.847084 3.1186752 -6.9657555 6.9657555 -6.9657555l67.20235 0c1.8474274 0 3.619194 0.73389053 4.9255295 2.040226c1.3063354 1.3063278 2.0402222 3.0780945 2.0402222 4.9255295l0 6.162979c0 3.8470764 -3.1186676 6.9657516 -6.9657516 6.9657516l-67.20235 0c-3.8470802 0 -6.9657555 -3.1186752 -6.9657555 -6.9657516z" fill-rule="evenodd"/><path fill="#000000" d="m75.82123 72.68674l-0.8125 0l-2.09375 6.203125l-0.875 0l-2.171875 -5.4375l-0.078125 0l-2.125 5.4375l-0.828125 0l-2.1875 -6.203125l-0.7812538 0l0 -0.921875l3.3593788 0l0 0.921875l-1.359375 0l1.484375 4.484375l0.09375 0l2.109375 -5.40625l0.75 0l2.21875 5.40625l0.078125 0l1.3125 -4.484375l-1.296875 0l0 -0.921875l3.203125 0l0 0.921875zm1.4591522 -0.375q0.5625 -0.359375 1.1875 -0.515625q0.625 -0.171875 1.328125 -0.171875q2.546875 0 2.546875 2.390625l0 3.390625q0 0.765625 0.59375 0.765625q0.28125 0 0.484375 -0.09375l0.015625 0.734375q-0.421875 0.234375 -0.921875 0.234375q-1.265625 0 -1.296875 -1.4375l0 -0.03125q-0.34375 0.578125 -0.96875 1.03125q-0.609375 0.4375 -1.46875 0.4375q-0.703125 0 -1.4375 -0.421875q-0.71875 -0.4375 -0.71875 -1.578125q0 -1.34375 1.0625 -1.765625q1.0625 -0.421875 2.265625 -0.421875q0.3125 0 0.640625 0.015625q0.328125 0.015625 0.625 0.046875l0 -0.640625q0 -0.765625 -0.328125 -1.25q-0.328125 -0.484375 -1.296875 -0.484375q-0.78125 0 -1.375 0.296875l-0.265625 1.234375l-0.921875 -0.109375l0.25 -1.65625zm3.9375 3.90625l0 -0.546875q-0.3125 -0.015625 -0.65625 -0.046875q-0.328125 -0.03125 -0.671875 -0.03125q-0.796875 0 -1.453125 0.25q-0.640625 0.25 -0.640625 1.078125q0 0.6875 0.421875 0.953125q0.4375 0.25 0.90625 0.25q0.734375 0 1.375 -0.515625q0.65625 -0.515625 0.71875 -1.390625zm8.884262 0.609375q0 1.03125 -0.875 1.625q-0.875 0.59375 -2.15625 0.59375q-0.75 0 -1.5 -0.1875q-0.734375 -0.203125 -1.203125 -0.515625l0.21875 -1.609375l0.90625 0.09375l-0.046875 0.9375q0.734375 0.359375 1.578125 0.359375q0.75 0 1.328125 -0.296875q0.59375 -0.296875 0.59375 -0.90625q0 -0.59375 -0.453125 -0.828125q-0.4375 -0.25 -1.109375 -0.359375q-0.65625 -0.109375 -1.34375 -0.265625q-0.671875 -0.15625 -1.125 -0.546875q-0.4375 -0.40625 -0.4375 -1.234375q0 -1.140625 0.828125 -1.59375q0.84375 -0.46875 1.8125 -0.46875q0.734375 0 1.375 0.203125q0.65625 0.1875 1.109375 0.453125l0.171875 1.671875l-0.921875 0.109375l-0.1875 -1.15625q-0.671875 -0.359375 -1.453125 -0.359375q-0.671875 0 -1.109375 0.265625q-0.421875 0.25 -0.421875 0.796875q0 0.5625 0.4375 0.796875q0.453125 0.234375 1.109375 0.34375q0.65625 0.09375 1.3125 0.25q0.65625 0.15625 1.109375 0.578125q0.453125 0.40625 0.453125 1.25zm2.3048859 -6.890625l0 -1.46875l1.203125 0l0 1.46875l-1.203125 0zm2.46875 8.953125l-3.609375 0l0 -0.90625l1.25 0l0 -5.296875l-1.28125 0l0 -0.921875l2.390625 0l0 6.21875l1.25 0l0 0.90625zm1.370636 -5.390625l0 -1.734375l1.5 0l0 1.734375l-1.5 0zm0 5.390625l0 -1.734375l1.5 0l0 1.734375l-1.5 0zm8.94339 -0.90625l0 -5.296875l-3.625 0l0 5.296875l1.625 0l0 0.90625l-3.984375 0l0 -0.90625l1.21875 0l0 -5.296875l-1.015625 0l0 -0.921875l1.015625 0l0 -1.1875q0 -1.375 0.90625 -2.109375q0.90625 -0.75 2.1875 -0.75q0.703125 0 1.328125 0.203125q0.625 0.203125 1.046875 0.5l0.265625 1.671875l-0.921875 0.109375l-0.296875 -1.203125q-0.1875 -0.109375 -0.59375 -0.21875q-0.390625 -0.125 -0.921875 -0.125q-0.796875 0 -1.328125 0.4375q-0.53125 0.421875 -0.53125 1.4375l0 1.234375l4.75 0l0 6.21875l1.234375 0l0 0.90625l-3.59375 0l0 -0.90625l1.234375 0zm6.635269 0.90625l-3.625 0l0 -0.90625l1.25 0l0 -9.1875l-1.265625 0l0 -0.921875l2.390625 0l0 10.109375l1.25 0l0 0.90625zm7.271637 -2.046875q-0.140625 0.90625 -0.90625 1.5625q-0.765625 0.640625 -2.078125 0.640625q-1.5 0 -2.4375 -0.9375q-0.921875 -0.953125 -0.921875 -2.671875q0 -1.671875 0.875 -2.734375q0.890625 -1.078125 2.390625 -1.078125q1.46875 0 2.234375 0.9375q0.765625 0.921875 0.78125 2.1875q0 0.40625 -0.09375 0.84375l-5.0 0q0.09375 2.5 2.25 2.5q0.84375 0 1.328125 -0.390625q0.484375 -0.40625 0.640625 -1.0625l0.9375 0.203125zm-1.234375 -2.078125q0.078125 -0.796875 -0.390625 -1.5q-0.453125 -0.71875 -1.484375 -0.71875q-1.0 0 -1.46875 0.65625q-0.453125 0.65625 -0.5625 1.5625l3.90625 0z" fill-rule="nonzero"/><path fill="#f3f3f3" d="m3.5998793 270.86176l0 0c0 -3.8470764 3.1186743 -6.9657593 6.9657545 -6.9657593l67.20235 0c1.847435 0 3.6192017 0.7338867 4.9255295 2.0402222c1.3063354 1.3063354 2.0402222 3.0780945 2.0402222 4.925537l0 6.1629944c0 3.8470764 -3.1186676 6.9657288 -6.9657516 6.9657288l-67.20235 0c-3.8470802 0 -6.9657545 -3.1186523 -6.9657545 -6.9657288z" fill-rule="evenodd"/><path stroke="#000000" stroke-width="1.0" stroke-linejoin="round" stroke-linecap="butt" d="m3.5998793 270.86176l0 0c0 -3.8470764 3.1186743 -6.9657593 6.9657545 -6.9657593l67.20235 0c1.847435 0 3.6192017 0.7338867 4.9255295 2.0402222c1.3063354 1.3063354 2.0402222 3.0780945 2.0402222 4.925537l0 6.1629944c0 3.8470764 -3.1186676 6.9657288 -6.9657516 6.9657288l-67.20235 0c-3.8470802 0 -6.9657545 -3.1186523 -6.9657545 -6.9657288z" fill-rule="evenodd"/><path fill="#000000" d="m28.292496 273.60013l-0.8125 0l-2.09375 6.203125l-0.875 0l-2.171875 -5.4375l-0.078125 0l-2.125 5.4375l-0.828125 0l-2.1875 -6.203125l-0.78125 0l0 -0.921875l3.359375 0l0 0.921875l-1.359375 0l1.484375 4.484375l0.09375 0l2.109375 -5.40625l0.75 0l2.21875 5.40625l0.078125 0l1.3125 -4.484375l-1.296875 0l0 -0.921875l3.203125 0l0 0.921875zm1.4591522 -0.375q0.5625 -0.359375 1.1875 -0.515625q0.625 -0.171875 1.328125 -0.171875q2.546875 0 2.546875 2.390625l0 3.390625q0 0.765625 0.59375 0.765625q0.28125 0 0.484375 -0.09375l0.015625 0.734375q-0.421875 0.234375 -0.921875 0.234375q-1.265625 0 -1.296875 -1.4375l0 -0.03125q-0.34375 0.578125 -0.96875 1.03125q-0.609375 0.4375 -1.46875 0.4375q-0.703125 0 -1.4375 -0.421875q-0.71875 -0.4375 -0.71875 -1.578125q0 -1.34375 1.0625 -1.765625q1.0625 -0.421875 2.265625 -0.421875q0.3125 0 0.640625 0.015625q0.328125 0.015625 0.625 0.046875l0 -0.640625q0 -0.765625 -0.328125 -1.25q-0.328125 -0.484375 -1.296875 -0.484375q-0.78125 0 -1.375 0.296875l-0.265625 1.234375l-0.921875 -0.109375l0.25 -1.65625zm3.9375 3.90625l0 -0.546875q-0.3125 -0.015625 -0.65625 -0.046875q-0.328125 -0.03125 -0.671875 -0.03125q-0.796875 0 -1.453125 0.25q-0.640625 0.25 -0.640625 1.078125q0 0.6875 0.421875 0.953125q0.4375 0.25 0.90625 0.25q0.734375 0 1.375 -0.515625q0.65625 -0.515625 0.71875 -1.390625zm8.884262 0.609375q0 1.03125 -0.875 1.625q-0.875 0.59375 -2.15625 0.59375q-0.75 0 -1.5 -0.1875q-0.734375 -0.203125 -1.203125 -0.515625l0.21875 -1.609375l0.90625 0.09375l-0.046875 0.9375q0.734375 0.359375 1.578125 0.359375q0.75 0 1.328125 -0.296875q0.59375 -0.296875 0.59375 -0.90625q0 -0.59375 -0.453125 -0.828125q-0.4375 -0.25 -1.109375 -0.359375q-0.65625 -0.109375 -1.34375 -0.265625q-0.671875 -0.15625 -1.125 -0.546875q-0.4375 -0.40625 -0.4375 -1.234375q0 -1.140625 0.828125 -1.59375q0.84375 -0.46875 1.8125 -0.46875q0.734375 0 1.375 0.203125q0.65625 0.1875 1.109375 0.453125l0.171875 1.671875l-0.921875 0.109375l-0.1875 -1.15625q-0.671875 -0.359375 -1.453125 -0.359375q-0.671875 0 -1.109375 0.265625q-0.421875 0.25 -0.421875 0.796875q0 0.5625 0.4375 0.796875q0.453125 0.234375 1.109375 0.34375q0.65625 0.09375 1.3125 0.25q0.65625 0.15625 1.109375 0.578125q0.453125 0.40625 0.453125 1.25zm2.3048859 -6.890625l0 -1.46875l1.203125 0l0 1.46875l-1.203125 0zm2.46875 8.953125l-3.609375 0l0 -0.90625l1.25 0l0 -5.296875l-1.28125 0l0 -0.921875l2.390625 0l0 6.21875l1.25 0l0 0.90625zm1.370636 -5.390625l0 -1.734375l1.5 0l0 1.734375l-1.5 0zm0 5.390625l0 -1.734375l1.5 0l0 1.734375l-1.5 0zm8.94339 -0.90625l0 -5.296875l-3.625 0l0 5.296875l1.625 0l0 0.90625l-3.984375 0l0 -0.90625l1.21875 0l0 -5.296875l-1.015625 0l0 -0.921875l1.015625 0l0 -1.1875q0 -1.375 0.90625 -2.109375q0.90625 -0.75 2.1875 -0.75q0.703125 0 1.328125 0.203125q0.625 0.203125 1.046875 0.5l0.265625 1.671875l-0.921875 0.109375l-0.296875 -1.203125q-0.1875 -0.109375 -0.59375 -0.21875q-0.390625 -0.125 -0.921875 -0.125q-0.796875 0 -1.328125 0.4375q-0.53125 0.421875 -0.53125 1.4375l0 1.234375l4.75 0l0 6.21875l1.234375 0l0 0.90625l-3.59375 0l0 -0.90625l1.234375 0zm6.635269 0.90625l-3.625 0l0 -0.90625l1.25 0l0 -9.1875l-1.265625 0l0 -0.921875l2.390625 0l0 10.109375l1.25 0l0 0.90625zm7.271637 -2.046875q-0.140625 0.90625 -0.90625 1.5625q-0.765625 0.640625 -2.078125 0.640625q-1.5 0 -2.4375 -0.9375q-0.921875 -0.953125 -0.921875 -2.671875q0 -1.671875 0.875 -2.734375q0.890625 -1.078125 2.390625 -1.078125q1.46875 0 2.234375 0.9375q0.765625 0.921875 0.78125 2.1875q0 0.40625 -0.09375 0.84375l-5.0 0q0.09375 2.5 2.25 2.5q0.84375 0 1.328125 -0.390625q0.484375 -0.40625 0.640625 -1.0625l0.9375 0.203125zm-1.234375 -2.078125q0.078125 -0.796875 -0.390625 -1.5q-0.453125 -0.71875 -1.484375 -0.71875q-1.0 0 -1.46875 0.65625q-0.453125 0.65625 -0.5625 1.5625l3.90625 0z" fill-rule="nonzero"/><path fill="#000000" fill-opacity="0.0" d="m52.16681 313.3317l0 -29.35434" fill-rule="evenodd"/><path stroke="#000000" stroke-width="1.0" stroke-linejoin="round" stroke-linecap="butt" d="m52.16681 313.3317l0 -23.35434" fill-rule="evenodd"/><path fill="#000000" stroke="#000000" stroke-width="1.0" stroke-linecap="butt" d="m53.818542 289.97736l-1.6517334 -4.538086l-1.6517296 4.538086z" fill-rule="evenodd"/><path fill="#000000" fill-opacity="0.0" d="m91.69554 108.426186l0 -25.354332" fill-rule="evenodd"/><path stroke="#000000" stroke-width="1.0" stroke-linejoin="round" stroke-linecap="butt" d="m91.69554 108.42619l0 -19.35434" fill-rule="evenodd"/><path fill="#000000" stroke="#000000" stroke-width="1.0" stroke-linecap="butt" d="m93.34727 89.07185l-1.6517258 -4.5380936l-1.6517334 4.5380936z" fill-rule="evenodd"/><path fill="#000000" fill-opacity="0.0" d="m190.07341 210.79102l0 -24.724411" fill-rule="evenodd"/><path stroke="#000000" stroke-width="1.0" stroke-linejoin="round" stroke-linecap="butt" d="m190.07341 210.79102l0 -18.724411" fill-rule="evenodd"/><path fill="#000000" stroke="#000000" stroke-width="1.0" stroke-linecap="butt" d="m191.72514 192.0666l-1.6517334 -4.538101l-1.6517334 4.538101z" fill-rule="evenodd"/><path fill="#000000" fill-opacity="0.0" d="m480.021 108.426186l-40.0 -59.05512" fill-rule="evenodd"/><path stroke="#000000" stroke-width="1.0" stroke-linejoin="round" stroke-linecap="butt" d="m480.021 108.42619l-36.635223 -54.087418" fill-rule="evenodd"/><path fill="#000000" stroke="#000000" stroke-width="1.0" stroke-linecap="butt" d="m444.75336 53.412487l-3.9125366 -2.8310356l1.1774292 4.6836166z" fill-rule="evenodd"/><path fill="#000000" fill-opacity="0.0" d="m368.72964 312.72803l0 -263.3701" fill-rule="evenodd"/><path stroke="#000000" stroke-width="1.0" stroke-linejoin="round" stroke-linecap="butt" d="m368.72964 312.72803l0 -257.3701" fill-rule="evenodd"/><path fill="#000000" stroke="#000000" stroke-width="1.0" stroke-linecap="butt" d="m370.38138 55.357944l-1.6517334 -4.5380974l-1.6517334 4.5380974z" fill-rule="evenodd"/><path fill="#000000" fill-opacity="0.0" d="m410.22427 313.9065l0 -161.4488" fill-rule="evenodd"/><path stroke="#000000" stroke-width="1.0" stroke-linejoin="round" stroke-linecap="butt" d="m410.22427 313.9065l0 -155.4488" fill-rule="evenodd"/><path fill="#000000" stroke="#000000" stroke-width="1.0" stroke-linecap="butt" d="m411.876 158.45769l-1.6517334 -4.538101l-1.6517334 4.538101z" fill-rule="evenodd"/></g></svg>