<svg version="1.1" viewBox="0.0 0.0 345.3490813648294 216.5275590551181" fill="none" stroke="none" stroke-linecap="square" stroke-miterlimit="10" xmlns:xlink="http://www.w3.org/1999/xlink" xmlns="http://www.w3.org/2000/svg"><clipPath id="p.0"><path d="m0 0l345.3491 0l0 216.52756l-345.3491 0l0 -216.52756z" clip-rule="nonzero"/></clipPath><g clip-path="url(#p.0)"><path fill="#000000" fill-opacity="0.0" d="m0 0l345.3491 0l0 216.52756l-345.3491 0z" fill-rule="evenodd"/><path fill="#f3f3f3" d="m10.753281 164.72179l95.27559 0l0 43.307083l-95.27559 0z" fill-rule="evenodd"/><path stroke="#000000" stroke-width="1.0" stroke-linejoin="round" stroke-linecap="butt" d="m10.753281 164.72179l95.27559 0l0 43.307083l-95.27559 0z" fill-rule="evenodd"/><path fill="#000000" d="m30.0476 185.62346q0.65625 -0.421875 1.375 -0.609375q0.734375 -0.1875 1.546875 -0.1875q2.96875 0 2.96875 2.78125l0 3.953125q0 0.890625 0.703125 0.890625q0.328125 0 0.5625 -0.109375l0.015625 0.859375q-0.5 0.28125 -1.078125 0.28125q-1.46875 0 -1.515625 -1.6875l0 -0.03125q-0.390625 0.671875 -1.109375 1.203125q-0.71875 0.515625 -1.71875 0.515625q-0.828125 0 -1.671875 -0.5q-0.84375 -0.515625 -0.84375 -1.828125q0 -1.578125 1.234375 -2.0625q1.25 -0.5 2.640625 -0.5q0.375 0 0.75 0.015625q0.390625 0.015625 0.71875 0.0625l0 -0.75q0 -0.890625 -0.390625 -1.453125q-0.375 -0.5625 -1.484375 -0.5625q-0.921875 0 -1.609375 0.34375l-0.3125 1.4375l-1.078125 -0.140625l0.296875 -1.921875zm4.578125 4.5625l0 -0.640625q-0.34375 -0.015625 -0.734375 -0.046875q-0.390625 -0.046875 -0.8125 -0.046875q-0.921875 0 -1.6875 0.296875q-0.75 0.28125 -0.75 1.25q0 0.796875 0.5 1.109375q0.5 0.296875 1.046875 0.296875q0.859375 0 1.609375 -0.59375q0.765625 -0.609375 0.828125 -1.625zm3.979721 3.109375l0 -2.015625l1.8125 0l0 2.015625l-1.8125 0zm16.180664 -7.234375l-0.953125 0l-2.453125 7.234375l-1.0 0l-2.546875 -6.34375l-0.078125 0l-2.484375 6.34375l-0.96875 0l-2.546875 -7.234375l-0.90625 0l0 -1.0625l3.90625 0l0 1.0625l-1.578125 0l1.734375 5.234375l0.09375 0l2.46875 -6.296875l0.875 0l2.59375 6.296875l0.09375 0l1.53125 -5.234375l-1.515625 0l0 -1.0625l3.734375 0l0 1.0625zm1.6969452 -0.4375q0.65625 -0.421875 1.375 -0.609375q0.734375 -0.1875 1.546875 -0.1875q2.96875 0 2.96875 2.78125l0 3.953125q0 0.890625 0.703125 0.890625q0.328125 0 0.5625 -0.109375l0.015625 0.859375q-0.5 0.28125 -1.078125 0.28125q-1.46875 0 -1.515625 -1.6875l0 -0.03125q-0.390625 0.671875 -1.109375 1.203125q-0.71875 0.515625 -1.71875 0.515625q-0.828125 0 -1.671875 -0.5q-0.84375 -0.515625 -0.84375 -1.828125q0 -1.578125 1.234375 -2.0625q1.25 -0.5 2.640625 -0.5q0.375 0 0.75 0.015625q0.390625 0.015625 0.71875 0.0625l0 -0.75q0 -0.890625 -0.390625 -1.453125q-0.375 -0.5625 -1.484375 -0.5625q-0.921875 0 -1.609375 0.34375l-0.3125 1.4375l-1.078125 -0.140625l0.296875 -1.921875zm4.578125 4.5625l0 -0.640625q-0.34375 -0.015625 -0.734375 -0.046875q-0.390625 -0.046875 -0.8125 -0.046875q-0.921875 0 -1.6875 0.296875q-0.75 0.28125 -0.75 1.25q0 0.796875 0.5 1.109375q0.5 0.296875 1.046875 0.296875q0.859375 0 1.609375 -0.59375q0.765625 -0.609375 0.828125 -1.625zm10.354721 0.703125q0 1.21875 -1.015625 1.90625q-1.015625 0.6875 -2.5 0.6875q-0.875 0 -1.75 -0.234375q-0.859375 -0.234375 -1.40625 -0.59375l0.265625 -1.875l1.046875 0.109375l-0.0625 1.09375q0.859375 0.421875 1.84375 0.421875q0.875 0 1.546875 -0.34375q0.6875 -0.34375 0.6875 -1.0625q0 -0.6875 -0.515625 -0.96875q-0.515625 -0.28125 -1.296875 -0.40625q-0.78125 -0.140625 -1.5625 -0.3125q-0.78125 -0.1875 -1.3125 -0.640625q-0.515625 -0.46875 -0.515625 -1.4375q0 -1.328125 0.96875 -1.859375q0.96875 -0.546875 2.109375 -0.546875q0.859375 0 1.609375 0.234375q0.765625 0.21875 1.28125 0.53125l0.21875 1.9375l-1.09375 0.125l-0.203125 -1.34375q-0.78125 -0.40625 -1.703125 -0.40625q-0.78125 0 -1.28125 0.296875q-0.5 0.296875 -0.5 0.9375q0 0.65625 0.515625 0.921875q0.53125 0.265625 1.296875 0.390625q0.765625 0.125 1.53125 0.3125q0.765625 0.1875 1.28125 0.671875q0.515625 0.46875 0.515625 1.453125zm16.671432 2.40625l-3.984375 0l0 -1.0625l1.21875 0l0 -3.859375q0 -1.34375 -0.53125 -1.890625q-0.53125 -0.5625 -1.359375 -0.5625q-1.125 0 -1.75 0.859375q-0.609375 0.859375 -0.625 1.640625l0 3.8125l1.421875 0l0 1.0625l-3.953125 0l0 -1.0625l1.203125 0l0 -3.859375q0 -1.359375 -0.53125 -1.90625q-0.515625 -0.546875 -1.3125 -0.546875q-1.15625 0 -1.765625 0.84375q-0.609375 0.828125 -0.640625 1.625l0 3.84375l1.515625 0l0 1.0625l-4.28125 0l0 -1.0625l1.453125 0l0 -6.171875l-1.46875 0l0 -1.0625l2.78125 0l0 1.546875q0.40625 -0.75 1.09375 -1.234375q0.6875 -0.484375 1.671875 -0.484375q0.984375 0 1.6875 0.484375q0.71875 0.484375 0.984375 1.515625q0.375 -0.875 1.109375 -1.4375q0.734375 -0.5625 1.828125 -0.5625q1.1875 0 1.984375 0.75q0.796875 0.734375 0.796875 2.40625l0 4.25l1.453125 0l0 1.0625z" fill-rule="nonzero"/><path fill="#f3f3f3" d="m10.753281 53.14173l95.27559 0l0 43.30709l-95.27559 0z" fill-rule="evenodd"/><path stroke="#000000" stroke-width="1.0" stroke-linejoin="round" stroke-linecap="butt" d="m10.753281 53.14173l95.27559 0l0 43.30709l-95.27559 0z" fill-rule="evenodd"/><path fill="#000000" d="m37.390244 77.355896q0 1.09375 -0.375 2.140625q-0.375 1.046875 -1.203125 1.734375q-0.8125 0.671875 -2.109375 0.671875q-2.09375 0 -2.90625 -1.5625l-0.1875 1.375l-1.3125 0q0.078125 -0.546875 0.171875 -1.171875q0.09375 -0.640625 0.09375 -1.25l0 -9.34375l-1.4375 0l0 -1.0625l2.734375 0l0 6.25q0.375 -0.765625 1.078125 -1.328125q0.703125 -0.5625 1.890625 -0.5625q1.546875 0 2.546875 1.0625q1.015625 1.0625 1.015625 3.046875zm-1.375 0.125q0 -1.546875 -0.734375 -2.328125q-0.71875 -0.78125 -1.765625 -0.78125q-1.203125 0 -1.90625 0.875q-0.703125 0.875 -0.75 1.78125l0 1.25q0 1.046875 0.734375 1.78125q0.75 0.71875 1.828125 0.71875q1.359375 0 1.96875 -1.0q0.625 -1.015625 0.625 -2.296875zm2.9819336 4.234375l0 -2.015625l1.8125 0l0 2.015625l-1.8125 0zm16.180664 -7.234375l-0.953125 0l-2.453125 7.234375l-1.0 0l-2.546875 -6.34375l-0.078125 0l-2.484375 6.34375l-0.96875 0l-2.546875 -7.234375l-0.90625 0l0 -1.0625l3.90625 0l0 1.0625l-1.578125 0l1.734375 5.234375l0.09375 0l2.46875 -6.296875l0.875 0l2.59375 6.296875l0.09375 0l1.53125 -5.234375l-1.515625 0l0 -1.0625l3.734375 0l0 1.0625zm1.6969452 -0.4375q0.65625 -0.421875 1.375 -0.609375q0.734375 -0.1875 1.546875 -0.1875q2.96875 0 2.96875 2.78125l0 3.953125q0 0.890625 0.703125 0.890625q0.328125 0 0.5625 -0.109375l0.015625 0.859375q-0.5 0.28125 -1.078125 0.28125q-1.46875 0 -1.515625 -1.6875l0 -0.03125q-0.390625 0.671875 -1.109375 1.203125q-0.71875 0.515625 -1.71875 0.515625q-0.828125 0 -1.671875 -0.5q-0.84375 -0.515625 -0.84375 -1.828125q0 -1.578125 1.234375 -2.0625q1.25 -0.5 2.640625 -0.5q0.375 0 0.75 0.015625q0.390625 0.015625 0.71875 0.0625l0 -0.75q0 -0.890625 -0.390625 -1.453125q-0.375 -0.5625 -1.484375 -0.5625q-0.921875 0 -1.609375 0.34375l-0.3125 1.4375l-1.078125 -0.140625l0.296875 -1.921875zm4.578125 4.5625l0 -0.640625q-0.34375 -0.015625 -0.734375 -0.046875q-0.390625 -0.046875 -0.8125 -0.046875q-0.921875 0 -1.6875 0.296875q-0.75 0.28125 -0.75 1.25q0 0.796875 0.5 1.109375q0.5 0.296875 1.046875 0.296875q0.859375 0 1.609375 -0.59375q0.765625 -0.609375 0.828125 -1.625zm10.354721 0.703125q0 1.21875 -1.015625 1.90625q-1.015625 0.6875 -2.5 0.6875q-0.875 0 -1.75 -0.234375q-0.859375 -0.234375 -1.40625 -0.59375l0.265625 -1.875l1.046875 0.109375l-0.0625 1.09375q0.859375 0.421875 1.84375 0.421875q0.875 0 1.546875 -0.34375q0.6875 -0.34375 0.6875 -1.0625q0 -0.6875 -0.515625 -0.96875q-0.515625 -0.28125 -1.296875 -0.40625q-0.78125 -0.140625 -1.5625 -0.3125q-0.78125 -0.1875 -1.3125 -0.640625q-0.515625 -0.46875 -0.515625 -1.4375q0 -1.328125 0.96875 -1.859375q0.96875 -0.546875 2.109375 -0.546875q0.859375 0 1.609375 0.234375q0.765625 0.21875 1.28125 0.53125l0.21875 1.9375l-1.09375 0.125l-0.203125 -1.34375q-0.78125 -0.40625 -1.703125 -0.40625q-0.78125 0 -1.28125 0.296875q-0.5 0.296875 -0.5 0.9375q0 0.65625 0.515625 0.921875q0.53125 0.265625 1.296875 0.390625q0.765625 0.125 1.53125 0.3125q0.765625 0.1875 1.28125 0.671875q0.515625 0.46875 0.515625 1.453125zm16.671432 2.40625l-3.984375 0l0 -1.0625l1.21875 0l0 -3.859375q0 -1.34375 -0.53125 -1.890625q-0.53125 -0.5625 -1.359375 -0.5625q-1.125 0 -1.75 0.859375q-0.609375 0.859375 -0.625 1.640625l0 3.8125l1.421875 0l0 1.0625l-3.953125 0l0 -1.0625l1.203125 0l0 -3.859375q0 -1.359375 -0.53125 -1.90625q-0.515625 -0.546875 -1.3125 -0.546875q-1.15625 0 -1.765625 0.84375q-0.609375 0.828125 -0.640625 1.625l0 3.84375l1.515625 0l0 1.0625l-4.28125 0l0 -1.0625l1.453125 0l0 -6.171875l-1.46875 0l0 -1.0625l2.78125 0l0 1.546875q0.40625 -0.75 1.09375 -1.234375q0.6875 -0.484375 1.671875 -0.484375q0.984375 0 1.6875 0.484375q0.71875 0.484375 0.984375 1.515625q0.375 -0.875 1.109375 -1.4375q0.734375 -0.5625 1.828125 -0.5625q1.1875 0 1.984375 0.75q0.796875 0.734375 0.796875 2.40625l0 4.25l1.453125 0l0 1.0625z" fill-rule="nonzero"/><path fill="#000000" fill-opacity="0.0" d="m58.391075 164.72179l0 -68.28346" fill-rule="evenodd"/><path stroke="#000000" stroke-width="1.0" stroke-linejoin="round" stroke-linecap="butt" d="m58.391075 164.72179l0 -62.283463" fill-rule="evenodd"/><path fill="#000000" stroke="#000000" stroke-width="1.0" stroke-linecap="butt" d="m60.04281 102.43832l-1.6517334 -4.5380936l-1.6517296 4.5380936z" fill-rule="evenodd"/><path fill="#ffffff" d="m31.330053 130.41772l0 0c-0.532526 -2.0085297 1.2158566 -3.9968414 4.503248 -5.121231c3.2873878 -1.1243896 7.537243 -1.1876678 10.9461975 -0.16297913l0 0c1.2075539 -1.1678314 3.4177322 -1.974144 5.961998 -2.1750412c2.5442657 -0.20088959 5.123787 0.22723389 6.9583015 1.1548767l0 0c1.0286827 -1.0588379 3.0485191 -1.7702408 5.342766 -1.8817673c2.2942429 -0.11152649 4.538208 0.39260864 5.9356155 1.3335114l0 0c1.8584595 -1.1223679 4.815323 -1.5949249 7.591133 -1.213211c2.7758102 0.3817215 4.8720093 1.5491638 5.3815613 2.9971695l0 0c2.2769318 0.3187561 4.1735687 1.1290741 5.1998825 2.2216034c1.0263138 1.0925217 1.0816193 2.3600693 0.15162659 3.4751663l0 0c2.2421188 1.4976807 2.7666092 3.493332 1.377739 5.2421875c-1.3888702 1.7488708 -4.482437 2.9882202 -8.126236 3.255539c-0.025688171 1.6413727 -1.7796173 3.1474762 -4.585762 3.93779c-2.8061447 0.7903137 -6.226303 0.7414398 -8.942207 -0.12780762c-1.1568298 1.9658356 -4.412918 3.4122772 -8.361519 3.7144165c-3.948597 0.30212402 -7.8818436 -0.59420776 -10.100426 -2.301773c-2.7195168 0.84165955 -5.982712 1.0841217 -9.053471 0.6726837c-3.0707626 -0.411438 -5.690422 -1.4421234 -7.2680435 -2.8595428l0 0c-2.779005 0.16690063 -5.4659176 -0.57206726 -6.727236 -1.8501434c-1.2613163 -1.2780762 -0.8285332 -2.8232117 1.0835648 -3.8685608l0 0c-2.4789448 -0.7488251 -3.7438526 -2.2347565 -3.1351223 -3.6829224c0.6087303 -1.4481659 2.9531574 -2.530426 5.810753 -2.6824188z" fill-rule="evenodd"/><path fill="#000000" fill-opacity="0.0" d="m28.599487 136.86047l0 0c1.1698227 0.3533783 2.5212402 0.5136719 3.8728065 0.4593811m1.7702599 5.259445c0.58122253 -0.03491211 1.1509285 -0.10882568 1.6944313 -0.21986389m14.62627 2.4066315c-0.4087944 -0.31462097 -0.7510567 -0.65083313 -1.020958 -1.0028992m19.483604 -0.40979004l0 0c0.21091461 -0.3584137 0.3475647 -0.72727966 0.4076767 -1.1004639m13.1197815 -2.7093964c0.02734375 -1.7474976 -1.9065475 -3.3475342 -4.9710007 -4.1128235m11.719437 -4.38472c-0.49627686 0.59506226 -1.2538986 1.1229248 -2.2134705 1.5422058m-3.1375809 -7.239128l0 0c0.08456421 0.24029541 0.12369537 0.48420715 0.116867065 0.7283478m-13.08934 -2.5122375l0 0c-0.46359253 0.2799759 -0.8455353 0.5928421 -1.1339264 0.9288635m-10.144554 -0.38072968l0 0c-0.24705887 0.25430298 -0.43154144 0.5233917 -0.5492058 0.8010788m-12.371288 0.21911621l0 0c0.72133255 0.21681976 1.3886642 0.47779083 1.9873314 0.7771759m-17.436575 4.507057l0 0c0.073394775 0.27682495 0.18936348 0.55023193 0.34682083 0.8176727" fill-rule="evenodd"/><path stroke="#000000" stroke-width="1.0" stroke-linejoin="round" stroke-linecap="butt" d="m31.330053 130.41772l0 0c-0.532526 -2.0085297 1.2158566 -3.9968414 4.503248 -5.121231c3.2873878 -1.1243896 7.537243 -1.1876678 10.9461975 -0.16297913l0 0c1.2075539 -1.1678314 3.4177322 -1.974144 5.961998 -2.1750412c2.5442657 -0.20088959 5.123787 0.22723389 6.9583015 1.1548767l0 0c1.0286827 -1.0588379 3.0485191 -1.7702408 5.342766 -1.8817673c2.2942429 -0.11152649 4.538208 0.39260864 5.9356155 1.3335114l0 0c1.8584595 -1.1223679 4.815323 -1.5949249 7.591133 -1.213211c2.7758102 0.3817215 4.8720093 1.5491638 5.3815613 2.9971695l0 0c2.2769318 0.3187561 4.1735687 1.1290741 5.1998825 2.2216034c1.0263138 1.0925217 1.0816193 2.3600693 0.15162659 3.4751663l0 0c2.2421188 1.4976807 2.7666092 3.493332 1.377739 5.2421875c-1.3888702 1.7488708 -4.482437 2.9882202 -8.126236 3.255539c-0.025688171 1.6413727 -1.7796173 3.1474762 -4.585762 3.93779c-2.8061447 0.7903137 -6.226303 0.7414398 -8.942207 -0.12780762c-1.1568298 1.9658356 -4.412918 3.4122772 -8.361519 3.7144165c-3.948597 0.30212402 -7.8818436 -0.59420776 -10.100426 -2.301773c-2.7195168 0.84165955 -5.982712 1.0841217 -9.053471 0.6726837c-3.0707626 -0.411438 -5.690422 -1.4421234 -7.2680435 -2.8595428l0 0c-2.779005 0.16690063 -5.4659176 -0.57206726 -6.727236 -1.8501434c-1.2613163 -1.2780762 -0.8285332 -2.8232117 1.0835648 -3.8685608l0 0c-2.4789448 -0.7488251 -3.7438526 -2.2347565 -3.1351223 -3.6829224c0.6087303 -1.4481659 2.9531574 -2.530426 5.810753 -2.6824188z" fill-rule="evenodd"/><path stroke="#000000" stroke-width="1.0" stroke-linejoin="round" stroke-linecap="butt" d="m28.599487 136.86047l0 0c1.1698227 0.3533783 2.5212402 0.5136719 3.8728065 0.4593811m1.7702599 5.259445c0.58122253 -0.03491211 1.1509285 -0.10882568 1.6944313 -0.21986389m14.62627 2.4066315c-0.4087944 -0.31462097 -0.7510567 -0.65083313 -1.020958 -1.0028992m19.483604 -0.40979004l0 0c0.21091461 -0.3584137 0.3475647 -0.72727966 0.4076767 -1.1004639m13.1197815 -2.7093964c0.02734375 -1.7474976 -1.9065475 -3.3475342 -4.9710007 -4.1128235m11.719437 -4.38472c-0.49627686 0.59506226 -1.2538986 1.1229248 -2.2134705 1.5422058m-3.1375809 -7.239128l0 0c0.08456421 0.24029541 0.12369537 0.48420715 0.116867065 0.7283478m-13.08934 -2.5122375l0 0c-0.46359253 0.2799759 -0.8455353 0.5928421 -1.1339264 0.9288635m-10.144554 -0.38072968l0 0c-0.24705887 0.25430298 -0.43154144 0.5233917 -0.5492058 0.8010788m-12.371288 0.21911621l0 0c0.72133255 0.21681976 1.3886642 0.47779083 1.9873314 0.7771759m-17.436575 4.507057l0 0c0.073394775 0.27682495 0.18936348 0.55023193 0.34682083 0.8176727" fill-rule="evenodd"/><path fill="#000000" d="m51.36003 138.52798l-2.7031288 0l0 -0.6875l0.9375 0l0 -2.484375q0 -0.859375 -0.359375 -1.203125q-0.359375 -0.359375 -0.90625 -0.359375q-0.703125 0 -1.140625 0.46875q-0.4375 0.46875 -0.453125 1.0625l0 2.515625l0.921875 0l0 0.6875l-2.703125 0l0 -0.6875l0.921875 0l0 -6.890625l-0.921875 0l0 -0.671875l1.78125 0l0 3.875q0.578125 -1.078125 1.875 -1.078125q0.765625 0 1.296875 0.484375q0.53125 0.484375 0.53125 1.546875l0 2.734375l0.9218788 0l0 0.6875zm5.829422 -2.671875q0 1.203125 -0.734375 2.0q-0.71875 0.796875 -1.953125 0.796875q-1.203125 0 -1.90625 -0.765625q-0.6875 -0.78125 -0.6875 -1.984375q0 -1.171875 0.671875 -2.0q0.671875 -0.828125 1.96875 -0.828125q1.3125 0 1.96875 0.828125q0.671875 0.8125 0.671875 1.953125zm-0.890625 -0.015625q0 -0.90625 -0.46875 -1.46875q-0.453125 -0.578125 -1.296875 -0.578125q-0.84375 0 -1.296875 0.59375q-0.453125 0.578125 -0.453125 1.46875q0 0.875 0.4375 1.484375q0.453125 0.59375 1.3125 0.59375q0.84375 0 1.296875 -0.59375q0.46875 -0.59375 0.46875 -1.5zm6.1091614 1.140625q0 0.78125 -0.65625 1.234375q-0.640625 0.4375 -1.609375 0.4375q-0.5625 0 -1.125 -0.15625q-0.546875 -0.15625 -0.90625 -0.375l0.171875 -1.21875l0.671875 0.078125l-0.03125 0.703125q0.546875 0.265625 1.1875 0.265625q0.5625 0 1.0 -0.21875q0.4375 -0.21875 0.4375 -0.671875q0 -0.453125 -0.34375 -0.625q-0.328125 -0.1875 -0.828125 -0.265625q-0.5 -0.09375 -1.0 -0.203125q-0.5 -0.125 -0.84375 -0.421875q-0.328125 -0.296875 -0.328125 -0.921875q0 -0.84375 0.625 -1.1875q0.625 -0.359375 1.359375 -0.359375q0.546875 0 1.03125 0.15625q0.484375 0.140625 0.828125 0.34375l0.125 1.25l-0.6875 0.078125l-0.140625 -0.859375q-0.5 -0.265625 -1.09375 -0.265625q-0.5 0 -0.828125 0.1875q-0.328125 0.1875 -0.328125 0.609375q0 0.40625 0.328125 0.59375q0.34375 0.171875 0.828125 0.25q0.5 0.078125 0.984375 0.203125q0.5 0.109375 0.828125 0.421875q0.34375 0.296875 0.34375 0.9375zm4.8654175 0.109375q-0.21875 1.5625 -1.6875 1.5625q-0.8125 0 -1.234375 -0.453125q-0.421875 -0.46875 -0.421875 -1.25l0 -3.09375l-0.859375 0l0 -0.671875l0.859375 0l0 -1.71875l0.84375 0l0 1.71875l2.078125 0l0 0.671875l-2.078125 0l0 2.984375q0 0.484375 0.203125 0.78125q0.203125 0.296875 0.6875 0.296875q0.3125 0 0.578125 -0.1875q0.28125 -0.203125 0.390625 -0.84375l0.640625 0.203125z" fill-rule="nonzero"/><path fill="#cfe2f3" d="m222.88452 171.9319l0 0c0 -3.9863892 3.231598 -7.217987 7.217987 -7.217987l94.918335 0c1.9143372 0 3.7502747 0.7604675 5.1039124 2.1141052c1.3536377 1.3536224 2.1140747 3.18956 2.1140747 5.103882l0 28.871109c0 3.9863892 -3.231598 7.217987 -7.217987 7.217987l-94.918335 0l0 0c-3.9863892 0 -7.217987 -3.231598 -7.217987 -7.217987z" fill-rule="evenodd"/><path stroke="#000000" stroke-width="1.0" stroke-linejoin="round" stroke-linecap="butt" d="m222.88452 171.9319l0 0c0 -3.9863892 3.231598 -7.217987 7.217987 -7.217987l94.918335 0c1.9143372 0 3.7502747 0.7604675 5.1039124 2.1141052c1.3536377 1.3536224 2.1140747 3.18956 2.1140747 5.103882l0 28.871109c0 3.9863892 -3.231598 7.217987 -7.217987 7.217987l-94.918335 0l0 0c-3.9863892 0 -7.217987 -3.231598 -7.217987 -7.217987z" fill-rule="evenodd"/><path fill="#000000" d="m238.40668 185.61559q0.65625 -0.421875 1.375 -0.609375q0.734375 -0.1875 1.546875 -0.1875q2.96875 0 2.96875 2.78125l0 3.953125q0 0.890625 0.703125 0.890625q0.328125 0 0.5625 -0.109375l0.015625 0.859375q-0.5 0.28125 -1.078125 0.28125q-1.46875 0 -1.515625 -1.6875l0 -0.03125q-0.390625 0.671875 -1.109375 1.203125q-0.71875 0.515625 -1.71875 0.515625q-0.828125 0 -1.671875 -0.5q-0.84375 -0.515625 -0.84375 -1.828125q0 -1.578125 1.234375 -2.0625q1.25 -0.5 2.640625 -0.5q0.375 0 0.75 0.015625q0.390625 0.015625 0.71875 0.0625l0 -0.75q0 -0.890625 -0.390625 -1.453125q-0.375 -0.5625 -1.484375 -0.5625q-0.921875 0 -1.609375 0.34375l-0.3125 1.4375l-1.078125 -0.140625l0.296875 -1.921875zm4.578125 4.5625l0 -0.640625q-0.34375 -0.015625 -0.734375 -0.046875q-0.390625 -0.046875 -0.8125 -0.046875q-0.921875 0 -1.6875 0.296875q-0.75 0.28125 -0.75 1.25q0 0.796875 0.5 1.109375q0.5 0.296875 1.046875 0.296875q0.859375 0 1.609375 -0.59375q0.765625 -0.609375 0.828125 -1.625zm9.105316 -7.34375l0 -1.6875l1.421875 0l0 1.6875l-1.421875 0zm2.890625 10.453125l-4.203125 0l0 -1.0625l1.453125 0l0 -6.171875l-1.5 0l0 -1.0625l2.796875 0l0 7.234375l1.453125 0l0 1.0625zm10.89563 0l-4.1875 0l0 -1.0625l1.4375 0l0 -3.859375q0 -1.34375 -0.546875 -1.890625q-0.546875 -0.5625 -1.375 -0.5625q-1.125 0 -1.8125 0.75q-0.671875 0.734375 -0.703125 1.6875l0 3.875l1.453125 0l0 1.0625l-4.21875 0l0 -1.0625l1.453125 0l0 -6.171875l-1.5 0l0 -1.0625l2.8125 0l0 1.46875q0.890625 -1.640625 2.90625 -1.640625q1.203125 0 2.015625 0.75q0.828125 0.734375 0.828125 2.40625l0 4.25l1.4375 0l0 1.0625zm7.611908 -2.40625q0 1.21875 -1.015625 1.90625q-1.015625 0.6875 -2.5 0.6875q-0.875 0 -1.75 -0.234375q-0.859375 -0.234375 -1.40625 -0.59375l0.265625 -1.875l1.046875 0.109375l-0.0625 1.09375q0.859375 0.421875 1.84375 0.421875q0.875 0 1.546875 -0.34375q0.6875 -0.34375 0.6875 -1.0625q0 -0.6875 -0.515625 -0.96875q-0.515625 -0.28125 -1.296875 -0.40625q-0.78125 -0.140625 -1.5625 -0.3125q-0.78125 -0.1875 -1.3125 -0.640625q-0.515625 -0.46875 -0.515625 -1.4375q0 -1.328125 0.96875 -1.859375q0.96875 -0.546875 2.109375 -0.546875q0.859375 0 1.609375 0.234375q0.765625 0.21875 1.28125 0.53125l0.21875 1.9375l-1.09375 0.125l-0.203125 -1.34375q-0.78125 -0.40625 -1.703125 -0.40625q-0.78125 0 -1.28125 0.296875q-0.5 0.296875 -0.5 0.9375q0 0.65625 0.515625 0.921875q0.53125 0.265625 1.296875 0.390625q0.765625 0.125 1.53125 0.3125q0.765625 0.1875 1.28125 0.671875q0.515625 0.46875 0.515625 1.453125zm7.5620728 0.171875q-0.328125 2.421875 -2.625 2.421875q-1.25 0 -1.921875 -0.703125q-0.65625 -0.71875 -0.65625 -1.921875l0 -4.8125l-1.34375 0l0 -1.046875l1.34375 0l0 -2.671875l1.296875 0l0 2.671875l3.25 0l0 1.046875l-3.25 0l0 4.640625q0 0.75 0.328125 1.203125q0.328125 0.453125 1.078125 0.453125q0.484375 0 0.90625 -0.296875q0.421875 -0.296875 0.609375 -1.3125l0.984375 0.328125zm1.6089478 -5.4375q0.65625 -0.421875 1.375 -0.609375q0.734375 -0.1875 1.546875 -0.1875q2.96875 0 2.96875 2.78125l0 3.953125q0 0.890625 0.703125 0.890625q0.328125 0 0.5625 -0.109375l0.015625 0.859375q-0.5 0.28125 -1.078125 0.28125q-1.46875 0 -1.515625 -1.6875l0 -0.03125q-0.390625 0.671875 -1.109375 1.203125q-0.71875 0.515625 -1.71875 0.515625q-0.828125 0 -1.671875 -0.5q-0.84375 -0.515625 -0.84375 -1.828125q0 -1.578125 1.234375 -2.0625q1.25 -0.5 2.640625 -0.5q0.375 0 0.75 0.015625q0.390625 0.015625 0.71875 0.0625l0 -0.75q0 -0.890625 -0.390625 -1.453125q-0.375 -0.5625 -1.484375 -0.5625q-0.921875 0 -1.609375 0.34375l-0.3125 1.4375l-1.078125 -0.140625l0.296875 -1.921875zm4.578125 4.5625l0 -0.640625q-0.34375 -0.015625 -0.734375 -0.046875q-0.390625 -0.046875 -0.8125 -0.046875q-0.921875 0 -1.6875 0.296875q-0.75 0.28125 -0.75 1.25q0 0.796875 0.5 1.109375q0.5 0.296875 1.046875 0.296875q0.859375 0 1.609375 -0.59375q0.765625 -0.609375 0.828125 -1.625zm13.432861 3.109375l-4.1875 0l0 -1.0625l1.4375 0l0 -3.859375q0 -1.34375 -0.546875 -1.890625q-0.546875 -0.5625 -1.375 -0.5625q-1.125 0 -1.8125 0.75q-0.671875 0.734375 -0.703125 1.6875l0 3.875l1.453125 0l0 1.0625l-4.21875 0l0 -1.0625l1.453125 0l0 -6.171875l-1.5 0l0 -1.0625l2.8125 0l0 1.46875q0.890625 -1.640625 2.90625 -1.640625q1.203125 0 2.015625 0.75q0.828125 0.734375 0.828125 2.40625l0 4.25l1.4375 0l0 1.0625zm8.158783 -2.796875q-0.171875 1.078125 -0.984375 2.03125q-0.8125 0.953125 -2.515625 0.953125q-1.71875 0 -2.75 -1.109375q-1.03125 -1.109375 -1.03125 -3.109375q0 -1.71875 0.96875 -3.078125q0.984375 -1.359375 2.921875 -1.359375q0.8125 0 1.5 0.1875q0.703125 0.1875 1.328125 0.671875l0.328125 2.0l-1.09375 0.125l-0.3125 -1.40625q-0.75 -0.453125 -1.765625 -0.453125q-1.328125 0 -1.90625 0.953125q-0.578125 0.9375 -0.578125 2.28125q0 1.5 0.640625 2.34375q0.65625 0.828125 1.890625 0.828125q1.875 0 2.234375 -2.109375l1.125 0.25zm8.744171 0.40625q-0.15625 1.0625 -1.0625 1.828125q-0.890625 0.75 -2.421875 0.75q-1.75 0 -2.84375 -1.09375q-1.078125 -1.109375 -1.078125 -3.125q0 -1.9375 1.03125 -3.1875q1.03125 -1.25 2.78125 -1.25q1.71875 0 2.609375 1.078125q0.890625 1.078125 0.921875 2.5625q0 0.484375 -0.125 0.984375l-5.828125 0q0.109375 2.90625 2.625 2.90625q0.984375 0 1.546875 -0.453125q0.5625 -0.46875 0.75 -1.234375l1.09375 0.234375zm-1.453125 -2.421875q0.09375 -0.9375 -0.4375 -1.75q-0.53125 -0.828125 -1.734375 -0.828125q-1.15625 0 -1.703125 0.765625q-0.546875 0.765625 -0.671875 1.8125l4.546875 0z" fill-rule="nonzero"/><path fill="#cfe2f3" d="m222.88452 60.3571l0 0c0 -3.9863892 3.231598 -7.2179947 7.217987 -7.2179947l94.918335 0c1.9143372 0 3.7502747 0.7604675 5.1039124 2.1141014c1.3536377 1.3536377 2.1140747 3.18956 2.1140747 5.1038933l0 28.871101c0 3.9863892 -3.231598 7.2179947 -7.217987 7.2179947l-94.918335 0l0 0c-3.9863892 0 -7.217987 -3.2316055 -7.217987 -7.2179947z" fill-rule="evenodd"/><path stroke="#000000" stroke-width="1.0" stroke-linejoin="round" stroke-linecap="butt" d="m222.88452 60.3571l0 0c0 -3.9863892 3.231598 -7.2179947 7.217987 -7.2179947l94.918335 0c1.9143372 0 3.7502747 0.7604675 5.1039124 2.1141014c1.3536377 1.3536377 2.1140747 3.18956 2.1140747 5.1038933l0 28.871101c0 3.9863892 -3.231598 7.2179947 -7.217987 7.2179947l-94.918335 0l0 0c-3.9863892 0 -7.217987 -3.2316055 -7.217987 -7.2179947z" fill-rule="evenodd"/><path fill="#000000" d="m245.66533 77.35328q0 1.09375 -0.375 2.140625q-0.375 1.046875 -1.203125 1.734375q-0.8125 0.671875 -2.109375 0.671875q-2.09375 0 -2.90625 -1.5625l-0.1875 1.375l-1.3125 0q0.078125 -0.546875 0.171875 -1.171875q0.09375 -0.640625 0.09375 -1.25l0 -9.34375l-1.4375 0l0 -1.0625l2.734375 0l0 6.25q0.375 -0.765625 1.078125 -1.328125q0.703125 -0.5625 1.890625 -0.5625q1.546875 0 2.546875 1.0625q1.015625 1.0625 1.015625 3.046875zm-1.375 0.125q0 -1.546875 -0.734375 -2.328125q-0.71875 -0.78125 -1.765625 -0.78125q-1.203125 0 -1.90625 0.875q-0.703125 0.875 -0.75 1.78125l0 1.25q0 1.046875 0.734375 1.78125q0.75 0.71875 1.828125 0.71875q1.359375 0 1.96875 -1.0q0.625 -1.015625 0.625 -2.296875zm8.275528 -6.21875l0 -1.6875l1.421875 0l0 1.6875l-1.421875 0zm2.890625 10.453125l-4.203125 0l0 -1.0625l1.453125 0l0 -6.171875l-1.5 0l0 -1.0625l2.796875 0l0 7.234375l1.453125 0l0 1.0625zm10.89563 0l-4.1875 0l0 -1.0625l1.4375 0l0 -3.859375q0 -1.34375 -0.546875 -1.890625q-0.546875 -0.5625 -1.375 -0.5625q-1.125 0 -1.8125 0.75q-0.671875 0.734375 -0.703125 1.6875l0 3.875l1.453125 0l0 1.0625l-4.21875 0l0 -1.0625l1.453125 0l0 -6.171875l-1.5 0l0 -1.0625l2.8125 0l0 1.46875q0.890625 -1.640625 2.90625 -1.640625q1.203125 0 2.015625 0.75q0.828125 0.734375 0.828125 2.40625l0 4.25l1.4375 0l0 1.0625zm7.611908 -2.40625q0 1.21875 -1.015625 1.90625q-1.015625 0.6875 -2.5 0.6875q-0.875 0 -1.75 -0.234375q-0.859375 -0.234375 -1.40625 -0.59375l0.265625 -1.875l1.046875 0.109375l-0.0625 1.09375q0.859375 0.421875 1.84375 0.421875q0.875 0 1.546875 -0.34375q0.6875 -0.34375 0.6875 -1.0625q0 -0.6875 -0.515625 -0.96875q-0.515625 -0.28125 -1.296875 -0.40625q-0.78125 -0.140625 -1.5625 -0.3125q-0.78125 -0.1875 -1.3125 -0.640625q-0.515625 -0.46875 -0.515625 -1.4375q0 -1.328125 0.96875 -1.859375q0.96875 -0.546875 2.109375 -0.546875q0.859375 0 1.609375 0.234375q0.765625 0.21875 1.28125 0.53125l0.21875 1.9375l-1.09375 0.125l-0.203125 -1.34375q-0.78125 -0.40625 -1.703125 -0.40625q-0.78125 0 -1.28125 0.296875q-0.5 0.296875 -0.5 0.9375q0 0.65625 0.515625 0.921875q0.53125 0.265625 1.296875 0.390625q0.765625 0.125 1.53125 0.3125q0.765625 0.1875 1.28125 0.671875q0.515625 0.46875 0.515625 1.453125zm7.562042 0.171875q-0.328125 2.421875 -2.625 2.421875q-1.25 0 -1.921875 -0.703125q-0.65625 -0.71875 -0.65625 -1.921875l0 -4.8125l-1.34375 0l0 -1.046875l1.34375 0l0 -2.671875l1.296875 0l0 2.671875l3.25 0l0 1.046875l-3.25 0l0 4.640625q0 0.75 0.328125 1.203125q0.328125 0.453125 1.078125 0.453125q0.484375 0 0.90625 -0.296875q0.421875 -0.296875 0.609375 -1.3125l0.984375 0.328125zm1.6089783 -5.4375q0.65625 -0.421875 1.375 -0.609375q0.734375 -0.1875 1.546875 -0.1875q2.96875 0 2.96875 2.78125l0 3.953125q0 0.890625 0.703125 0.890625q0.328125 0 0.5625 -0.109375l0.015625 0.859375q-0.5 0.28125 -1.078125 0.28125q-1.46875 0 -1.515625 -1.6875l0 -0.03125q-0.390625 0.671875 -1.109375 1.203125q-0.71875 0.515625 -1.71875 0.515625q-0.828125 0 -1.671875 -0.5q-0.84375 -0.515625 -0.84375 -1.828125q0 -1.578125 1.234375 -2.0625q1.25 -0.5 2.640625 -0.5q0.375 0 0.75 0.015625q0.390625 0.015625 0.71875 0.0625l0 -0.75q0 -0.890625 -0.390625 -1.453125q-0.375 -0.5625 -1.484375 -0.5625q-0.921875 0 -1.609375 0.34375l-0.3125 1.4375l-1.078125 -0.140625l0.296875 -1.921875zm4.578125 4.5625l0 -0.640625q-0.34375 -0.015625 -0.734375 -0.046875q-0.390625 -0.046875 -0.8125 -0.046875q-0.921875 0 -1.6875 0.296875q-0.75 0.28125 -0.75 1.25q0 0.796875 0.5 1.109375q0.5 0.296875 1.046875 0.296875q0.859375 0 1.609375 -0.59375q0.765625 -0.609375 0.828125 -1.625zm13.432831 3.109375l-4.1875 0l0 -1.0625l1.4375 0l0 -3.859375q0 -1.34375 -0.546875 -1.890625q-0.546875 -0.5625 -1.375 -0.5625q-1.125 0 -1.8125 0.75q-0.671875 0.734375 -0.703125 1.6875l0 3.875l1.453125 0l0 1.0625l-4.21875 0l0 -1.0625l1.453125 0l0 -6.171875l-1.5 0l0 -1.0625l2.8125 0l0 1.46875q0.890625 -1.640625 2.90625 -1.640625q1.203125 0 2.015625 0.75q0.828125 0.734375 0.828125 2.40625l0 4.25l1.4375 0l0 1.0625zm8.158783 -2.796875q-0.171875 1.078125 -0.984375 2.03125q-0.8125 0.953125 -2.515625 0.953125q-1.71875 0 -2.75 -1.109375q-1.03125 -1.109375 -1.03125 -3.109375q0 -1.71875 0.96875 -3.078125q0.984375 -1.359375 2.921875 -1.359375q0.8125 0 1.5 0.1875q0.703125 0.1875 1.328125 0.671875l0.328125 2.0l-1.09375 0.125l-0.3125 -1.40625q-0.75 -0.453125 -1.765625 -0.453125q-1.328125 0 -1.90625 0.953125q-0.578125 0.9375 -0.578125 2.28125q0 1.5 0.640625 2.34375q0.65625 0.828125 1.890625 0.828125q1.875 0 2.234375 -2.109375l1.125 0.25zm8.744202 0.40625q-0.15625 1.0625 -1.0625 1.828125q-0.890625 0.75 -2.421875 0.75q-1.75 0 -2.84375 -1.09375q-1.078125 -1.109375 -1.078125 -3.125q0 -1.9375 1.03125 -3.1875q1.03125 -1.25 2.78125 -1.25q1.71875 0 2.609375 1.078125q0.890625 1.078125 0.921875 2.5625q0 0.484375 -0.125 0.984375l-5.828125 0q0.109375 2.90625 2.625 2.90625q0.984375 0 1.546875 -0.453125q0.5625 -0.46875 0.75 -1.234375l1.09375 0.234375zm-1.453125 -2.421875q0.09375 -0.9375 -0.4375 -1.75q-0.53125 -0.828125 -1.734375 -0.828125q-1.15625 0 -1.703125 0.765625q-0.546875 0.765625 -0.671875 1.8125l4.546875 0z" fill-rule="nonzero"/><path fill="#000000" fill-opacity="0.0" d="m277.56168 164.71391l0 -39.2126" fill-rule="evenodd"/><path stroke="#000000" stroke-width="1.0" stroke-linejoin="round" stroke-linecap="butt" d="m277.56168 164.71391l0 -33.2126" fill-rule="evenodd"/><path fill="#000000" stroke="#000000" stroke-width="1.0" stroke-linecap="butt" d="m279.2134 131.50131l-1.6517334 -4.538101l-1.6517334 4.538101z" fill-rule="evenodd"/><path fill="#000000" fill-opacity="0.0" d="m106.02887 74.79527l116.8504 0" fill-rule="evenodd"/><path stroke="#666666" stroke-width="1.0" stroke-linejoin="round" stroke-linecap="butt" stroke-dasharray="4.0,3.0" d="m106.02887 74.79527l110.8504 0" fill-rule="evenodd"/><path fill="#666666" stroke="#666666" stroke-width="1.0" stroke-linecap="butt" d="m216.87927 76.44701l4.538086 -1.6517334l-4.538086 -1.6517334z" fill-rule="evenodd"/><path fill="#000000" fill-opacity="0.0" d="m106.02887 186.37534l116.8504 0" fill-rule="evenodd"/><path stroke="#666666" stroke-width="1.0" stroke-linejoin="round" stroke-linecap="butt" stroke-dasharray="4.0,3.0" d="m106.02887 186.37534l110.8504 0" fill-rule="evenodd"/><path fill="#666666" stroke="#666666" stroke-width="1.0" stroke-linecap="butt" d="m216.87927 188.02705l4.538086 -1.6517181l-4.538086 -1.6517334z" fill-rule="evenodd"/><path fill="#000000" fill-opacity="0.0" d="m101.01575 40.0l120.0 0l0 43.307083l-120.0 0z" fill-rule="evenodd"/><path fill="#666666" d="m119.191986 56.466873l0 -1.6875l1.421875 0l0 1.6875l-1.421875 0zm2.890625 10.453125l-4.203125 0l0 -1.0625l1.453125 0l0 -6.171875l-1.5 0l0 -1.0625l2.796875 0l0 7.234375l1.453125 0l0 1.0625zm10.89563 0l-4.1875 0l0 -1.0625l1.4375 0l0 -3.859375q0 -1.34375 -0.546875 -1.890625q-0.546875 -0.5625 -1.375 -0.5625q-1.125 0 -1.8125 0.75q-0.671875 0.734375 -0.703125 1.6875l0 3.875l1.453125 0l0 1.0625l-4.21875 0l0 -1.0625l1.453125 0l0 -6.171875l-1.5 0l0 -1.0625l2.8125 0l0 1.46875q0.890625 -1.640625 2.90625 -1.640625q1.203125 0 2.015625 0.75q0.828125 0.734375 0.828125 2.40625l0 4.25l1.4375 0l0 1.0625zm7.611908 -2.40625q0 1.21875 -1.015625 1.90625q-1.015625 0.6875 -2.5 0.6875q-0.875 0 -1.75 -0.234375q-0.859375 -0.234375 -1.40625 -0.59375l0.265625 -1.875l1.046875 0.109375l-0.0625 1.09375q0.859375 0.421875 1.84375 0.421875q0.875 0 1.546875 -0.34375q0.6875 -0.34375 0.6875 -1.0625q0 -0.6875 -0.515625 -0.96875q-0.515625 -0.28125 -1.296875 -0.40625q-0.78125 -0.140625 -1.5625 -0.3125q-0.78125 -0.1875 -1.3125 -0.640625q-0.515625 -0.46875 -0.515625 -1.4375q0 -1.328125 0.96875 -1.859375q0.96875 -0.546875 2.109375 -0.546875q0.859375 0 1.609375 0.234375q0.765625 0.21875 1.28125 0.53125l0.21875 1.9375l-1.09375 0.125l-0.203125 -1.34375q-0.78125 -0.40625 -1.703125 -0.40625q-0.78125 0 -1.28125 0.296875q-0.5 0.296875 -0.5 0.9375q0 0.65625 0.515625 0.921875q0.53125 0.265625 1.296875 0.390625q0.765625 0.125 1.53125 0.3125q0.765625 0.1875 1.28125 0.671875q0.515625 0.46875 0.515625 1.453125zm7.5620575 0.171875q-0.328125 2.421875 -2.625 2.421875q-1.25 0 -1.921875 -0.703125q-0.65625 -0.71875 -0.65625 -1.921875l0 -4.8125l-1.34375 0l0 -1.046875l1.34375 0l0 -2.671875l1.296875 0l0 2.671875l3.25 0l0 1.046875l-3.25 0l0 4.640625q0 0.75 0.328125 1.203125q0.328125 0.453125 1.078125 0.453125q0.484375 0 0.90625 -0.296875q0.421875 -0.296875 0.609375 -1.3125l0.984375 0.328125zm1.608963 -5.4375q0.65625 -0.421875 1.375 -0.609375q0.734375 -0.1875 1.546875 -0.1875q2.96875 0 2.96875 2.78125l0 3.953125q0 0.890625 0.703125 0.890625q0.328125 0 0.5625 -0.109375l0.015625 0.859375q-0.5 0.28125 -1.078125 0.28125q-1.46875 0 -1.515625 -1.6875l0 -0.03125q-0.390625 0.671875 -1.109375 1.203125q-0.71875 0.515625 -1.71875 0.515625q-0.828125 0 -1.671875 -0.5q-0.84375 -0.515625 -0.84375 -1.828125q0 -1.578125 1.234375 -2.0625q1.25 -0.5 2.640625 -0.5q0.375 0 0.75 0.015625q0.390625 0.015625 0.71875 0.0625l0 -0.75q0 -0.890625 -0.390625 -1.453125q-0.375 -0.5625 -1.484375 -0.5625q-0.921875 0 -1.609375 0.34375l-0.3125 1.4375l-1.078125 -0.140625l0.296875 -1.921875zm4.578125 4.5625l0 -0.640625q-0.34375 -0.015625 -0.734375 -0.046875q-0.390625 -0.046875 -0.8125 -0.046875q-0.921875 0 -1.6875 0.296875q-0.75 0.28125 -0.75 1.25q0 0.796875 0.5 1.109375q0.5 0.296875 1.046875 0.296875q0.859375 0 1.609375 -0.59375q0.765625 -0.609375 0.828125 -1.625zm13.432846 3.109375l-4.1875 0l0 -1.0625l1.4375 0l0 -3.859375q0 -1.34375 -0.546875 -1.890625q-0.546875 -0.5625 -1.375 -0.5625q-1.125 0 -1.8125 0.75q-0.671875 0.734375 -0.703125 1.6875l0 3.875l1.453125 0l0 1.0625l-4.21875 0l0 -1.0625l1.453125 0l0 -6.171875l-1.5 0l0 -1.0625l2.8125 0l0 1.46875q0.890625 -1.640625 2.90625 -1.640625q1.203125 0 2.015625 0.75q0.828125 0.734375 0.828125 2.40625l0 4.25l1.4375 0l0 1.0625zm7.002533 -2.234375q-0.328125 2.421875 -2.625 2.421875q-1.25 0 -1.921875 -0.703125q-0.65625 -0.71875 -0.65625 -1.921875l0 -4.8125l-1.34375 0l0 -1.046875l1.34375 0l0 -2.671875l1.296875 0l0 2.671875l3.25 0l0 1.046875l-3.25 0l0 4.640625q0 0.75 0.328125 1.203125q0.328125 0.453125 1.078125 0.453125q0.484375 0 0.90625 -0.296875q0.421875 -0.296875 0.609375 -1.3125l0.984375 0.328125zm2.046463 -8.21875l0 -1.6875l1.421875 0l0 1.6875l-1.421875 0zm2.890625 10.453125l-4.203125 0l0 -1.0625l1.453125 0l0 -6.171875l-1.5 0l0 -1.0625l2.796875 0l0 7.234375l1.453125 0l0 1.0625zm1.8956299 -7.671875q0.65625 -0.421875 1.375 -0.609375q0.734375 -0.1875 1.546875 -0.1875q2.96875 0 2.96875 2.78125l0 3.953125q0 0.890625 0.703125 0.890625q0.328125 0 0.5625 -0.109375l0.015625 0.859375q-0.5 0.28125 -1.078125 0.28125q-1.46875 0 -1.515625 -1.6875l0 -0.03125q-0.390625 0.671875 -1.109375 1.203125q-0.71875 0.515625 -1.71875 0.515625q-0.828125 0 -1.671875 -0.5q-0.84375 -0.515625 -0.84375 -1.828125q0 -1.578125 1.234375 -2.0625q1.25 -0.5 2.640625 -0.5q0.375 0 0.75 0.015625q0.390625 0.015625 0.71875 0.0625l0 -0.75q0 -0.890625 -0.390625 -1.453125q-0.375 -0.5625 -1.484375 -0.5625q-0.921875 0 -1.609375 0.34375l-0.3125 1.4375l-1.078125 -0.140625l0.296875 -1.921875zm4.578125 4.5625l0 -0.640625q-0.34375 -0.015625 -0.734375 -0.046875q-0.390625 -0.046875 -0.8125 -0.046875q-0.921875 0 -1.6875 0.296875q-0.75 0.28125 -0.75 1.25q0 0.796875 0.5 1.109375q0.5 0.296875 1.046875 0.296875q0.859375 0 1.609375 -0.59375q0.765625 -0.609375 0.828125 -1.625zm9.745346 0.875q-0.328125 2.421875 -2.625 2.421875q-1.25 0 -1.921875 -0.703125q-0.65625 -0.71875 -0.65625 -1.921875l0 -4.8125l-1.34375 0l0 -1.046875l1.34375 0l0 -2.671875l1.296875 0l0 2.671875l3.25 0l0 1.046875l-3.25 0l0 4.640625q0 0.75 0.328125 1.203125q0.328125 0.453125 1.078125 0.453125q0.484375 0 0.90625 -0.296875q0.421875 -0.296875 0.609375 -1.3125l0.984375 0.328125zm8.202713 -0.15625q-0.15625 1.0625 -1.0625 1.828125q-0.890625 0.75 -2.421875 0.75q-1.75 0 -2.84375 -1.09375q-1.078125 -1.109375 -1.078125 -3.125q0 -1.9375 1.03125 -3.1875q1.03125 -1.25 2.78125 -1.25q1.71875 0 2.609375 1.078125q0.890625 1.078125 0.921875 2.5625q0 0.484375 -0.125 0.984375l-5.828125 0q0.109375 2.90625 2.625 2.90625q0.984375 0 1.546875 -0.453125q0.5625 -0.46875 0.75 -1.234375l1.09375 0.234375zm-1.453125 -2.421875q0.09375 -0.9375 -0.4375 -1.75q-0.53125 -0.828125 -1.734375 -0.828125q-1.15625 0 -1.703125 0.765625q-0.546875 0.765625 -0.671875 1.8125l4.546875 0z" fill-rule="nonzero"/><path fill="#000000" fill-opacity="0.0" d="m101.01575 152.0l120.0 0l0 43.307083l-120.0 0z" fill-rule="evenodd"/><path fill="#666666" d="m119.191986 168.46687l0 -1.6875l1.421875 0l0 1.6875l-1.421875 0zm2.890625 10.453125l-4.203125 0l0 -1.0625l1.453125 0l0 -6.171875l-1.5 0l0 -1.0625l2.796875 0l0 7.234375l1.453125 0l0 1.0625zm10.89563 0l-4.1875 0l0 -1.0625l1.4375 0l0 -3.859375q0 -1.34375 -0.546875 -1.890625q-0.546875 -0.5625 -1.375 -0.5625q-1.125 0 -1.8125 0.75q-0.671875 0.734375 -0.703125 1.6875l0 3.875l1.453125 0l0 1.0625l-4.21875 0l0 -1.0625l1.453125 0l0 -6.171875l-1.5 0l0 -1.0625l2.8125 0l0 1.46875q0.890625 -1.640625 2.90625 -1.640625q1.203125 0 2.015625 0.75q0.828125 0.734375 0.828125 2.40625l0 4.25l1.4375 0l0 1.0625zm7.611908 -2.40625q0 1.21875 -1.015625 1.90625q-1.015625 0.6875 -2.5 0.6875q-0.875 0 -1.75 -0.234375q-0.859375 -0.234375 -1.40625 -0.59375l0.265625 -1.875l1.046875 0.109375l-0.0625 1.09375q0.859375 0.421875 1.84375 0.421875q0.875 0 1.546875 -0.34375q0.6875 -0.34375 0.6875 -1.0625q0 -0.6875 -0.515625 -0.96875q-0.515625 -0.28125 -1.296875 -0.40625q-0.78125 -0.140625 -1.5625 -0.3125q-0.78125 -0.1875 -1.3125 -0.640625q-0.515625 -0.46875 -0.515625 -1.4375q0 -1.328125 0.96875 -1.859375q0.96875 -0.546875 2.109375 -0.546875q0.859375 0 1.609375 0.234375q0.765625 0.21875 1.28125 0.53125l0.21875 1.9375l-1.09375 0.125l-0.203125 -1.34375q-0.78125 -0.40625 -1.703125 -0.40625q-0.78125 0 -1.28125 0.296875q-0.5 0.296875 -0.5 0.9375q0 0.65625 0.515625 0.921875q0.53125 0.265625 1.296875 0.390625q0.765625 0.125 1.53125 0.3125q0.765625 0.1875 1.28125 0.671875q0.515625 0.46875 0.515625 1.453125zm7.5620575 0.171875q-0.328125 2.421875 -2.625 2.421875q-1.25 0 -1.921875 -0.703125q-0.65625 -0.71875 -0.65625 -1.921875l0 -4.8125l-1.34375 0l0 -1.046875l1.34375 0l0 -2.671875l1.296875 0l0 2.671875l3.25 0l0 1.046875l-3.25 0l0 4.640625q0 0.75 0.328125 1.203125q0.328125 0.453125 1.078125 0.453125q0.484375 0 0.90625 -0.296875q0.421875 -0.296875 0.609375 -1.3125l0.984375 0.328125zm1.608963 -5.4375q0.65625 -0.421875 1.375 -0.609375q0.734375 -0.1875 1.546875 -0.1875q2.96875 0 2.96875 2.78125l0 3.953125q0 0.890625 0.703125 0.890625q0.328125 0 0.5625 -0.109375l0.015625 0.859375q-0.5 0.28125 -1.078125 0.28125q-1.46875 0 -1.515625 -1.6875l0 -0.03125q-0.390625 0.671875 -1.109375 1.203125q-0.71875 0.515625 -1.71875 0.515625q-0.828125 0 -1.671875 -0.5q-0.84375 -0.515625 -0.84375 -1.828125q0 -1.578125 1.234375 -2.0625q1.25 -0.5 2.640625 -0.5q0.375 0 0.75 0.015625q0.390625 0.015625 0.71875 0.0625l0 -0.75q0 -0.890625 -0.390625 -1.453125q-0.375 -0.5625 -1.484375 -0.5625q-0.921875 0 -1.609375 0.34375l-0.3125 1.4375l-1.078125 -0.140625l0.296875 -1.921875zm4.578125 4.5625l0 -0.640625q-0.34375 -0.015625 -0.734375 -0.046875q-0.390625 -0.046875 -0.8125 -0.046875q-0.921875 0 -1.6875 0.296875q-0.75 0.28125 -0.75 1.25q0 0.796875 0.5 1.109375q0.5 0.296875 1.046875 0.296875q0.859375 0 1.609375 -0.59375q0.765625 -0.609375 0.828125 -1.625zm13.432846 3.109375l-4.1875 0l0 -1.0625l1.4375 0l0 -3.859375q0 -1.34375 -0.546875 -1.890625q-0.546875 -0.5625 -1.375 -0.5625q-1.125 0 -1.8125 0.75q-0.671875 0.734375 -0.703125 1.6875l0 3.875l1.453125 0l0 1.0625l-4.21875 0l0 -1.0625l1.453125 0l0 -6.171875l-1.5 0l0 -1.0625l2.8125 0l0 1.46875q0.890625 -1.640625 2.90625 -1.640625q1.203125 0 2.015625 0.75q0.828125 0.734375 0.828125 2.40625l0 4.25l1.4375 0l0 1.0625zm7.002533 -2.234375q-0.328125 2.421875 -2.625 2.421875q-1.25 0 -1.921875 -0.703125q-0.65625 -0.71875 -0.65625 -1.921875l0 -4.8125l-1.34375 0l0 -1.046875l1.34375 0l0 -2.671875l1.296875 0l0 2.671875l3.25 0l0 1.046875l-3.25 0l0 4.640625q0 0.75 0.328125 1.203125q0.328125 0.453125 1.078125 0.453125q0.484375 0 0.90625 -0.296875q0.421875 -0.296875 0.609375 -1.3125l0.984375 0.328125zm2.046463 -8.21875l0 -1.6875l1.421875 0l0 1.6875l-1.421875 0zm2.890625 10.453125l-4.203125 0l0 -1.0625l1.453125 0l0 -6.171875l-1.5 0l0 -1.0625l2.796875 0l0 7.234375l1.453125 0l0 1.0625zm1.8956299 -7.671875q0.65625 -0.421875 1.375 -0.609375q0.734375 -0.1875 1.546875 -0.1875q2.96875 0 2.96875 2.78125l0 3.953125q0 0.890625 0.703125 0.890625q0.328125 0 0.5625 -0.109375l0.015625 0.859375q-0.5 0.28125 -1.078125 0.28125q-1.46875 0 -1.515625 -1.6875l0 -0.03125q-0.390625 0.671875 -1.109375 1.203125q-0.71875 0.515625 -1.71875 0.515625q-0.828125 0 -1.671875 -0.5q-0.84375 -0.515625 -0.84375 -1.828125q0 -1.578125 1.234375 -2.0625q1.25 -0.5 2.640625 -0.5q0.375 0 0.75 0.015625q0.390625 0.015625 0.71875 0.0625l0 -0.75q0 -0.890625 -0.390625 -1.453125q-0.375 -0.5625 -1.484375 -0.5625q-0.921875 0 -1.609375 0.34375l-0.3125 1.4375l-1.078125 -0.140625l0.296875 -1.921875zm4.578125 4.5625l0 -0.640625q-0.34375 -0.015625 -0.734375 -0.046875q-0.390625 -0.046875 -0.8125 -0.046875q-0.921875 0 -1.6875 0.296875q-0.75 0.28125 -0.75 1.25q0 0.796875 0.5 1.109375q0.5 0.296875 1.046875 0.296875q0.859375 0 1.609375 -0.59375q0.765625 -0.609375 0.828125 -1.625zm9.745346 0.875q-0.328125 2.421875 -2.625 2.421875q-1.25 0 -1.921875 -0.703125q-0.65625 -0.71875 -0.65625 -1.921875l0 -4.8125l-1.34375 0l0 -1.046875l1.34375 0l0 -2.671875l1.296875 0l0 2.671875l3.25 0l0 1.046875l-3.25 0l0 4.640625q0 0.75 0.328125 1.203125q0.328125 0.453125 1.078125 0.453125q0.484375 0 0.90625 -0.296875q0.421875 -0.296875 0.609375 -1.3125l0.984375 0.328125zm8.202713 -0.15625q-0.15625 1.0625 -1.0625 1.828125q-0.890625 0.75 -2.421875 0.75q-1.75 0 -2.84375 -1.09375q-1.078125 -1.109375 -1.078125 -3.125q0 -1.9375 1.03125 -3.1875q1.03125 -1.25 2.78125 -1.25q1.71875 0 2.609375 1.078125q0.890625 1.078125 0.921875 2.5625q0 0.484375 -0.125 0.984375l-5.828125 0q0.109375 2.90625 2.625 2.90625q0.984375 0 1.546875 -0.453125q0.5625 -0.46875 0.75 -1.234375l1.09375 0.234375zm-1.453125 -2.421875q0.09375 -0.9375 -0.4375 -1.75q-0.53125 -0.828125 -1.734375 -0.828125q-1.15625 0 -1.703125 0.765625q-0.546875 0.765625 -0.671875 1.8125l4.546875 0z" fill-rule="nonzero"/><path fill="#ffffff" d="m250.31758 96.44847l54.488205 0l0 23.2462l-27.24411 5.8115463l-27.244095 -5.8115463z" fill-rule="evenodd"/><path stroke="#000000" stroke-width="1.0" stroke-linejoin="round" stroke-linecap="butt" d="m250.31758 96.44847l54.488205 0l0 23.2462l-27.24411 5.8115463l-27.244095 -5.8115463z" fill-rule="evenodd"/><path fill="#000000" d="m272.03732 101.170944l-0.546875 0l-1.40625 4.140625l-0.5625 0l-1.453125 -3.625l-0.0625 0l-1.40625 3.625l-0.5625 0l-1.4375 -4.140625l-0.53125 0l0 -0.59375l2.234375 0l0 0.59375l-0.90625 0l1.0 3.0l0.046875 0l1.40625 -3.59375l0.5 0l1.484375 3.59375l0.0625 0l0.859375 -3.0l-0.859375 0l0 -0.59375l2.140625 0l0 0.59375zm0.95965576 -0.234375q0.375 -0.25 0.78125 -0.359375q0.421875 -0.109375 0.890625 -0.109375q1.703125 0 1.703125 1.59375l0 2.265625q0 0.5 0.40625 0.5q0.171875 0 0.3125 -0.0625l0.015625 0.5q-0.296875 0.15625 -0.625 0.15625q-0.84375 0 -0.859375 -0.96875l0 -0.015625q-0.21875 0.390625 -0.640625 0.6875q-0.40625 0.296875 -0.984375 0.296875q-0.46875 0 -0.953125 -0.28125q-0.484375 -0.296875 -0.484375 -1.046875q0 -0.90625 0.703125 -1.1875q0.71875 -0.28125 1.515625 -0.28125q0.21875 0 0.4375 0.015625q0.21875 0 0.40625 0.03125l0 -0.421875q0 -0.515625 -0.21875 -0.828125q-0.21875 -0.328125 -0.859375 -0.328125q-0.515625 0 -0.921875 0.1875l-0.171875 0.828125l-0.625 -0.078125l0.171875 -1.09375zm2.625 2.59375l0 -0.359375q-0.203125 -0.015625 -0.4375 -0.03125q-0.21875 -0.015625 -0.453125 -0.015625q-0.53125 0 -0.96875 0.171875q-0.421875 0.15625 -0.421875 0.703125q0 0.453125 0.28125 0.625q0.296875 0.171875 0.609375 0.171875q0.484375 0 0.90625 -0.328125q0.4375 -0.34375 0.484375 -0.9375zm5.912628 0.40625q0 0.6875 -0.578125 1.09375q-0.578125 0.390625 -1.4375 0.390625q-0.5 0 -1.0 -0.125q-0.484375 -0.140625 -0.796875 -0.34375l0.15625 -1.078125l0.59375 0.0625l-0.03125 0.625q0.484375 0.234375 1.046875 0.234375q0.5 0 0.890625 -0.1875q0.390625 -0.203125 0.390625 -0.609375q0 -0.390625 -0.296875 -0.546875q-0.296875 -0.171875 -0.75 -0.234375q-0.4375 -0.078125 -0.890625 -0.1875q-0.4375 -0.109375 -0.734375 -0.359375q-0.296875 -0.265625 -0.296875 -0.828125q0 -0.75 0.546875 -1.0625q0.5625 -0.3125 1.203125 -0.3125q0.5 0 0.921875 0.140625q0.4375 0.125 0.734375 0.296875l0.109375 1.109375l-0.609375 0.078125l-0.125 -0.765625q-0.4375 -0.234375 -0.96875 -0.234375q-0.4375 0 -0.734375 0.171875q-0.28125 0.171875 -0.28125 0.53125q0 0.375 0.296875 0.53125q0.296875 0.15625 0.734375 0.21875q0.4375 0.0625 0.875 0.171875q0.4375 0.109375 0.734375 0.390625q0.296875 0.265625 0.296875 0.828125zm9.51123 1.375l-2.265625 0l0 -0.609375l0.6875 0l0 -2.203125q0 -0.765625 -0.296875 -1.078125q-0.296875 -0.3125 -0.765625 -0.3125q-0.65625 0 -1.015625 0.484375q-0.34375 0.484375 -0.359375 0.9375l0 2.171875l0.828125 0l0 0.609375l-2.265625 0l0 -0.609375l0.6875 0l0 -2.203125q0 -0.78125 -0.296875 -1.078125q-0.296875 -0.3125 -0.765625 -0.3125q-0.65625 0 -1.0 0.46875q-0.34375 0.46875 -0.375 0.9375l0 2.1875l0.875 0l0 0.609375l-2.453125 0l0 -0.609375l0.84375 0l0 -3.53125l-0.84375 0l0 -0.59375l1.578125 0l0 0.875q0.234375 -0.421875 0.625 -0.703125q0.40625 -0.28125 0.96875 -0.28125q0.546875 0 0.953125 0.28125q0.421875 0.28125 0.578125 0.859375q0.203125 -0.5 0.625 -0.8125q0.421875 -0.328125 1.046875 -0.328125q0.671875 0 1.125 0.4375q0.453125 0.421875 0.453125 1.375l0 2.421875l0.828125 0l0 0.609375z" fill-rule="nonzero"/><path fill="#000000" d="m263.989 118.31157l-2.40625 0l0 -0.609375l0.828125 0l0 -6.109375l-0.84375 0l0 -0.609375l1.59375 0l0 6.71875l0.828125 0l0 0.609375zm1.3345947 -5.96875l0 -0.96875l0.796875 0l0 0.96875l-0.796875 0zm1.640625 5.96875l-2.40625 0l0 -0.609375l0.828125 0l0 -3.53125l-0.84375 0l0 -0.59375l1.59375 0l0 4.125l0.828125 0l0 0.609375zm6.2337646 0l-2.40625 0l0 -0.609375l0.828125 0l0 -2.203125q0 -0.765625 -0.3125 -1.078125q-0.3125 -0.3125 -0.796875 -0.3125q-0.625 0 -1.015625 0.421875q-0.390625 0.40625 -0.421875 0.953125l0 2.21875l0.84375 0l0 0.609375l-2.421875 0l0 -0.609375l0.84375 0l0 -3.53125l-0.859375 0l0 -0.59375l1.59375 0l0 0.828125q0.515625 -0.9375 1.671875 -0.9375q0.6875 0 1.15625 0.4375q0.46875 0.421875 0.46875 1.375l0 2.421875l0.828125 0l0 0.609375zm5.5123596 0l-2.234375 0l0 -0.609375l0.71875 0l-1.3125 -1.609375l-0.828125 0l0 1.609375l0.671875 0l0 0.609375l-2.25 0l0 -0.609375l0.8125 0l0 -6.109375l-0.84375 0l0 -0.609375l1.609375 0l0 4.53125l0.84375 0l1.09375 -1.34375l-0.734375 0l0 -0.59375l2.203125 0l0 0.59375l-0.71875 0l-1.265625 1.578125l1.5625 1.953125l0.671875 0l0 0.609375zm1.2444153 -5.96875l0 -0.96875l0.796875 0l0 0.96875l-0.796875 0zm1.640625 5.96875l-2.40625 0l0 -0.609375l0.828125 0l0 -3.53125l-0.84375 0l0 -0.59375l1.59375 0l0 4.125l0.828125 0l0 0.609375zm6.233795 0l-2.40625 0l0 -0.609375l0.828125 0l0 -2.203125q0 -0.765625 -0.3125 -1.078125q-0.3125 -0.3125 -0.796875 -0.3125q-0.625 0 -1.015625 0.421875q-0.390625 0.40625 -0.421875 0.953125l0 2.21875l0.84375 0l0 0.609375l-2.421875 0l0 -0.609375l0.84375 0l0 -3.53125l-0.859375 0l0 -0.59375l1.59375 0l0 0.828125q0.515625 -0.9375 1.671875 -0.9375q0.6875 0 1.15625 0.4375q0.46875 0.421875 0.46875 1.375l0 2.421875l0.828125 0l0 0.609375zm5.746704 -4.140625l-0.765625 0l0 4.078125q0 1.125 -0.609375 1.78125q-0.609375 0.65625 -1.71875 0.65625q-0.75 0 -1.34375 -0.34375q-0.59375 -0.34375 -0.78125 -1.046875l0.59375 -0.296875q0.1875 0.546875 0.625 0.796875q0.453125 0.25 0.9375 0.25q0.671875 0 1.109375 -0.484375q0.4375 -0.46875 0.4375 -1.34375l0 -0.875q-0.21875 0.421875 -0.625 0.734375q-0.40625 0.296875 -1.078125 0.296875q-0.84375 0 -1.4375 -0.59375q-0.59375 -0.59375 -0.59375 -1.71875q0 -0.953125 0.5 -1.765625q0.515625 -0.828125 1.625 -0.828125q1.125 0 1.609375 0.84375l0 -0.734375l1.515625 0l0 0.59375zm-1.515625 2.09375l0 -0.8125q0 -0.609375 -0.421875 -0.96875q-0.40625 -0.375 -0.984375 -0.375q-0.8125 0 -1.171875 0.578125q-0.34375 0.578125 -0.34375 1.328125q0 0.875 0.390625 1.296875q0.40625 0.421875 0.984375 0.421875q0.6875 0 1.09375 -0.46875q0.421875 -0.46875 0.453125 -1.0z" fill-rule="nonzero"/><path fill="#000000" fill-opacity="0.0" d="m277.56168 53.139107l0 -19.464565" fill-rule="evenodd"/><path stroke="#000000" stroke-width="1.0" stroke-linejoin="round" stroke-linecap="butt" d="m277.56168 53.139107l0 -13.464565" fill-rule="evenodd"/><path fill="#000000" stroke="#000000" stroke-width="1.0" stroke-linecap="butt" d="m279.2134 39.67454l-1.6517334 -4.5380974l-1.6517334 4.5380974z" fill-rule="evenodd"/><path fill="#ffffff" d="m250.31758 4.6061263l54.488205 0l0 23.246195l-27.24411 5.8115463l-27.244095 -5.8115463z" fill-rule="evenodd"/><path stroke="#000000" stroke-width="1.0" stroke-linejoin="round" stroke-linecap="butt" d="m250.31758 4.6061263l54.488205 0l0 23.246195l-27.24411 5.8115463l-27.244095 -5.8115463z" fill-rule="evenodd"/><path fill="#000000" d="m272.03732 9.328599l-0.546875 0l-1.40625 4.140625l-0.5625 0l-1.453125 -3.625l-0.0625 0l-1.40625 3.625l-0.5625 0l-1.4375 -4.140625l-0.53125 0l0 -0.59375l2.234375 0l0 0.59375l-0.90625 0l1.0 3.0l0.046875 0l1.40625 -3.59375l0.5 0l1.484375 3.59375l0.0625 0l0.859375 -3.0l-0.859375 0l0 -0.59375l2.140625 0l0 0.59375zm0.95965576 -0.234375q0.375 -0.25 0.78125 -0.359375q0.421875 -0.109375 0.890625 -0.109375q1.703125 0 1.703125 1.59375l0 2.265625q0 0.5 0.40625 0.5q0.171875 0 0.3125 -0.0625l0.015625 0.5q-0.296875 0.15625 -0.625 0.15625q-0.84375 0 -0.859375 -0.96875l0 -0.015625q-0.21875 0.390625 -0.640625 0.6875q-0.40625 0.296875 -0.984375 0.296875q-0.46875 0 -0.953125 -0.28125q-0.484375 -0.296875 -0.484375 -1.046875q0 -0.90625 0.703125 -1.1875q0.71875 -0.28125 1.515625 -0.28125q0.21875 0 0.4375 0.015625q0.21875 0 0.40625 0.03125l0 -0.421875q0 -0.515625 -0.21875 -0.828125q-0.21875 -0.328125 -0.859375 -0.328125q-0.515625 0 -0.921875 0.1875l-0.171875 0.828125l-0.625 -0.078125l0.171875 -1.09375zm2.625 2.59375l0 -0.359375q-0.203125 -0.015625 -0.4375 -0.03125q-0.21875 -0.015625 -0.453125 -0.015625q-0.53125 0 -0.96875 0.171875q-0.421875 0.15625 -0.421875 0.703125q0 0.453125 0.28125 0.625q0.296875 0.171875 0.609375 0.171875q0.484375 0 0.90625 -0.328125q0.4375 -0.34375 0.484375 -0.9375zm5.912628 0.40625q0 0.6875 -0.578125 1.09375q-0.578125 0.390625 -1.4375 0.390625q-0.5 0 -1.0 -0.125q-0.484375 -0.140625 -0.796875 -0.34375l0.15625 -1.078125l0.59375 0.0625l-0.03125 0.625q0.484375 0.234375 1.046875 0.234375q0.5 0 0.890625 -0.1875q0.390625 -0.203125 0.390625 -0.609375q0 -0.390625 -0.296875 -0.546875q-0.296875 -0.171875 -0.75 -0.234375q-0.4375 -0.078125 -0.890625 -0.1875q-0.4375 -0.109375 -0.734375 -0.359375q-0.296875 -0.265625 -0.296875 -0.828125q0 -0.75 0.546875 -1.0625q0.5625 -0.3125 1.203125 -0.3125q0.5 0 0.921875 0.140625q0.4375 0.125 0.734375 0.296875l0.109375 1.109375l-0.609375 0.078125l-0.125 -0.765625q-0.4375 -0.234375 -0.96875 -0.234375q-0.4375 0 -0.734375 0.171875q-0.28125 0.171875 -0.28125 0.53125q0 0.375 0.296875 0.53125q0.296875 0.15625 0.734375 0.21875q0.4375 0.0625 0.875 0.171875q0.4375 0.109375 0.734375 0.390625q0.296875 0.265625 0.296875 0.828125zm9.51123 1.375l-2.265625 0l0 -0.609375l0.6875 0l0 -2.203125q0 -0.765625 -0.296875 -1.078125q-0.296875 -0.3125 -0.765625 -0.3125q-0.65625 0 -1.015625 0.484375q-0.34375 0.484375 -0.359375 0.9375l0 2.171875l0.828125 0l0 0.609375l-2.265625 0l0 -0.609375l0.6875 0l0 -2.203125q0 -0.78125 -0.296875 -1.078125q-0.296875 -0.3125 -0.765625 -0.3125q-0.65625 0 -1.0 0.46875q-0.34375 0.46875 -0.375 0.9375l0 2.1875l0.875 0l0 0.609375l-2.453125 0l0 -0.609375l0.84375 0l0 -3.53125l-0.84375 0l0 -0.59375l1.578125 0l0 0.875q0.234375 -0.421875 0.625 -0.703125q0.40625 -0.28125 0.96875 -0.28125q0.546875 0 0.953125 0.28125q0.421875 0.28125 0.578125 0.859375q0.203125 -0.5 0.625 -0.8125q0.421875 -0.328125 1.046875 -0.328125q0.671875 0 1.125 0.4375q0.453125 0.421875 0.453125 1.375l0 2.421875l0.828125 0l0 0.609375z" fill-rule="nonzero"/><path fill="#000000" d="m263.989 26.469225l-2.40625 0l0 -0.609375l0.828125 0l0 -6.109375l-0.84375 0l0 -0.609375l1.59375 0l0 6.71875l0.828125 0l0 0.609375zm1.3345947 -5.96875l0 -0.96875l0.796875 0l0 0.96875l-0.796875 0zm1.640625 5.96875l-2.40625 0l0 -0.609375l0.828125 0l0 -3.53125l-0.84375 0l0 -0.59375l1.59375 0l0 4.125l0.828125 0l0 0.609375zm6.2337646 0l-2.40625 0l0 -0.609375l0.828125 0l0 -2.203125q0 -0.765625 -0.3125 -1.078125q-0.3125 -0.3125 -0.796875 -0.3125q-0.625 0 -1.015625 0.421875q-0.390625 0.40625 -0.421875 0.953125l0 2.21875l0.84375 0l0 0.609375l-2.421875 0l0 -0.609375l0.84375 0l0 -3.53125l-0.859375 0l0 -0.59375l1.59375 0l0 0.828125q0.515625 -0.9375 1.671875 -0.9375q0.6875 0 1.15625 0.4375q0.46875 0.421875 0.46875 1.375l0 2.421875l0.828125 0l0 0.609375zm5.5123596 0l-2.234375 0l0 -0.609375l0.71875 0l-1.3125 -1.609375l-0.828125 0l0 1.609375l0.671875 0l0 0.609375l-2.25 0l0 -0.609375l0.8125 0l0 -6.109375l-0.84375 0l0 -0.609375l1.609375 0l0 4.53125l0.84375 0l1.09375 -1.34375l-0.734375 0l0 -0.59375l2.203125 0l0 0.59375l-0.71875 0l-1.265625 1.578125l1.5625 1.953125l0.671875 0l0 0.609375zm1.2444153 -5.96875l0 -0.96875l0.796875 0l0 0.96875l-0.796875 0zm1.640625 5.96875l-2.40625 0l0 -0.609375l0.828125 0l0 -3.53125l-0.84375 0l0 -0.59375l1.59375 0l0 4.125l0.828125 0l0 0.609375zm6.233795 0l-2.40625 0l0 -0.609375l0.828125 0l0 -2.203125q0 -0.765625 -0.3125 -1.078125q-0.3125 -0.3125 -0.796875 -0.3125q-0.625 0 -1.015625 0.421875q-0.390625 0.40625 -0.421875 0.953125l0 2.21875l0.84375 0l0 0.609375l-2.421875 0l0 -0.609375l0.84375 0l0 -3.53125l-0.859375 0l0 -0.59375l1.59375 0l0 0.828125q0.515625 -0.9375 1.671875 -0.9375q0.6875 0 1.15625 0.4375q0.46875 0.421875 0.46875 1.375l0 2.421875l0.828125 0l0 0.609375zm5.746704 -4.140625l-0.765625 0l0 4.078125q0 1.125 -0.609375 1.78125q-0.609375 0.65625 -1.71875 0.65625q-0.75 0 -1.34375 -0.34375q-0.59375 -0.34375 -0.78125 -1.046875l0.59375 -0.296875q0.1875 0.546875 0.625 0.796875q0.453125 0.25 0.9375 0.25q0.671875 0 1.109375 -0.484375q0.4375 -0.46875 0.4375 -1.34375l0 -0.875q-0.21875 0.421875 -0.625 0.734375q-0.40625 0.296875 -1.078125 0.296875q-0.84375 0 -1.4375 -0.59375q-0.59375 -0.59375 -0.59375 -1.71875q0 -0.953125 0.5 -1.765625q0.515625 -0.828125 1.625 -0.828125q1.125 0 1.609375 0.84375l0 -0.734375l1.515625 0l0 0.59375zm-1.515625 2.09375l0 -0.8125q0 -0.609375 -0.421875 -0.96875q-0.40625 -0.375 -0.984375 -0.375q-0.8125 0 -1.171875 0.578125q-0.34375 0.578125 -0.34375 1.328125q0 0.875 0.390625 1.296875q0.40625 0.421875 0.984375 0.421875q0.6875 0 1.09375 -0.46875q0.421875 -0.46875 0.453125 -1.0z" fill-rule="nonzero"/></g></svg>